SplineFontDB: 3.0
FontName: AnkaCoder-C87-i
FullName: Anka/Coder Condensed Italic
FamilyName: Anka/Coder Condensed
Weight: Book
Copyright: Copyright (c) 2010, Andrey Makarov (makarov@bmstu.ru, mka-at-mailru@mail.ru),\nwith Reserved Font Name Anka/Coder Condensed.\n---------------------------------\nThe Anka/* are members of Anna Shugol name font family; March 2010
Version: 001.000
ItalicAngle: -12
UnderlinePosition: -292
UnderlineWidth: 150
Ascent: 1638
Descent: 410
LayerCount: 2
Layer: 0 0 "Back"  1
Layer: 1 0 "Fore"  0
XUID: [1021 77 1780377344 760501]
UseXUID: 1
BaseHoriz: 0
FSType: 8
OS2Version: 1
OS2_WeightWidthSlopeOnly: 0
OS2_UseTypoMetrics: 1
CreationTime: 1260467214
ModificationTime: 1268390706
PfmFamily: 49
TTFWeight: 400
TTFWidth: 4
LineGap: 0
VLineGap: 0
Panose: 2 11 5 9 2 5 2 2 2 4
OS2TypoAscent: 0
OS2TypoAOffset: 1
OS2TypoDescent: 0
OS2TypoDOffset: 1
OS2TypoLinegap: 0
OS2WinAscent: 0
OS2WinAOffset: 1
OS2WinDescent: 0
OS2WinDOffset: 1
HheadAscent: 0
HheadAOffset: 1
HheadDescent: 0
HheadDOffset: 1
OS2SubXSize: 553
OS2SubYSize: 1229
OS2SubXOff: 0
OS2SubYOff: 283
OS2SupXSize: 553
OS2SupYSize: 1229
OS2SupXOff: 0
OS2SupYOff: 977
OS2StrikeYSize: 102
OS2StrikeYPos: 530
OS2FamilyClass: 1285
OS2Vendor: 'AVM1'
OS2CodePages: 40000097.cfd60000
OS2UnicodeRanges: 800002ef.000079eb.00000000.00000000
MacStyle: 2
DEI: 91125
ShortTable: maxp 16
  0
  0
  0
  0
  0
  0
  0
  2
  1
  0
  9
  0
  256
  0
  0
  0
EndShort
TtTable: prep
PUSHW_1
 511
SCANCTRL
SVTCA[y-axis]
MPPEM
PUSHB_1
 8
LT
IF
PUSHB_2
 1
 1
INSTCTRL
EIF
PUSHB_2
 70
 6
CALL
IF
POP
PUSHB_1
 16
EIF
MPPEM
PUSHB_1
 20
GT
IF
POP
PUSHB_1
 128
EIF
SCVTCI
PUSHB_1
 6
CALL
NOT
IF
EIF
EndTTInstrs
TtTable: fpgm
PUSHB_1
 0
FDEF
PUSHB_1
 0
SZP0
MPPEM
PUSHB_1
 42
LT
IF
PUSHB_1
 74
SROUND
EIF
PUSHB_1
 0
SWAP
MIAP[rnd]
RTG
PUSHB_1
 6
CALL
IF
RTDG
EIF
MPPEM
PUSHB_1
 42
LT
IF
RDTG
EIF
DUP
MDRP[rp0,rnd,grey]
PUSHB_1
 1
SZP0
MDAP[no-rnd]
RTG
ENDF
PUSHB_1
 1
FDEF
DUP
DUP
MDRP[rp0,min,white]
MDAP[rnd]
PUSHB_1
 7
CALL
NOT
IF
DUP

StartChar: exclam
Encoding: 33 33 1
Width: 1075
GlyphClass: 2
Flags: W
HStem: -68 194<343.398 507.285> 1398 20G<684.5 739>
VStem: 328 195<-52.3284 110.08> 438 138<384 522>
DStem2: 341.924 -68 479.924 -68 0.207912 0.978148<490.79 1460.93>
LayerCount: 2
Fore
SplineSet
721 1418 m 0xd0
 757 1418 789 1382 791 1331 c 0
 791 1312 788 1297 786 1290 c 2
 576 384 l 1
 438 384 l 1
 605 1291 l 2
 610 1319 648 1418 721 1418 c 0xd0
523 29 m 0xe0
 523 -23 483 -68 425 -68 c 0
 370 -68 328 -24 328 29 c 0
 328 80 367 126 425 126 c 0
 482 126 523 82 523 29 c 0xe0
EndSplineSet
Validated: 3073
EndChar

StartChar: quotedbl
Encoding: 34 34 2
Width: 1075
VWidth: 1708
GlyphClass: 2
Flags: W
HStem: 1049 377
LayerCount: 2
Fore
SplineSet
412 1076 m 2
 395 1057 376 1049 359 1049 c 3
 331 1049 309 1070 309 1102 c 3
 309 1114 312 1127 319 1141 c 2
 429 1368 l 2
 449 1409 481 1426 513 1426 c 3
 563 1426 613 1384 613 1331 c 3
 613 1309 604 1285 582 1261 c 2
 412 1076 l 2
832 1076 m 2
 815 1057 796 1049 779 1049 c 3
 751 1049 729 1070 729 1102 c 3
 729 1114 732 1127 739 1141 c 2
 849 1368 l 2
 869 1409 901 1426 933 1426 c 3
 983 1426 1033 1384 1033 1331 c 3
 1033 1309 1024 1285 1002 1261 c 2
 832 1076 l 2
EndSplineSet
EndChar

StartChar: numbersign
Encoding: 35 35 3
Width: 1075
VWidth: 1708
GlyphClass: 2
Flags: W
HStem: 341 150<35 167 353 594 781 918> 898 151<156 288 475 716 902 1039>
VStem: 93 153<0 153> 387 153<1197 1350> 520 153<0 153> 815 153<1197 1350>
DStem2: 93 -0 246 -0 0.207912 0.978148<31.8105 348.934 534.328 918.919 1105.5 1381.63> 520 -0 673 -0 0.207912 0.978148<31.8105 348.934 534.535 919.127 1105.5 1381.83>
LayerCount: 2
Fore
SplineSet
353 491 m 1xe4
 627 491 l 1
 716 898 l 1
 442 898 l 1
 353 491 l 1xe4
246 -0 m 1
 195 0 144 0 93 0 c 1
 167 341 l 1
 0 341 l 1
 35 491 l 1
 200 491 l 1
 288 898 l 1
 124 898 l 1
 156 1049 l 1
 321 1049 l 1
 387 1350 l 1
 540 1350 l 1xf4
 475 1049 l 1
 749 1049 l 1
 815 1350 l 1
 968 1350 l 1
 902 1049 l 1
 1072 1049 l 1
 1039 898 l 1
 870 898 l 1
 781 491 l 1
 950 491 l 1
 918 341 l 1
 748 341 l 1
 673 0 l 1
 622 0 571 0 520 -0 c 1xec
 594 341 l 1
 321 341 l 1
 246 -0 l 1
EndSplineSet
Validated: 3073
EndChar

StartChar: dollar
Encoding: 36 36 4
Width: 1075
VWidth: 2334
GlyphClass: 2
Flags: W
HStem: -23 158<275.728 343 528 627.975> 1271 148<798 888.19>
VStem: 49 149<207.103 342.695> 244 150<935.419 1127.02> 780 150<280.695 598.101> 925 150<1073.31 1231.36>
DStem2: 10.2604 -93 163.062 -93 0.207912 0.978148<1134.69 1337.32> 326 -93 480 -93 0.207912 0.978148<32.0184 81.021 265.016 810.633 1002.6 1383.67 1577.09 1618.83> 533 888 406 783 0.900814 -0.434205<-166.918 0 191.478 335.814> 674.412 -93 826.789 -93 0.207912 0.978148<323.736 534.744>
LayerCount: 2
Fore
SplineSet
533 888 m 1xf0
 611 1261 l 1
 505 1227 424 1139 405 1049 c 1
 399 1017 l 2
 397 1009 394 995 394 985 c 3
 394 965 405 949 472 917 c 2
 533 888 l 1xf0
640 669 m 1
 528 135 l 1
 647 166 750 260 769 352 c 2
 775 382 l 2
 778 397 780 416 780 432 c 3xf8
 780 504 751 616 682 649 c 2
 640 669 l 1
798 1419 m 1
 1045 1384 1075 1220 1075 1150 c 3
 1075 1130 1075 1130 1063 1052 c 1
 915 1074 l 1
 921 1098 925 1128 925 1150 c 10
 925 1155 l 2xf4
 925 1225 852 1260 767 1271 c 1
 672 821 l 1
 750 783 l 2
 900 710 930 513 930 432 c 3
 930 403 926 377 921 352 c 2
 915 322 l 1
 879 149 694 -2 494 -23 c 1
 480 -93 l 1
 326 -93 l 1
 343 -16 l 1
 177 20 54 161 49 307 c 1
 49 347 52 361 55 374 c 1
 201 340 l 1
 199 333 198 324 198 316 c 3
 198 248 256 157 373 131 c 1
 501 737 l 1
 406 783 l 2
 329 820 244 884 244 985 c 3
 244 1004 247 1026 253 1049 c 1
 259 1078 l 2
 295 1255 458 1396 645 1421 c 1
 660 1491 l 1
 813 1491 l 1
 798 1419 l 1
EndSplineSet
Validated: 3073
EndChar

StartChar: percent
Encoding: 37 37 5
Width: 1075
VWidth: 1708
GlyphClass: 2
Flags: W
HStem: -11 150<666.137 802.744> 363 151<661.035 799.285> 882 150<396.139 532.308> 1258 150<395.185 535.368>
VStem: 230 150<1042.89 1246.2> 495 150<156.342 348.877> 550 150<1044.41 1247.2> 815 150<147.327 351.685>
DStem2: -41 126 71 26 0.666289 0.745694<0.0549316 1674.95>
LayerCount: 2
Fore
SplineSet
730 -11 m 3xfd
 592 -11 495 114 495 252 c 27
 495 485 698 514 729 514 c 3
 889 514 965 390 965 252 c 27
 965 114 898 -11 730 -11 c 3xfd
645 252 m 27
 645 197 681 139 730 139 c 3
 803 139 815 197 815 252 c 27
 815 307 793 363 729 363 c 3
 673 363 645 306 645 252 c 27
380 1145 m 27
 380 1090 404 1032 465 1032 c 3
 525 1032 550 1090 550 1145 c 27xfb
 550 1200 532 1258 465 1258 c 3
 397 1258 380 1200 380 1145 c 27
700 1145 m 27
 700 1007 613 882 465 882 c 3
 326 882 230 970 230 1145 c 27
 230 1283 327 1408 465 1408 c 27
 669 1408 700 1236 700 1145 c 27
1075 1375 m 1
 1187 1275 l 1
 71 26 l 1
 -41 126 l 1
 1075 1375 l 1
EndSplineSet
Validated: 3073
EndChar

StartChar: ampersand
Encoding: 38 38 6
Width: 1075
VWidth: 2334
GlyphClass: 2
Flags: W
HStem: -25 150<240.539 584.135> 1275 150<570.189 829.228>
VStem: 39 150<174.683 375.69> 356 155<906.247 1219.03> 834 150<1093.99 1265.88>
DStem2: -29.9213 -25 124.03 -25 0.207912 0.978148<320.992 564.857> 290 701 374 577 0.808821 0.588056<-215.795 149.638 333.64 667.504> 624 758 499 668 0.3801 -0.924945<35.7326 390.87 658.154 774.393> 769 395 839 222 0.52323 0.852192<0 274.758>
LayerCount: 2
Fore
SplineSet
817 1113 m 2
 831 1173 l 2
 833 1184 834 1194 834 1203 c 3
 834 1268 777 1275 718 1275 c 2
 696 1275 l 2
 555 1275 527 1180 520 1147 c 2
 516 1126 l 2
 513 1105 511 1086 511 1067 c 3
 511 1017 524 968 560 897 c 1
 702 1000 l 2
 740 1027 811 1086 817 1113 c 2
438 809 m 1
 410 858 356 948 356 1049 c 3
 356 1080 364 1133 368 1154 c 2
 372 1177 l 2
 404 1325 523 1425 696 1425 c 2
 718 1425 l 2
 777 1425 794 1422 840 1405 c 0
 940 1368 981 1288 984 1211 c 3
 984 1184 981 1161 977 1141 c 2
 965 1083 l 2
 955 1036 925 978 788 878 c 2
 624 758 l 1
 769 395 l 1
 913 629 l 1
 1041 551 l 1
 839 222 l 1
 913 38 l 1
 773 -18 l 1
 730 90 l 1
 646 17 541 -25 421 -25 c 2
 401 -25 l 2
 193 -25 39 90 39 255 c 0
 39 274 39 304 50 351 c 2
 57 382 l 2
 87 523 197 633 290 701 c 2
 438 809 l 1
670 241 m 1
 499 668 l 1
 374 577 l 2
 290 516 219 430 203 352 c 2
 198 323 l 2
 196 309 189 269 189 256 c 0
 193 173 286 125 401 125 c 2
 421 125 l 2
 525 125 607 167 670 241 c 1
EndSplineSet
Validated: 3073
EndChar

StartChar: quotesingle
Encoding: 39 39 7
Width: 1075
VWidth: 1708
GlyphClass: 2
Flags: W
HStem: 1049 377
VStem: 579 304
LayerCount: 2
Fore
SplineSet
682 1076 m 2
 665 1057 646 1049 629 1049 c 3
 601 1049 579 1070 579 1102 c 3
 579 1114 582 1127 589 1141 c 2
 699 1368 l 2
 719 1409 751 1426 783 1426 c 3
 833 1426 883 1384 883 1331 c 3
 883 1309 874 1285 852 1261 c 2
 682 1076 l 2
EndSplineSet
EndChar

StartChar: parenleft
Encoding: 40 40 8
Width: 1075
VWidth: 1708
GlyphClass: 2
Flags: W
VStem: 213 150<296.654 797.132>
LayerCount: 2
Fore
SplineSet
957 1416 m 1
 571 1186 363 879 363 521 c 0
 363 455 380 186 640 -21 c 1
 546 -139 l 1
 231 112 213 440 213 521 c 0
 213 930 448 1286 881 1544 c 1
 957 1416 l 1
EndSplineSet
Validated: 3073
EndChar

StartChar: parenright
Encoding: 41 41 9
Width: 1075
VWidth: 1708
GlyphClass: 2
Flags: W
VStem: 762 150<637.697 1108.08>
LayerCount: 2
Fore
SplineSet
575 1539 m 1
 896 1283 912 991 912 865 c 0
 912 536 650 101 240 -144 c 1
 164 -16 l 1
 483 175 762 554 762 865 c 0
 762 980 744 1211 481 1421 c 1
 575 1539 l 1
EndSplineSet
Validated: 3073
EndChar

StartChar: asterisk
Encoding: 42 42 10
Width: 1075
VWidth: 1708
GlyphClass: 2
Flags: W
HStem: 677 143<169.62 206 959 1000.3>
VStem: 565 149<947.849 1067.71>
DStem2: 268 813 206 677 0.909559 -0.415574<-30.6777 244.436> 221 356 331 254 0.686916 0.726737<-50.1852 299.953> 398.611 230 552.06 230 0.207912 0.978148<531.828 818.517> 659 560 536 471 0.455253 -0.890362<23.2461 281.668> 656 719 659 560 0.931655 0.363345<0 293.441>
LayerCount: 2
Fore
SplineSet
772 339 m 2
 778 328 780 316 780 305 c 0
 780 278 765 251 739 238 c 0
 728 232 716 230 705 230 c 0
 678 230 651 245 638 271 c 2
 536 471 l 1
 331 254 l 2
 316 238 296 230 276 230 c 0
 258 230 239 236 225 250 c 0
 209 265 201 285 201 305 c 0
 201 323 207 342 221 356 c 2
 428 575 l 1
 206 677 l 2
 178 690 162 717 162 745 c 0
 162 755 164 766 169 776 c 0
 182 804 209 820 237 820 c 0
 247 820 258 818 268 813 c 2
 500 707 l 1
 565 1016 l 2
 572 1051 604 1075 639 1075 c 0
 644 1075 649 1074 654 1073 c 0
 689 1066 714 1035 714 1000 c 0
 714 995 713 989 712 984 c 2
 656 719 l 1
 905 815 l 2
 914 818 923 820 932 820 c 0
 962 820 991 802 1002 772 c 0
 1005 763 1007 754 1007 745 c 0
 1007 715 989 688 959 677 c 2
 659 560 l 1
 772 339 l 2
EndSplineSet
Validated: 3073
EndChar

StartChar: plus
Encoding: 43 43 11
Width: 1075
VWidth: 1708
GlyphClass: 2
Flags: W
HStem: 525 150<160 459 644 948>
VStem: 383 153<157 310> 560 153<858 1011>
DStem2: 383 157 536 157 0.207912 0.978148<31.8105 375.76 560.945 872.138>
LayerCount: 2
Fore
SplineSet
383 157 m 1
 459 525 l 1
 128 525 l 1
 160 675 l 1
 490 675 l 1
 560 1011 l 1
 713 1011 l 1
 644 675 l 1
 980 675 l 1
 948 525 l 1
 612 525 l 1
 536 157 l 1
 383 157 l 1
EndSplineSet
Validated: 3073
EndChar

StartChar: comma
Encoding: 44 44 12
Width: 1075
VWidth: 1947
GlyphClass: 2
Flags: W
HStem: -278 57<319 356.437>
VStem: 440 195<6.32885 110.08>
LayerCount: 2
Fore
SplineSet
634 7 m 1
 607 -114 556 -278 357 -278 c 0
 345 -278 332 -279 319 -278 c 1
 316 -221 l 1
 374 -213 488 -169 488 -96 c 0
 488 -78 482 -58 466 -37 c 1
 450 -19 440 4 440 29 c 0
 440 80 479 126 537 126 c 0
 594 126 635 81 635 29 c 0
 635 21 634 13 632 6 c 1
 634 7 l 1
EndSplineSet
Validated: 3073
EndChar

StartChar: hyphen
Encoding: 45 45 13
Width: 1075
VWidth: 1708
GlyphClass: 2
Flags: W
HStem: 525 150<127 949>
LayerCount: 2
Fore
SplineSet
949 675 m 1
 949 525 l 1
 127 525 l 1
 127 675 l 1
 949 675 l 1
EndSplineSet
Validated: 3073
EndChar

StartChar: period
Encoding: 46 46 14
Width: 1075
VWidth: 1708
GlyphClass: 2
Flags: W
HStem: -68 27<546 553 556 562 565 570 572 577 581 585> -27 6<549 554> -19 2<550 552> -15 2<549 552>
VStem: 524 4<-21 -15 -13 -11> 534 2<-21 -13> 538 2<-21 -13> 542 2<-21 -13> 546 2<-19 -17> 548 8<-33 -29> 550 2<-19 -17> 554 2<-39 -35 -29 -27> 562 2<-39 -33> 566 2<-39 -31> 570 2<-39 -33> 574 2<-39 -33> 578 2<-39 -33> 582 2<-39 -33> 586 2<-39 -33>
LayerCount: 2
Fore
SplineSet
592 -39 m 25xff8fe0
 590 -39 l 25
 590 -27 l 25
 588 -27 l 25
 588 -41 l 25
 592 -41 l 25
 592 -39 l 25xff8fe0
584 -39 m 9
 582 -39 l 17
 582 -33 l 9
 584 -33 l 1
 584 -39 l 9
522 -21 m 9
 524 -21 l 25
 524 -15 l 25
 528 -15 l 25
 528 -21 l 25
 530 -21 l 25
 530 -7 l 25
 524 -7 l 17
 522 -11 l 1
 522 -21 l 9
525 -9 m 9
 528 -9 l 25
 528 -13 l 25
 524 -13 l 17
 524 -11 l 1
 525 -9 l 9
536 -13 m 25
 536 -21 l 25
 538 -21 l 17
 538 -13 l 1
 537 -11 l 9
 532 -11 l 17
 532 -21 l 9
 534 -21 l 17
 534 -13 l 9
 536 -13 l 25
544 -13 m 25
 544 -21 l 25
 546 -21 l 17
 546 -13 l 1
 545 -11 l 9
 540 -11 l 17
 540 -21 l 9
 542 -21 l 25
 542 -13 l 25
 544 -13 l 25
550 -17 m 25xffafe0
 552 -17 l 25
 552 -19 l 25
 550 -19 l 25
 550 -17 l 25xffafe0
549 -21 m 9
 554 -21 l 17
 554 -13 l 1xffbfe0
 553 -11 l 9
 548 -11 l 25
 548 -13 l 25
 552 -13 l 25
 552 -15 l 25
 549 -15 l 17
 548 -17 l 1
 548 -19 l 1
 549 -21 l 9
560 -33 m 25
 560 -41 l 25
 562 -41 l 17
 562 -33 l 1
 561 -31 l 1
 558 -31 l 1
 558 -27 l 1
 556 -27 l 9
 556 -41 l 25
 558 -41 l 25
 558 -33 l 25
 560 -33 l 25
553 -33 m 1
 548 -33 l 25
 548 -29 l 25
 554 -29 l 1
 554 -27 l 9
 547 -27 l 17
 546 -29 l 1
 546 -33 l 1
 547 -35 l 9
 552 -35 l 17
 552 -39 l 1
 546 -39 l 1
 546 -41 l 9
 553 -41 l 17
 554 -39 l 1
 554 -35 l 1
 553 -33 l 1
568 -39 m 25
 566 -39 l 25
 566 -31 l 25
 564 -31 l 17
 564 -39 l 1
 565 -41 l 9
 570 -41 l 25
 570 -31 l 25
 568 -31 l 25
 568 -39 l 25
574 -39 m 25
 574 -33 l 25
 576 -33 l 25
 576 -39 l 25
 574 -39 l 25
573 -31 m 17
 572 -33 l 1
 572 -39 l 1
 573 -41 l 9
 576 -41 l 25
 576 -43 l 25
 572 -43 l 25
 572 -45 l 25
 577 -45 l 17
 578 -43 l 1
 578 -31 l 9
 573 -31 l 17
581 -31 m 17
 580 -33 l 1
 580 -39 l 1
 581 -41 l 9
 585 -41 l 17
 586 -39 l 1
 586 -33 l 1
 585 -31 l 9
 581 -31 l 17
635 29 m 0
 635 -23 595 -68 537 -68 c 0
 482 -68 440 -24 440 29 c 0
 440 80 479 126 537 126 c 0
 594 126 635 82 635 29 c 0
EndSplineSet
EndChar

StartChar: slash
Encoding: 47 47 15
Width: 1075
VWidth: 1708
GlyphClass: 2
Flags: W
DStem2: 36 16 162 -66 0.546814 0.837254<0.243668 1731.85>
LayerCount: 2
Fore
SplineSet
983 1466 m 1
 1109 1384 l 1
 162 -66 l 1
 36 16 l 1
 983 1466 l 1
EndSplineSet
Validated: 3073
EndChar

StartChar: zero
Encoding: 48 48 16
Width: 1075
VWidth: 1708
GlyphClass: 2
Flags: W
HStem: -25 150<326.822 564.827> 1275 150<562.097 818.178>
DStem2: -60 161 -18 -12 0.697984 0.716113<0 155.061 490.764 1169.83 1501.29 1661.31>
LayerCount: 2
Fore
SplineSet
865 893 m 1
 278 292 l 1
 299 144 376 125 438 125 c 0
 599 125 742 285 840 747 c 0
 851 803 860 850 865 893 c 1
707 1275 m 0
 491 1275 389 1052 318 717 c 0
 318 717 297 618 283 512 c 1
 867 1110 l 1
 846 1257 769 1275 707 1275 c 0
-60 161 m 1
 123 348 l 1
 123 355 123 365 123 372 c 0
 123 522 168 729 172 747 c 0
 237 1060 357 1425 707 1425 c 0
 803 1425 930 1390 989 1235 c 1
 1172 1425 l 1
 1208 1245 l 1
 1022 1054 l 1
 1022 1042 1023 1030 1023 1014 c 0
 1023 918 1010 829 986 717 c 0
 925 423 792 -25 438 -25 c 0
 342 -25 215 11 156 167 c 1
 -18 -12 l 1
 -60 161 l 1
EndSplineSet
Validated: 3073
EndChar

StartChar: one
Encoding: 49 49 17
Width: 1075
VWidth: 1708
GlyphClass: 2
Flags: W
HStem: 1405 20G<777.202 913>
VStem: 457 153<-25 128>
DStem2: 457 -25 610 -25 0.207912 0.978148<31.8105 1146.49>
LayerCount: 2
Fore
SplineSet
457 -25 m 1
 688 1098 l 1
 411 988 l 1
 381 1024 l 1
 798 1425 l 1
 913 1425 l 1
 610 -25 l 1
 457 -25 l 1
EndSplineSet
Validated: 3073
EndChar

StartChar: two
Encoding: 50 50 18
Width: 1075
VWidth: 2334
GlyphClass: 2
Flags: W
HStem: 0 150<247 855> 1275 150<514.564 889.812>
VStem: 910 150<1022.57 1249.27>
DStem2: 293 443 386 325 0.715872 0.698232<-233.869 842.829> 889 1040 1043 1049 0.176408 0.984317<-78.6395 137.656>
LayerCount: 2
Fore
SplineSet
717 1425 m 2
 831 1425 1060 1416 1060 1177 c 3
 1060 1137 1048 1072 1043 1049 c 2
 1035 1008 l 2
 1028 972 974 899 873 800 c 2
 386 325 l 2
 347 287 288 219 247 150 c 1
 887 150 l 1
 855 0 l 1
 0 0 l 1
 55 110 l 2
 109 212 203 355 293 443 c 2
 769 908 l 2
 859 996 886 1023 889 1040 c 2
 897 1080 l 2
 903 1108 910 1158 910 1177 c 3
 910 1275 782 1275 717 1275 c 2
 696 1275 l 2
 533 1275 480 1218 424 1138 c 1
 300 1224 l 1
 370 1324 462 1425 696 1425 c 2
 717 1425 l 2
EndSplineSet
Validated: 3073
EndChar

StartChar: three
Encoding: 51 51 19
Width: 1075
VWidth: 2334
GlyphClass: 2
Flags: W
HStem: -25 150<276.204 612.795> 734 150<411 726.73> 1275 150<529.196 836.046>
VStem: 88 150<164.96 321.324> 774 150<320.478 690.066> 856 151<984.099 1254.65>
DStem2: 610.265 -25 762.642 -25 0.207912 0.978148<979.274 1211> 664.688 -25 817.915 -25 0.207912 0.978148<245.022 571.068>
LayerCount: 2
Fore
SplineSet
774 537 m 3xf8
 774 621 754 734 615 734 c 2
 411 734 l 1
 411 884 l 1
 606 884 l 2
 733 884 823 970 836 1037 c 2
 845 1079 l 2
 852 1109 856 1137 856 1162 c 3
 856 1230 824 1275 717 1275 c 2
 696 1275 l 2
 598 1275 489 1232 435 1149 c 1
 309 1231 l 1
 396 1365 558 1425 696 1425 c 2
 717 1425 l 2
 908 1425 1007 1308 1007 1167 c 3xf4
 1007 1131 996 1073 991 1049 c 2
 982 1007 l 2
 965 922 908 847 829 798 c 1
 900 726 924 622 924 537 c 3
 924 495 919 448 909 400 c 2
 904 380 l 2
 851 122 690 -25 448 -25 c 2
 427 -25 l 2
 231 -25 88 83 88 246 c 3
 88 278 96 333 101 354 c 1
 247 320 l 1
 244 308 238 264 238 246 c 3
 238 149 359 125 427 125 c 2
 448 125 l 2
 622 125 721 231 758 414 c 2
 763 434 l 2
 771 474 774 507 774 537 c 3xf8
EndSplineSet
Validated: 3073
EndChar

StartChar: four
Encoding: 52 52 20
Width: 1075
VWidth: 1708
GlyphClass: 2
Flags: W
HStem: 352 150<334 666 851 928> 1405 20G<898.18 1044>
VStem: 593 153<0 153>
DStem2: 90 444 334 502 0.643631 0.765336<201.435 952.256> 593 -0 746 -0 0.207912 0.978148<31.8105 359.486 544.671 1099.27>
LayerCount: 2
Fore
SplineSet
818 1076 m 1
 334 502 l 1
 698 502 l 1
 818 1076 l 1
90 444 m 1
 915 1425 l 1
 1044 1425 l 1
 851 502 l 1
 960 502 l 1
 928 352 l 1
 820 352 l 1
 746 -0 l 1
 695 0 644 0 593 -0 c 1
 666 352 l 1
 70 352 l 1
 90 444 l 1
EndSplineSet
Validated: 3073
EndChar

StartChar: five
Encoding: 53 53 21
Width: 1075
VWidth: 2334
GlyphClass: 2
Flags: W
HStem: -25 150<222.091 598.34> 804 150<483.159 736.929> 1250 150<537 1048>
VStem: 788 150<465.225 751.65>
DStem2: 207 737 419 896 0.317515 0.948253<0 13.8087 218.085 591.234> 665.524 -25 818.325 -25 0.207912 0.978148<261.45 642.229>
LayerCount: 2
Fore
SplineSet
788 607 m 3
 788 693 758 804 620 804 c 2
 599 804 l 2
 538 804 422 736 346 627 c 1
 207 737 l 1
 429 1400 l 1
 1079 1400 l 1
 1048 1250 l 1
 537 1250 l 1
 419 896 l 1
 481 933 545 954 599 954 c 2
 620 954 l 2
 818 954 938 809 938 607 c 3
 938 565 934 519 925 472 c 1
 911 411 l 2
 856 156 697 -25 448 -25 c 2
 369 -25 l 2
 228 -25 65 42 35 199 c 1
 181 257 l 0
 181 152 292 125 369 125 c 2
 448 125 l 2
 638 125 729 279 765 443 c 2
 777 502 l 1
 784 541 788 576 788 607 c 3
EndSplineSet
Validated: 3073
EndChar

StartChar: six
Encoding: 54 54 22
Width: 1075
VWidth: 2334
GlyphClass: 2
Flags: W
HStem: -25 150<318.458 598.34> 804 150<452.546 736.982> 1275 150<553.156 891.55>
VStem: 107 150<186.123 550.92> 788 150<371.523 753.537>
DStem2: 20.6733 -25 173.325 -25 0.207912 0.978148<393.659 766.391 960.518 1243.27> 665.524 -25 818.325 -25 0.207912 0.978148<261.45 636.861>
LayerCount: 2
Fore
SplineSet
906 1211 m 1
 893 1255 845 1272 717 1275 c 2
 696 1275 l 2
 536 1275 417 1135 379 959 c 2
 364 884 l 1
 430 928 509 954 599 954 c 2
 620 954 l 2
 856 954 938 767 938 592 c 3
 938 551 933 510 925 472 c 2
 911 411 l 2
 856 156 697 -25 448 -25 c 2
 427 -25 l 2
 235 -25 107 128 107 326 c 3
 107 360 113 405 121 447 c 2
 233 989 l 2
 277 1203 439 1425 696 1425 c 2
 717 1425 l 2
 805 1425 1000 1421 1050 1253 c 1
 906 1211 l 1
788 601 m 3
 788 690 760 804 620 804 c 2
 599 804 l 2
 407 804 311 628 279 472 c 2
 266 411 l 2
 259 380 257 352 257 326 c 3
 257 208 321 125 427 125 c 2
 448 125 l 2
 638 125 729 279 765 443 c 2
 777 502 l 2
 786 552 788 581 788 601 c 3
EndSplineSet
Validated: 3073
EndChar

StartChar: seven
Encoding: 55 55 23
Width: 1075
VWidth: 1708
GlyphClass: 2
Flags: W
HStem: 1250 150<285 890>
VStem: 119 164<0 164>
LayerCount: 2
Fore
SplineSet
254 1250 m 1
 285 1400 l 1
 1147 1400 l 1
 1125 1291 l 1
 1110 1275 l 2
 775 905 480 434 283 0 c 1
 229 0 174 -0 119 -0 c 1
 300 415 573 870 890 1250 c 1
 254 1250 l 1
EndSplineSet
Validated: 3073
EndChar

StartChar: eight
Encoding: 56 56 24
Width: 1075
VWidth: 2334
GlyphClass: 2
Flags: W
HStem: -25 150<284.552 612.795> 734 150<450.325 722.228> 1275 150<565.399 836.046>
VStem: 95 150<161.696 488.854> 287 150<902.125 1072.73> 774 150<320.478 680.749> 856 151<984.099 1254.65>
DStem2: 18.963 -25 173.663 -25 0.207912 0.978148<340.933 688.562> 68.8398 -25 221.714 -25 0.207912 0.978148<1046.4 1292.38> 610.265 -25 762.642 -25 0.207912 0.978148<979.274 1211> 664.688 -25 817.915 -25 0.207912 0.978148<245.022 571.068>
LayerCount: 2
Fore
SplineSet
774 537 m 3xfc
 774 621 744 733 606 734 c 2
 583 734 l 2
 392 733 296 555 264 400 c 2
 259 380 l 2
 251 342 245 306 245 274 c 3
 245 184 287 125 427 125 c 2
 448 125 l 2
 622 125 721 231 758 414 c 2
 763 434 l 2
 771 474 774 507 774 537 c 3xfc
717 1425 m 2
 908 1425 1007 1308 1007 1167 c 3xfa
 1007 1131 996 1071 991 1047 c 2
 982 1007 l 2
 965 922 908 847 829 798 c 1
 900 726 924 622 924 537 c 3
 924 495 919 448 909 400 c 2
 904 380 l 2
 851 122 690 -25 448 -25 c 2
 427 -25 l 2
 173 -25 95 141 95 268 c 3
 95 303 99 352 111 408 c 2
 118 440 l 2
 149 569 216 724 348 813 c 1
 316 844 287 894 287 966 c 3
 287 981 289 1010 295 1039 c 2
 304 1079 l 2
 347 1279 512 1425 696 1425 c 2
 717 1425 l 2
437 966 m 3
 437 887 542 884 583 884 c 2
 606 884 l 2
 733 884 823 970 836 1037 c 2
 845 1079 l 2
 852 1109 856 1137 856 1162 c 3
 856 1230 824 1275 717 1275 c 2
 696 1275 l 2
 583 1275 473 1181 450 1049 c 2
 443 1009 l 2
 441 999 437 977 437 966 c 3
EndSplineSet
Validated: 3073
EndChar

StartChar: nine
Encoding: 57 57 25
Width: 1075
VWidth: 2334
GlyphClass: 2
Flags: W
HStem: -25 150<250.793 577.641> 478 150<414.838 702.665> 1275 150<539.859 830.555>
VStem: 212 150<683.688 968.3> 887 150<855.475 1216.37>
DStem2: 17.656 -25 170.458 -25 0.207912 0.978148<921.95 1257.12> 665.335 -25 817.712 -25 0.207912 0.978148<298.636 581.446 782.734 1125.92>
LayerCount: 2
Fore
SplineSet
362 843 m 3
 362 747 386 628 531 628 c 2
 552 628 l 2
 742 628 834 784 869 946 c 2
 875 973 l 2
 883 1015 887 1058 887 1080 c 3
 887 1150 853 1275 717 1275 c 2
 696 1275 l 2
 593 1275 440 1240 376 942 c 2
 370 914 l 2
 366 893 362 872 362 843 c 3
240 188 m 1
 255 131 344 127 427 125 c 2
 448 125 l 2
 606 125 738 314 768 458 c 2
 785 544 l 1
 719 502 642 478 552 478 c 2
 531 478 l 2
 390 478 212 557 212 843 c 3
 212 884 218 916 224 946 c 2
 230 974 l 2
 320 1395 584 1425 696 1425 c 2
 717 1425 l 2
 923 1425 1037 1253 1037 1080 c 3
 1037 1032 1034 1004 1030 985 c 2
 914 428 l 2
 872 225 691 -25 448 -25 c 2
 427 -25 l 2
 336 -25 142 -22 96 148 c 1
 240 188 l 1
EndSplineSet
Validated: 3073
EndChar

StartChar: less
Encoding: 60 60 28
Width: 1075
VWidth: 1708
GlyphClass: 2
Flags: W
DStem2: 364 590 175 563 0.726231 -0.687451<0 640.176> 195 657 364 590 0.828649 0.559769<102.537 889.674>
LayerCount: 2
Fore
SplineSet
195 657 m 1
 1061 1242 l 1
 1016 1031 l 1
 364 590 l 1
 829 150 l 1
 793 -22 l 1
 175 563 l 1
 195 657 l 1
EndSplineSet
Validated: 3073
EndChar

StartChar: equal
Encoding: 61 61 29
Width: 1075
VWidth: 1708
GlyphClass: 2
Flags: W
HStem: 325 150<100 922> 767 150<194 1016>
LayerCount: 2
Fore
SplineSet
922 475 m 1
 922 325 l 1
 100 325 l 1
 100 475 l 1
 922 475 l 1
1016 917 m 1
 1016 767 l 1
 194 767 l 1
 194 917 l 1
 1016 917 l 1
EndSplineSet
Validated: 3073
EndChar

StartChar: greater
Encoding: 62 62 30
Width: 1075
VWidth: 1708
GlyphClass: 2
Flags: W
DStem2: 91 168 46 -43 0.828505 0.559982<0 788.526> 315 1223 279 1049 0.725644 -0.68807<93.601 733.088>
LayerCount: 2
Fore
SplineSet
315 1223 m 1
 933 637 l 1
 913 543 l 1
 46 -43 l 1
 91 168 l 1
 744 610 l 1
 279 1049 l 1
 315 1223 l 1
EndSplineSet
Validated: 3073
EndChar

StartChar: question
Encoding: 63 63 31
Width: 1075
VWidth: 1708
GlyphClass: 2
Flags: W
HStem: -87 236<333.831 527.094> 1049 21G<297.31 414> 1275 150<517.32 892.783>
VStem: 252 146<1075.15 1152.63> 306 249<-57.6871 120.037> 909 150<996.839 1253.6>
DStem2: 330.364 -87 483.364 -87 0.207912 0.978148<458.126 754.105> 632 784 730 672 0.752843 0.6582<-182.056 389.661> 649.661 -87 801.536 -87 0.207912 0.978148<1057.1 1283.28>
LayerCount: 2
Fore
SplineSet
555 31 m 0xec
 555 -38 496 -87 430 -87 c 0
 366 -87 306 -37 306 31 c 0
 306 93 360 149 430 149 c 0
 495 149 555 101 555 31 c 0xec
717 1425 m 2
 969 1425 1059 1325 1059 1173 c 3
 1059 1148 1057 1111 1043 1049 c 2
 1035 1009 l 18
 1022 942 965 878 905 825 c 2
 730 672 l 2
 675 623 607 505 599 464 c 2
 572 330 l 1
 419 330 l 1
 453 496 l 2
 469 573 556 718 632 784 c 2
 805 937 l 2
 873 997 886 1025 889 1039 c 2
 897 1079 l 2
 905 1116 909 1146 909 1171 c 3
 909 1255 858 1275 717 1275 c 2
 696 1275 l 2
 531 1275 430 1199 398 1049 c 1
 252 1078 l 1xf4
 294 1286 445 1425 696 1425 c 2
 717 1425 l 2
EndSplineSet
Validated: 3073
EndChar

StartChar: at
Encoding: 64 64 32
Width: 1075
VWidth: 1708
GlyphClass: 2
Flags: W
HStem: -25 150<315.976 697.541> 360 150<613.905 781.333> 926 150<697.396 912> 1275 150<553.945 874.528>
VStem: 69 150<236.651 776.979> 459 150<514.219 805.157> 945 153<978.062 1208.59>
DStem2: 712.842 -25 867.842 -25 0.207912 0.978148<403.336 421.118 594.466 971.626 1124.17 1161.97>
LayerCount: 2
Fore
SplineSet
808 926 m 2
 735 926 662 891 626 719 c 0
 617 670 609 620 609 595 c 3
 609 525 637 510 690 510 c 3
 761 510 847 618 855 655 c 2
 912 926 l 1
 880 926 808 926 808 926 c 2
438 -25 m 3
 211 -25 69 159 69 456 c 3
 69 547 85 659 103 747 c 0
 171 1073 364 1425 707 1425 c 3
 1034 1425 1098 1186 1098 1098 c 3
 1098 1089 1097 1081 1096 1076 c 2
 945 338 l 1
 790 338 l 1
 800 387 l 1
 765 370 728 360 690 360 c 3
 527 360 459 466 459 595 c 3
 459 644 473 723 478 749 c 0
 541 1052 729 1076 808 1076 c 2
 808 1076 874 1076 940 1076 c 1
 942 1086 l 2
 944 1096 945 1105 945 1114 c 3
 945 1219 823 1275 707 1275 c 3
 484 1275 316 1039 249 717 c 0
 233 639 219 530 219 456 c 3
 219 320 258 125 438 125 c 3
 551 125 655 134 731 190 c 1
 821 70 l 1
 704 -17 555 -25 438 -25 c 3
EndSplineSet
Validated: 3073
EndChar

StartChar: B
Encoding: 66 66 33
Width: 1075
VWidth: 1947
GlyphClass: 2
Flags: W
HStem: 0 150<213 646.616> 712 150<360 741.567> 1250 150<440 842.006>
VStem: 783 150<322.615 668.88> 853 150<970.981 1233.21>
DStem2: 29 0 181.117 0 0.207912 0.978148<184.978 758.815 911.982 1308.14> 609.941 0 762.318 0 0.207912 0.978148<920.561 1195.82> 671.18 0 823.557 0 0.207912 0.978148<208.216 571.208>
LayerCount: 2
Fore
SplineSet
655 1250 m 2xe8
 440 1250 l 1
 360 862 l 1
 542 862 l 2
 748 862 806 921 831 1040 c 2
 839 1079 l 2
 847 1118 853 1148 853 1172 c 3
 853 1235 811 1250 655 1250 c 2xe8
783 561 m 3xf0
 783 621 758 712 600 712 c 2
 329 712 l 1
 213 150 l 1
 454 150 l 2
 672 150 724 249 746 352 c 2
 776 500 l 2
 781 524 783 544 783 561 c 3xf0
840 783 m 1
 860 765 933 694 933 561 c 3xf0
 933 531 929 502 922 470 c 2
 892 322 l 2
 848 111 704 0 454 0 c 2
 29 0 l 1
 318 1400 l 1
 655 1400 l 2
 747 1400 1003 1389 1003 1176 c 3xe8
 1003 1136 990 1072 985 1049 c 2
 977 1010 l 2
 954 903 909 830 840 783 c 1
EndSplineSet
Validated: 3073
EndChar

StartChar: C
Encoding: 67 67 34
Width: 1075
VWidth: 1947
GlyphClass: 2
Flags: W
HStem: -25 150<327.291 573.472> 1275 150<558.236 818.324>
VStem: 123 150<181.515 715.656> 870 150<1078.04 1216.39>
LayerCount: 2
Fore
SplineSet
273 372 m 3
 273 155 364 125 438 125 c 3
 557 125 646 212 716 349 c 1
 850 281 l 1
 808 199 685 -25 438 -25 c 3
 307 -25 123 44 123 372 c 3
 123 522 168 728 172 747 c 0
 238 1059 357 1425 707 1425 c 3
 833 1425 1001 1363 1020 1079 c 1
 870 1069 l 1
 858 1254 774 1275 707 1275 c 3
 491 1275 388 1053 318 717 c 0
 318 717 273 510 273 372 c 3
EndSplineSet
Validated: 3073
EndChar

StartChar: D
Encoding: 68 68 35
Width: 1075
VWidth: 1947
GlyphClass: 2
Flags: W
HStem: 0 150<213 584.282> 1250 150<440 816.849>
VStem: 871 150<692.031 1194.11>
DStem2: 29 0 181.117 0 0.207912 0.978148<184.978 1308.14> 678.94 0 831.741 0 0.207912 0.978148<326.747 995.866>
LayerCount: 2
Fore
SplineSet
871 980 m 3
 871 1158 837 1250 702 1250 c 2
 440 1250 l 1
 213 150 l 1
 444 150 l 2
 665 150 767 417 812 626 c 2
 857 836 l 2
 866 878 871 922 871 980 c 3
1003 804 m 2
 958 594 l 1
 836 32 547 0 444 0 c 2
 29 0 l 1
 318 1400 l 1
 702 1400 l 2
 956 1400 1021 1175 1021 982 c 3
 1021 915 1014 852 1003 804 c 2
EndSplineSet
Validated: 3073
EndChar

StartChar: E
Encoding: 69 69 36
Width: 1075
VWidth: 1708
GlyphClass: 2
Flags: W
HStem: 0 151<213 857> 712 150<360 896> 1250 150<440 1117>
DStem2: 29 0 180.904 0 0.207912 0.978148<185.956 758.815 911.982 1308.14>
LayerCount: 2
Fore
SplineSet
329 712 m 1
 213 151 l 1
 888 151 l 1
 857 0 l 1
 29 0 l 1
 318 1400 l 1
 1148 1400 l 1
 1117 1250 l 1
 440 1250 l 1
 360 862 l 1
 927 862 l 1
 896 712 l 1
 329 712 l 1
EndSplineSet
Validated: 3073
EndChar

StartChar: F
Encoding: 70 70 37
Width: 1075
VWidth: 1708
GlyphClass: 2
Flags: W
HStem: -0 21G<27 184.157> 712 150<359 896> 1250 150<440 1117>
VStem: 27 153<0 153>
DStem2: 27 -0 180 -0 0.207912 0.978148<31.8105 759.023 912.19 1308.55>
LayerCount: 2
Fore
SplineSet
27 -0 m 1
 318 1400 l 1
 1148 1400 l 1
 1117 1250 l 1
 440 1250 l 1
 359 862 l 1
 927 862 l 1
 896 712 l 1
 328 712 l 1
 180 0 l 1
 129 0 78 -0 27 -0 c 1
EndSplineSet
Validated: 3073
EndChar

StartChar: G
Encoding: 71 71 38
Width: 1075
VWidth: 1947
GlyphClass: 2
Flags: W
HStem: -25 150<325.664 625.073> 542 150<604 786> 1275 150<555.962 818.542>
VStem: 122 150<185.222 704.953> 870 150<1078.04 1216.39>
DStem2: 8.83824 -25 161.64 -25 0.207912 0.978148<462.475 1215.3> 667.745 -25 820.373 -25 0.207912 0.978148<226.811 579.196>
LayerCount: 2
Fore
SplineSet
438 -25 m 3
 303 -25 122 41 122 389 c 3
 122 459 129 542 147 625 c 2
 204 892 l 2
 312 1398 606 1425 707 1425 c 3
 834 1425 1001 1363 1020 1079 c 1
 870 1069 l 1
 858 1254 774 1275 707 1275 c 3
 636 1275 435 1259 350 860 c 2
 293 593 l 2
 278 524 272 450 272 389 c 3
 272 180 339 125 438 125 c 3
 592 125 681 186 733 282 c 1
 786 542 l 1
 604 542 l 1
 604 692 l 1
 970 692 l 1
 875 232 l 1
 816 115 700 -25 438 -25 c 3
EndSplineSet
Validated: 3073
EndChar

StartChar: H
Encoding: 72 72 39
Width: 1075
VWidth: 1947
GlyphClass: 2
Flags: W
HStem: 657 150<349 809>
VStem: 27 153<0 153> 318 153<1243 1396> 672 153<0 153> 963 153<1243 1396>
DStem2: 27 -0 180 -0 0.207912 0.978148<31.8105 703.145 856.313 1426> 672 -0 825 -0 0.207912 0.978148<31.8105 671.127 824.294 1426>
LayerCount: 2
Fore
SplineSet
180 -0 m 1
 129 0 78 0 27 -0 c 1
 318 1396 l 1
 471 1396 l 1
 349 807 l 1
 840 807 l 1
 963 1396 l 1
 1116 1396 l 1
 825 0 l 1
 774 0 723 0 672 -0 c 1
 809 657 l 1
 318 657 l 1
 180 -0 l 1
EndSplineSet
Validated: 3073
EndChar

StartChar: I
Encoding: 73 73 40
Width: 1075
VWidth: 1947
GlyphClass: 2
Flags: W
HStem: 0 150<29 383 536 866> 1250 150<294 616 769 1132>
DStem2: 351.117 0 504.117 0 0.207912 0.978148<185.162 1277.76>
LayerCount: 2
Fore
SplineSet
866 0 m 1
 -3 0 l 1
 29 150 l 1
 383 150 l 1
 616 1250 l 1
 263 1250 l 1
 294 1400 l 1
 1163 1400 l 1
 1132 1250 l 1
 769 1250 l 1
 536 150 l 1
 898 150 l 1
 866 0 l 1
EndSplineSet
Validated: 3073
EndChar

StartChar: J
Encoding: 74 74 41
Width: 1075
VWidth: 1947
GlyphClass: 2
Flags: W
HStem: -25 150<192.33 479.922> 1250 150<553 776 929 1126>
VStem: 32 150<143.215 203>
DStem2: 509.866 -25 662.243 -25 0.207912 0.978148<216.339 1302.47>
LayerCount: 2
Fore
SplineSet
1157 1400 m 1
 1126 1250 l 1
 929 1250 l 1
 736 322 l 2
 691 107 536 -25 344 -25 c 2
 323 -25 l 2
 247 -25 199 -12 171 0 c 0
 40 54 33 165 32 203 c 1
 182 213 l 1
 182 194 184 158 229 139 c 0
 263 125 307 125 323 125 c 2
 344 125 l 2
 464 125 559 205 590 352 c 2
 776 1250 l 1
 521 1250 l 1
 553 1400 l 1
 1157 1400 l 1
EndSplineSet
Validated: 3073
EndChar

StartChar: K
Encoding: 75 75 42
Width: 1075
VWidth: 1947
GlyphClass: 2
Flags: W
HStem: 0 21G<27 184.178 690.163 856> 1380 20G<314.829 472 923.659 1146>
VStem: 27 153<0 153> 319 153<1247 1400> 697 159<0 159> 942 204<1196 1400>
DStem2: 27 0 180 0 0.207912 0.978148<31.8105 491.521 784.724 1430.12> 334 737 470 664 0.676216 0.736703<0 38.1861 209.452 899.574> 586 790 470 664 0.323405 -0.94626<81.7138 783.444>
LayerCount: 2
Fore
SplineSet
180 0 m 1
 129 0 78 0 27 -0 c 1
 319 1400 l 1
 472 1400 l 1
 334 737 l 1
 942 1400 l 1
 1146 1400 l 1
 586 790 l 1
 856 -0 l 1
 803 0 750 0 697 0 c 1
 470 664 l 1
 274 450 l 1
 180 0 l 1
EndSplineSet
Validated: 3073
EndChar

StartChar: L
Encoding: 76 76 43
Width: 1075
VWidth: 1947
GlyphClass: 2
Flags: W
HStem: 0 151<213 854> 1380 20G<314.857 472>
VStem: 319 153<1247 1400>
DStem2: 29 0 180.904 0 0.207912 0.978148<185.956 1429.7>
LayerCount: 2
Fore
SplineSet
854 0 m 1
 29 0 l 1
 319 1400 l 1
 472 1400 l 1
 213 151 l 1
 886 151 l 1
 854 0 l 1
EndSplineSet
Validated: 3073
EndChar

StartChar: M
Encoding: 77 77 44
Width: 1075
VWidth: 1947
GlyphClass: 2
Flags: W
HStem: 0 21G<-68 93.8418 766 919.529> 1380 20G<335.157 495.556 924.143 1094>
VStem: -68 156<0 156> 766 151<0 151>
DStem2: -68 0 88 0 0.280421 0.959877<43.7457 1070.95> 554 629 376 986 0.0775864 -0.996986<-369.734 0> 554 629 514 210 0.442087 0.896972<0 451.731> 766 -0 917 -0 0.12543 0.992102<18.9399 975.658>
LayerCount: 2
Fore
SplineSet
-68 0 m 1
 341 1400 l 1
 494 1400 l 1
 554 629 l 1
 934 1400 l 1
 1094 1400 l 1
 917 -0 l 1
 867 0 816 0 766 -0 c 1
 888 968 l 1
 514 210 l 1
 436 210 l 1
 376 986 l 1
 88 0 l 1
 36 0 -16 0 -68 0 c 1
EndSplineSet
Validated: 3073
EndChar

StartChar: N
Encoding: 78 78 45
Width: 1075
VWidth: 1947
GlyphClass: 2
Flags: W
HStem: 0 21G<26 184.158 690.225 830.157> 1380 20G<313.829 453.769 959.846 1117>
VStem: 26 154<0 154> 964 153<1247 1400>
DStem2: 26 0 180 0 0.207912 0.978148<32.0184 1093.22> 448 1400 396 1039 0.277161 -0.960824<332.445 1082.4> 671.48 0 826 0 0.207912 0.978148<368.043 1430.23>
LayerCount: 2
Fore
SplineSet
180 0 m 1
 129 0 77 0 26 0 c 1
 318 1400 l 1
 448 1400 l 1
 748 360 l 1
 964 1400 l 1
 1117 1400 l 1
 826 0 l 1
 783 0 739 0 696 -0 c 1
 396 1039 l 1
 180 0 l 1
EndSplineSet
Validated: 3073
EndChar

StartChar: O
Encoding: 79 79 46
Width: 1075
VWidth: 1947
GlyphClass: 2
Flags: W
HStem: -25 150<327.291 570.19> 1275 150<554.434 818.635>
VStem: 123 150<182.036 712.844> 873 150<695.055 1217.65>
DStem2: 7.32162 -25 161.698 -25 0.207912 0.978148<447.269 1199.85> 675.186 -25 827.988 -25 0.207912 0.978148<355.214 1050.44>
LayerCount: 2
Fore
SplineSet
873 1010 m 3
 873 1171 840 1275 707 1275 c 3
 555 1275 412 1181 328 763 c 2
 309 668 l 2
 281 522 273 432 273 373 c 3
 273 156 364 125 438 125 c 3
 668 125 778 462 821 661 c 2
 850 796 l 2
 869 884 873 943 873 1010 c 3
707 1425 m 3
 833 1425 1023 1370 1023 1010 c 3
 1023 933 1016 860 996 766 c 2
 967 629 l 2
 914 380 773 -25 438 -25 c 3
 307 -25 123 44 123 373 c 3
 123 438 127 539 161 698 c 2
 182 795 l 2
 250 1098 375 1425 707 1425 c 3
EndSplineSet
Validated: 3073
EndChar

StartChar: P
Encoding: 80 80 47
Width: 1075
VWidth: 1947
GlyphClass: 2
Flags: W
HStem: -0 21G<27 184.174> 642 150<345 781.574> 1250 150<440 902.984>
VStem: 27 153<0 153> 910 150<944.67 1235.07>
DStem2: 27 -0 180 -0 0.207912 0.978148<31.8105 687.641 840.809 1308.55> 668.207 -0 820.583 -0 0.207912 0.978148<863.276 1201.51>
LayerCount: 2
Fore
SplineSet
587 792 m 2
 799 792 854 877 878 987 c 2
 897 1078 l 2
 906 1124 910 1156 910 1178 c 3
 910 1221 893 1227 863 1236 c 0
 826 1246 770 1250 712 1250 c 2
 440 1250 l 1
 345 792 l 1
 587 792 l 2
27 -0 m 1
 318 1400 l 1
 712 1400 l 2
 790 1400 851 1395 903 1380 c 0
 1029 1345 1060 1261 1060 1176 c 3
 1060 1131 1051 1086 1043 1048 c 2
 1024 957 l 2
 980 744 837 642 587 642 c 2
 314 642 l 1
 180 -0 l 1
 129 -0 78 -0 27 -0 c 1
EndSplineSet
Validated: 3073
EndChar

StartChar: Q
Encoding: 81 81 48
Width: 1075
VWidth: 1947
GlyphClass: 2
Flags: W
HStem: -25 150<327.291 525.959> 1275 150<554.434 818.635>
VStem: 123 150<182.036 712.844> 873 150<695.055 1217.65>
DStem2: -23.7116 -171 130.665 -171 0.207912 0.978148<596.531 1349.11> 579 426 439 372 0.359209 -0.933257<0.10656 194.997 393.995 581.833> 644.153 -171 796.955 -171 0.207912 0.978148<507.069 1199.71>
LayerCount: 2
Fore
SplineSet
707 1425 m 3
 833 1425 1023 1370 1023 1010 c 3
 1023 933 1016 860 996 766 c 2
 967 629 l 2
 932 462 854 225 709 87 c 1
 788 -117 l 1
 648 -171 l 1
 581 3 l 1
 538 -15 490 -25 438 -25 c 3
 307 -25 123 44 123 373 c 3
 123 438 127 539 161 698 c 2
 182 795 l 2
 250 1098 375 1425 707 1425 c 3
873 1010 m 3
 873 1171 840 1275 707 1275 c 3
 555 1275 412 1181 328 763 c 2
 309 668 l 2
 281 522 273 432 273 373 c 3
 273 156 364 125 438 125 c 3
 470 125 500 131 527 143 c 1
 439 372 l 1
 579 426 l 1
 649 244 l 1
 740 360 794 536 821 661 c 2
 850 796 l 2
 869 884 873 943 873 1010 c 3
EndSplineSet
Validated: 3073
EndChar

StartChar: R
Encoding: 82 82 49
Width: 1075
VWidth: 1947
GlyphClass: 2
Flags: W
HStem: 0 21G<27 184.174 706.925 869> 642 150<345 518 673 782.947> 1250 150<440 902.984>
VStem: 27 153<0 153> 713 156<0 156> 910 150<946.088 1235.07>
DStem2: 27 -0 180 -0 0.207912 0.978148<31.8105 687.641 840.809 1308.55> 673 647 518 642 0.289925 -0.957049<0 630.808> 667.994 -0 820.371 -0 0.207912 0.978148<858.599 1201.56>
LayerCount: 2
Fore
SplineSet
587 792 m 2
 798 792 854 877 878 988 c 2
 897 1078 l 2
 906 1124 910 1156 910 1178 c 3
 910 1221 893 1227 863 1236 c 0
 826 1246 771 1250 713 1250 c 2
 440 1250 l 1
 345 792 l 1
 587 792 l 2
27 -0 m 1
 318 1400 l 1
 713 1400 l 2
 791 1400 851 1395 903 1380 c 0
 1029 1345 1060 1261 1060 1176 c 3
 1060 1131 1051 1087 1043 1049 c 2
 1024 958 l 2
 985 771 870 669 673 647 c 1
 869 0 l 1
 817 0 765 0 713 0 c 1
 518 642 l 1
 314 642 l 1
 180 -0 l 1
 129 -0 78 -0 27 -0 c 1
EndSplineSet
Validated: 3073
EndChar

StartChar: S
Encoding: 83 83 50
Width: 1075
VWidth: 2334
GlyphClass: 2
Flags: W
HStem: -25 150<290.772 607.031> 1049 21G<957.286 1066> 1275 150<550.656 882.758>
VStem: 49 150<210.122 345.189> 244 149<937.533 1076.72> 779 150<278.916 598.432> 926 150<1079 1229.36>
DStem2: 23.7143 -25 176.714 -25 0.207912 0.978148<1055.39 1264.38> 472 917 406 783 0.900814 -0.434205<-96.0513 403.884> 688.866 -25 841.243 -25 0.207912 0.978148<257.009 462.041 1128.32 1196.16>
LayerCount: 2
Fore
SplineSet
427 -25 m 2xfc
 224 -25 49 134 49 317 c 3
 49 333 50 350 54 371 c 1
 202 343 l 1
 200 330 199 322 199 317 c 3
 199 222 305 125 427 125 c 2
 448 125 l 2
 597 125 746 239 769 352 c 2
 775 382 l 2
 778 397 779 412 779 429 c 3xfc
 779 508 751 615 682 649 c 2
 406 783 l 2
 299 836 244 875 244 971 c 3
 244 993 246 1020 252 1049 c 2
 259 1078 l 2
 299 1273 493 1425 703 1425 c 2
 711 1425 l 2
 909 1425 1076 1343 1076 1157 c 2
 1076 1153 l 2
 1076 1132 1069 1080 1063 1049 c 1
 915 1077 l 1
 923 1120 926 1137 926 1148 c 3xfa
 926 1248 805 1275 711 1275 c 2
 703 1275 l 2
 555 1275 429 1164 405 1049 c 2
 399 1019 l 2
 395 998 393 985 393 975 c 3
 393 961 411 947 472 917 c 2
 750 783 l 2
 903 709 929 516 929 429 c 3
 929 403 926 377 921 352 c 2
 915 322 l 2
 876 136 665 -25 448 -25 c 2
 427 -25 l 2xfc
EndSplineSet
Validated: 3073
EndChar

StartChar: T
Encoding: 84 84 51
Width: 1075
VWidth: 1947
GlyphClass: 2
Flags: W
HStem: -0 21G<349 507.16> 1250 150<266 610 763 1139>
VStem: 349 154<0 154>
DStem2: 349 -0 503 -0 0.207912 0.978148<32.0184 1276.95>
LayerCount: 2
Fore
SplineSet
266 1400 m 1
 1170 1400 l 1
 1139 1250 l 1
 763 1250 l 1
 503 -0 l 1
 452 0 400 0 349 -0 c 1
 610 1250 l 1
 235 1250 l 1
 266 1400 l 1
EndSplineSet
Validated: 3073
EndChar

StartChar: U
Encoding: 85 85 52
Width: 1075
VWidth: 1947
GlyphClass: 2
Flags: W
HStem: -25 150<280.231 625.939> 1380 20G<314.84 472 959.84 1117>
VStem: 86 150<147.255 478.297> 319 153<1247 1400> 964 153<1247 1400>
DStem2: 20.8662 -25 173.243 -25 0.207912 0.978148<294.239 1455.85> 665.866 -25 818.243 -25 0.207912 0.978148<220.903 1455.85>
LayerCount: 2
Fore
SplineSet
247 322 m 2
 239 283 236 252 236 229 c 3
 236 177 253 159 279 147 c 0
 305 135 347 125 427 125 c 2
 448 125 l 2
 613 125 714 199 746 352 c 2
 964 1400 l 1
 1117 1400 l 1
 892 322 l 2
 848 113 698 -25 448 -25 c 2
 427 -25 l 2
 385 -25 291 -24 216 11 c 0
 120 56 86 136 86 231 c 3
 86 269 92 310 101 352 c 2
 319 1400 l 1
 472 1400 l 1
 247 322 l 2
EndSplineSet
Validated: 3073
EndChar

StartChar: V
Encoding: 86 86 53
Width: 1075
VWidth: 1708
GlyphClass: 2
Flags: W
HStem: -25 21G<353.116 506.221> 1380 20G<291 441.886 979.766 1154>
VStem: 291 150<1076.54 1400> 989 165<1235 1400>
DStem2: 489 317 497 -25 0.418694 0.908127<0 1192.85>
LayerCount: 2
Fore
SplineSet
354 -25 m 1
 291 1400 l 1
 441 1400 l 1
 489 317 l 1
 989 1400 l 1
 1154 1400 l 1
 497 -25 l 1
 354 -25 l 1
EndSplineSet
Validated: 3073
EndChar

StartChar: W
Encoding: 87 87 54
Width: 1075
VWidth: 1947
GlyphClass: 2
Flags: W
HStem: 0 21G<49 220.87 648.468 808.843> 1380 20G<224.457 378 1050.15 1212>
VStem: 227 151<1249 1400> 1056 156<1244 1400>
DStem2: 49 0 257 432 0.126127 0.992014<454.785 1411.27> 257 432 211 -0 0.442549 0.896744<0 450.911> 768 415 591 770 0.0759094 -0.997115<-367.412 0> 768 415 803 0 0.280421 0.959877<0 1026.24>
LayerCount: 2
Fore
SplineSet
49 0 m 1
 227 1400 l 1
 378 1400 l 1
 257 432 l 1
 631 1190 l 1
 709 1190 l 1
 768 415 l 1
 1056 1400 l 1
 1212 1400 l 1
 803 0 l 1
 752 0 701 0 650 -0 c 1
 591 770 l 1
 211 -0 l 1
 49 0 l 1
EndSplineSet
Validated: 3073
EndChar

StartChar: X
Encoding: 88 88 55
Width: 1075
VWidth: 1947
GlyphClass: 2
Flags: W
HStem: -0 21G<5 199.666 673.741 834> 1380 20G<310 470.277 945.386 1140>
VStem: 5 181<0 181> 310 155<1245 1400> 679 155<0 155> 959 181<1219 1400>
DStem2: 5 -0 186 0 0.563117 0.826377<101.924 732.936 1061.48 1694.14> 465 1400 310 1400 0.254867 -0.966976<0 540.9 869.597 1408.31>
LayerCount: 2
Fore
SplineSet
5 -0 m 1
 491 713 l 1
 310 1400 l 1
 465 1400 l 1
 603 877 l 1
 959 1400 l 1
 1140 1400 l 1
 653 686 l 1
 834 -0 l 1
 782 0 731 0 679 0 c 1
 542 521 l 1
 186 0 l 1
 125 0 66 0 5 -0 c 1
EndSplineSet
Validated: 3073
EndChar

StartChar: Y
Encoding: 89 89 56
Width: 1075
VWidth: 1947
GlyphClass: 2
Flags: W
HStem: -25 21G<341 499.275> 1380 20G<304 459.447 958.172 1144>
VStem: 304 152<1248 1400> 341 154<-25 129> 970 174<1226 1400>
DStem2: 456 1400 304 1400 0.170168 -0.985415<0 682.924> 341 -25 495 -25 0.207912 0.978148<32.0184 551.339> 572 727 604 485 0.508254 0.861207<0 781.878>
LayerCount: 2
Fore
SplineSet
341 -25 m 1xd8
 457 514 l 1
 304 1400 l 1
 456 1400 l 1xe8
 572 727 l 1
 970 1400 l 1
 1144 1400 l 1
 604 485 l 1
 495 -25 l 1
 341 -25 l 1xd8
EndSplineSet
Validated: 3073
EndChar

StartChar: Z
Encoding: 90 90 57
Width: 1075
VWidth: 1947
GlyphClass: 2
Flags: W
HStem: 0 151<231 855> 1250 150<289 915>
DStem2: 25 134 231 151 0.623498 0.781825<141.732 1427.43>
LayerCount: 2
Fore
SplineSet
258 1250 m 1
 289 1400 l 1
 1147 1400 l 1
 1119 1264 l 1
 231 151 l 1
 887 151 l 1
 855 0 l 1
 -3 0 l 1
 25 134 l 1
 915 1250 l 1
 258 1250 l 1
EndSplineSet
Validated: 3073
EndChar

StartChar: bracketleft
Encoding: 91 91 58
Width: 1075
VWidth: 1947
GlyphClass: 2
Flags: W
HStem: -155 150<373 717> 1405 150<668 1042>
DStem2: 189 -155 341.117 -155 0.207912 0.978148<184.978 1625.5>
LayerCount: 2
Fore
SplineSet
668 1405 m 1
 373 -5 l 1
 749 -5 l 1
 717 -155 l 1
 189 -155 l 1
 546 1555 l 1
 1074 1555 l 1
 1042 1405 l 1
 668 1405 l 1
EndSplineSet
Validated: 3073
EndChar

StartChar: backslash
Encoding: 92 92 59
Width: 1075
VWidth: 1708
GlyphClass: 2
Flags: W
VStem: 328 489
DStem2: 474 1442 328 1408 0.230199 -0.973144<0 1489.49>
LayerCount: 2
Fore
SplineSet
328 1408 m 1
 474 1442 l 1
 817 -8 l 1
 671 -42 l 1
 328 1408 l 1
EndSplineSet
Validated: 3073
EndChar

StartChar: bracketright
Encoding: 93 93 60
Width: 1075
VWidth: 1947
GlyphClass: 2
Flags: W
HStem: -155 150<103 477> 1405 150<428 771>
DStem2: 445.117 -155 599 -155 0.207912 0.978148<153.351 1593.67>
LayerCount: 2
Fore
SplineSet
396 1405 m 1
 428 1555 l 1
 955 1555 l 1
 599 -155 l 1
 71 -155 l 1
 103 -5 l 1
 477 -5 l 1
 771 1405 l 1
 396 1405 l 1
EndSplineSet
Validated: 3073
EndChar

StartChar: asciicircum
Encoding: 94 94 61
Width: 1075
VWidth: 1947
GlyphClass: 2
Flags: W
HStem: 938 487
VStem: 302 680
DStem2: 302 1040 412 938 0.676849 0.736122<0 427.534> 785 1425 702 1253 0.43917 -0.898404<118.074 448.573>
LayerCount: 2
Fore
SplineSet
785 1425 m 1
 982 1022 l 1
 848 956 l 1
 702 1253 l 1
 412 938 l 1
 302 1040 l 1
 656 1425 l 1
 785 1425 l 1
EndSplineSet
Validated: 3073
EndChar

StartChar: underscore
Encoding: 95 95 62
Width: 1075
VWidth: 1947
GlyphClass: 2
Flags: W
HStem: -167 150<35 777>
LayerCount: 2
Fore
SplineSet
777 -17 m 1
 777 -167 l 1
 35 -167 l 1
 35 -17 l 1
 777 -17 l 1
EndSplineSet
Validated: 3073
EndChar

StartChar: grave
Encoding: 96 96 63
Width: 1075
VWidth: 1708
GlyphClass: 2
Flags: W
HStem: 1024 401
VStem: 511 311
LayerCount: 2
Fore
SplineSet
815 1106 m 2
 820 1095 822 1085 822 1075 c 3
 822 1058 815 1043 800 1032 c 0
 790 1025 779 1024 767 1024 c 3
 750 1024 732 1029 720 1044 c 2
 532 1273 l 2
 518 1290 511 1312 511 1333 c 3
 511 1364 525 1394 551 1411 c 0
 564 1420 582 1425 601 1425 c 3
 635 1425 673 1409 689 1375 c 2
 815 1106 l 2
EndSplineSet
EndChar

StartChar: a
Encoding: 97 97 64
Width: 1075
VWidth: 1947
GlyphClass: 2
Flags: W
HStem: -25 150<318.565 603.561 915.175 922.727> 899 150<466.923 783.504>
VStem: 108 150<186.797 590.232>
DStem2: 20.5235 -25 173.325 -25 0.207912 0.978148<400.698 865.736> 664.562 -25 818.243 -25 0.207912 0.978148<323.476 789.104 1025.04 1071.91>
LayerCount: 2
Fore
SplineSet
301 582 m 2
 266 411 l 2
 261 384 258 358 258 333 c 3
 258 216 317 125 427 125 c 2
 448 125 l 2
 631 125 728 265 760 424 c 2
 800 612 l 2
 810 664 818 711 818 751 c 3
 818 841 779 899 639 899 c 2
 618 899 l 2
 428 899 336 744 301 582 c 2
892 322 m 2
 887 298 885 276 885 258 c 3
 885 192 913 156 951 138 c 1
 920 -14 l 1
 816 17 780 85 770 115 c 1
 690 27 582 -25 448 -25 c 2
 427 -25 l 2
 235 -25 108 125 108 331 c 3
 108 367 112 404 120 443 c 2
 155 612 l 2
 207 864 368 1049 618 1049 c 2
 639 1049 l 2
 750 1049 826 1020 876 978 c 1
 885 1024 l 1
 1039 1024 l 1
 892 322 l 2
EndSplineSet
Validated: 3073
EndChar

StartChar: b
Encoding: 98 98 65
Width: 1075
VWidth: 2334
GlyphClass: 2
Flags: W
HStem: -25 150<315.45 598.564> 0 21G<27 184.324> 899 150<463.971 777.63> 1380 20G<314.829 472>
VStem: 319 153<1247 1400> 818 148<481.453 864.004>
DStem2: 21.6861 -25 174.686 -25 0.207912 0.978148<57.369 133.079 396.382 880.731 1062.49 1455.68> 665.736 -25 818.113 -25 0.207912 0.978148<262.324 788.815>
LayerCount: 2
Fore
SplineSet
305 596 m 2xbc
 266 411 l 2
 260 382 257 355 257 329 c 3
 257 211 318 125 427 125 c 2
 448 125 l 2
 638 125 731 278 765 442 c 2
 800 612 l 2
 810 663 818 710 818 751 c 3
 818 841 779 899 639 899 c 2
 618 899 l 2
 433 899 338 754 305 596 c 2xbc
618 1049 m 2
 639 1049 l 2
 885 1049 966 926 966 751 c 3
 966 699 958 642 946 582 c 2
 911 412 l 2
 858 157 697 -25 448 -25 c 2
 427 -25 l 2xbc
 332 -25 252 12 196 74 c 1
 180 -0 l 1
 27 0 l 1x7c
 319 1400 l 1
 472 1400 l 1
 385 984 l 1
 451 1026 529 1049 618 1049 c 2
EndSplineSet
Validated: 3073
EndChar

StartChar: c
Encoding: 99 99 66
Width: 1075
VWidth: 2334
GlyphClass: 2
Flags: W
HStem: -25 150<318.458 651.736> 898 151<467.035 814.227>
VStem: 107 150<185.544 583.788>
DStem2: 20.5235 -25 173.325 -25 0.207912 0.978148<393.69 865.828>
LayerCount: 2
Fore
SplineSet
831 819 m 1
 824 849 819 898 639 898 c 2
 618 898 l 2
 428 898 335 744 301 582 c 2
 266 411 l 2
 259 380 257 352 257 326 c 3
 257 205 324 125 427 125 c 2
 448 125 l 2
 586 125 663 153 706 226 c 1
 834 150 l 1
 755 19 622 -25 448 -25 c 2
 427 -25 l 2
 235 -25 107 128 107 326 c 3
 107 363 111 402 120 443 c 2
 155 612 l 2
 208 864 368 1049 618 1049 c 2
 639 1049 l 2
 900 1049 955 949 979 841 c 1
 831 819 l 1
EndSplineSet
Validated: 3073
EndChar

StartChar: d
Encoding: 100 100 67
Width: 1075
VWidth: 1947
GlyphClass: 2
Flags: W
HStem: -25 150<318.565 604.535> 899 150<467.035 784.021> 1380 20G<959.829 1117>
VStem: 108 149<185.609 583.788> 964 153<1247 1400>
DStem2: 20.5235 -25 173.325 -25 0.207912 0.978148<396.624 874.689> 667 -25 820 -25 0.207912 0.978148<31.8105 65.3043 256.095 788.714 1024.54 1455.61>
LayerCount: 2
Fore
SplineSet
301 582 m 2
 266 411 l 2
 260 382 257 355 257 329 c 3
 257 211 318 125 427 125 c 2
 448 125 l 2
 629 125 726 263 759 419 c 2
 800 612 l 2
 810 662 819 709 819 751 c 3
 819 839 780 899 639 899 c 2
 618 899 l 2
 428 899 335 745 301 582 c 2
618 1049 m 2
 639 1049 l 2
 750 1049 826 1021 876 978 c 1
 964 1400 l 1
 1117 1400 l 1
 820 -25 l 1
 667 -25 l 1
 680 39 l 1
 614 -2 537 -25 448 -25 c 2
 427 -25 l 2
 235 -25 108 125 108 331 c 3
 108 367 112 404 120 443 c 2
 155 612 l 2
 208 864 368 1049 618 1049 c 2
EndSplineSet
Validated: 3073
EndChar

StartChar: e
Encoding: 101 101 68
Width: 1075
VWidth: 1947
GlyphClass: 2
Flags: W
HStem: -25 150<252.331 648.199> 486 150<313 804> 899 150<423.866 809.413>
VStem: 84 151<147.961 476.242> 833 151<638.406 873.677>
DStem2: 20.0787 -25 174.03 -25 0.207912 0.978148<293.352 554.29 707.457 927.304>
LayerCount: 2
Fore
SplineSet
639 899 m 2
 618 899 l 2
 405 899 350 812 327 704 c 2
 313 636 l 1
 804 636 l 1
 825 734 l 2
 830 756 833 777 833 795 c 3
 833 862 790 899 639 899 c 2
427 -25 m 2
 178 -25 84 57 84 218 c 3
 84 258 90 302 100 351 c 2
 181 734 l 2
 225 945 369 1049 618 1049 c 2
 639 1049 l 2
 843 1049 984 977 984 797 c 3
 984 769 980 738 973 704 c 2
 926 486 l 1
 282 486 l 1
 248 323 l 2
 240 285 235 254 235 228 c 3
 235 155 277 125 427 125 c 2
 448 125 l 2
 595 125 671 158 711 236 c 1
 845 168 l 1
 771 24 631 -25 448 -25 c 2
 427 -25 l 2
EndSplineSet
Validated: 3073
EndChar

StartChar: f
Encoding: 102 102 69
Width: 1075
VWidth: 1947
GlyphClass: 2
Flags: W
HStem: -387 150<26.5036 260.234> 752 150<274 505 690 958> 1278 150<786.819 1057.66>
DStem2: 264.76 -387 417.136 -387 0.207912 0.978148<188.846 1164.06 1349.24 1716.2>
LayerCount: 2
Fore
SplineSet
1020 1249 m 1
 1006 1270 970 1278 920 1278 c 3
 816 1278 758 1225 746 1168 c 2
 690 902 l 1
 958 902 l 1
 958 752 l 1
 658 752 l 1
 469 -143 l 2
 441 -275 303 -387 145 -387 c 3
 54 -387 -12 -351 -86 -254 c 1
 48 -188 l 1
 56 -204 103 -237 145 -237 c 27
 230 -237 313 -162 323 -113 c 2
 505 752 l 1
 274 752 l 1
 274 902 l 1
 537 902 l 1
 600 1200 l 2
 631 1340 761 1428 920 1428 c 3
 1101 1428 1139 1340 1154 1317 c 1
 1020 1249 l 1
EndSplineSet
Validated: 3073
EndChar

StartChar: g
Encoding: 103 103 70
Width: 1075
VWidth: 2334
GlyphClass: 2
Flags: W
HStem: -369 150<148 537.568> -25 150<318.565 605.09> 899 150<466.923 786.299>
VStem: 108 150<185.422 590.232>
DStem2: -52.5959 -369 100.206 -369 0.207912 0.978148<748.517 1217.42> 591.378 -369 743.755 -369 0.207912 0.978148<233.629 415.908 599.852 1144.75 1380.65 1423.61>
LayerCount: 2
Fore
SplineSet
301 582 m 2
 266 411 l 2
 260 383 258 355 258 329 c 3
 258 210 318 125 427 125 c 2
 448 125 l 2
 618 125 721 244 752 390 c 2
 810 666 l 2
 816 697 820 727 820 754 c 3
 820 841 777 899 639 899 c 2
 618 899 l 2
 428 899 336 744 301 582 c 2
618 1049 m 2
 639 1049 l 2
 748 1049 825 1025 876 982 c 1
 885 1024 l 1
 1039 1024 l 1
 819 -15 l 2
 776 -223 611 -369 361 -369 c 2
 117 -369 l 1
 148 -219 l 1
 361 -219 l 2
 531 -219 642 -129 673 15 c 2
 677 38 l 1
 612 -3 536 -25 448 -25 c 2
 427 -25 l 2
 235 -25 108 125 108 331 c 3
 108 367 112 404 120 443 c 2
 155 612 l 2
 207 864 368 1049 618 1049 c 2
EndSplineSet
Validated: 3073
EndChar

StartChar: h
Encoding: 104 104 71
Width: 1075
VWidth: 1947
GlyphClass: 2
Flags: W
HStem: -0 21G<27 184.191 672 829.205> 899 150<503.386 789.452> 1380 20G<314.829 472>
VStem: 27 153<0 153> 319 153<1247 1400> 672 153<0 153> 828 154<666.547 856.77>
DStem2: 27 0 180 0 0.207912 0.978148<31.8105 799.606 1004.38 1430.12> 672 0 825 0 0.207912 0.978148<31.8105 784.125>
LayerCount: 2
Fore
SplineSet
180 0 m 1
 129 0 78 -0 27 -0 c 1
 319 1400 l 1
 472 1400 l 1
 379 952 l 1
 450 1010 533 1049 618 1049 c 2
 639 1049 l 2
 799 1049 982 1008 982 792 c 3
 982 765 979 736 973 704 c 1
 825 0 l 1
 774 0 723 0 672 0 c 1
 825 734 l 1
 827 746 828 758 828 769 c 3
 828 848 768 899 639 899 c 2
 618 899 l 2
 485 899 327 700 303 587 c 2
 180 0 l 1
EndSplineSet
Validated: 3073
EndChar

StartChar: k
Encoding: 107 107 74
Width: 1075
VWidth: 1947
GlyphClass: 2
Flags: W
HStem: -0 21G<26 184.186 604.774 859> 1405 20G<319.818 477>
VStem: 324 153<1272 1425>
DStem2: 26 0 180 0 0.207912 0.978148<32.0184 313.743 615.282 1455.82> 445 741 549 631 0.72366 0.690157<-98.6941 420.843> 690 145 592 31 0.75894 -0.651161<-206.25 47.3641> 812 1021 986 933 0.918324 0.395829<-232.513 124.955>
LayerCount: 2
Fore
SplineSet
180 0 m 1
 129 0 77 0 26 -0 c 1
 324 1425 l 1
 477 1425 l 1
 299 571 l 1
 343 631 392 691 445 741 c 2
 553 842 l 2
 632 917 713 978 812 1021 c 2
 928 1071 l 1
 986 933 l 1
 882 889 l 2
 787 848 720 793 657 734 c 2
 549 631 l 2
 525 608 502 585 480 559 c 1
 502 407 577 243 690 145 c 2
 859 -0 l 1
 782 0 705 0 628 -0 c 1
 592 31 l 2
 480 128 405 265 363 400 c 1
 301 304 247 207 207 129 c 1
 180 0 l 1
EndSplineSet
Validated: 3073
EndChar

StartChar: l
Encoding: 108 108 75
Width: 1075
VWidth: 1947
GlyphClass: 2
Flags: W
HStem: 0 150<134 383 536 747> 1250 150<396 610>
DStem2: 351.117 0 504.117 0 0.207912 0.978148<185.162 1276.51>
LayerCount: 2
Fore
SplineSet
364 1250 m 1
 396 1400 l 1
 794 1400 l 1
 536 150 l 1
 778 150 l 1
 747 0 l 1
 103 0 l 1
 134 150 l 1
 383 150 l 1
 610 1250 l 1
 364 1250 l 1
EndSplineSet
Validated: 3073
EndChar

StartChar: m
Encoding: 109 109 76
Width: 1075
VWidth: 1947
GlyphClass: 2
Flags: W
HStem: 0 21G<-19 138.208 349 506.197 718 875.156> 899 150<363.408 515.693 734.75 889.758>
VStem: -19 153<0 153> 349 153<0 153> 718 153<0 153> 894 151<756.881 897.718>
DStem2: -19 -0 134 -0 0.207912 0.978148<31.8105 914.095> 349 -0 502 -0 0.207912 0.978148<31.8105 863.704> 718 -0 871 -0 0.207912 0.978148<31.8105 877.34>
LayerCount: 2
Fore
SplineSet
134 -0 m 1
 83 -0 32 0 -19 0 c 1
 202 1049 l 1
 349 1049 l 1
 342 1023 l 1
 377 1040 422 1049 461 1049 c 2
 472 1049 l 2
 554 1049 613 1030 648 978 c 1
 702 1022 765 1049 829 1049 c 2
 841 1049 l 2
 947 1049 1045 1011 1045 873 c 3
 1045 850 1043 823 1036 794 c 2
 871 -0 l 1
 820 -0 769 0 718 0 c 1
 890 824 l 2
 893 839 894 850 894 860 c 3
 894 889 879 899 841 899 c 2
 829 899 l 2
 759 899 672 811 651 710 c 2
 502 0 l 1
 451 0 400 0 349 0 c 1
 503 735 l 2
 514 788 519 824 519 848 c 3
 519 892 503 899 472 899 c 2
 461 899 l 2
 395 899 308 827 288 732 c 2
 134 -0 l 1
EndSplineSet
Validated: 3073
EndChar

StartChar: n
Encoding: 110 110 77
Width: 1075
VWidth: 1947
GlyphClass: 2
Flags: W
HStem: -0 21G<27 184.158 672 829.176> 899 150<502.129 813.665>
VStem: 27 153<0 153> 672 153<0 153> 833 150<668.642 875.688>
DStem2: 27 0 180 0 0.207912 0.978148<31.8105 796.406 1004.38 1046.12> 672 0 825 0 0.207912 0.978148<31.8105 809.341>
LayerCount: 2
Fore
SplineSet
180 0 m 1
 129 0 78 0 27 -0 c 1
 241 1024 l 1
 394 1024 l 1
 379 952 l 1
 450 1010 533 1049 618 1049 c 2
 639 1049 l 2
 870 1049 983 962 983 798 c 3
 983 769 979 738 972 704 c 2
 825 0 l 1
 774 0 723 0 672 -0 c 1
 826 734 l 2
 831 757 833 777 833 794 c 3
 833 877 776 899 639 899 c 2
 618 899 l 2
 483 899 325 696 301 582 c 2
 180 0 l 1
EndSplineSet
Validated: 3073
EndChar

StartChar: o
Encoding: 111 111 78
Width: 1075
VWidth: 1947
GlyphClass: 2
Flags: W
HStem: -25 150<318.458 598.564> 899 150<467.035 785.126>
VStem: 107 150<187.625 466.715> 818 150<481.453 865.709>
DStem2: 20.5235 -25 173.325 -25 0.207912 0.978148<393.69 874.689> 665.736 -25 818.113 -25 0.207912 0.978148<262.324 790.373>
LayerCount: 2
Fore
SplineSet
427 -25 m 2
 235 -25 107 128 107 326 c 3
 107 363 111 402 120 443 c 2
 155 612 l 2
 208 864 368 1049 618 1049 c 2
 639 1049 l 2
 906 1049 968 883 968 752 c 3
 968 699 953 614 946 582 c 2
 911 412 l 2
 858 157 697 -25 448 -25 c 2
 427 -25 l 2
818 752 m 3
 818 869 747 899 639 899 c 2
 618 899 l 2
 428 899 335 745 301 582 c 2
 266 411 l 2
 259 380 257 352 257 326 c 3
 257 208 321 125 427 125 c 2
 448 125 l 2
 638 125 731 278 765 442 c 2
 800 612 l 2
 811 667 818 724 818 752 c 3
EndSplineSet
Validated: 3073
EndChar

StartChar: p
Encoding: 112 112 79
Width: 1075
VWidth: 1947
GlyphClass: 2
Flags: W
HStem: -384 21G<-53 104.183> -25 150<315.45 598.564> 899 150<464.199 777.63>
VStem: -53 153<-384 -231> 818 148<481.453 864.229>
DStem2: -53 -384 100 -384 0.207912 0.978148<31.8105 500.74 763.066 1247.4 1429.38 1438.36> 589.428 -384 741.805 -384 0.207912 0.978148<629.345 1155.88>
LayerCount: 2
Fore
SplineSet
305 596 m 2
 266 411 l 2
 260 383 257 355 257 329 c 3
 257 210 318 125 427 125 c 2
 448 125 l 2
 638 125 730 278 765 442 c 2
 800 612 l 2
 810 664 818 711 818 751 c 3
 818 841 779 899 639 899 c 2
 618 899 l 2
 434 899 337 754 305 596 c 2
100 -384 m 1
 -53 -384 l 1
 241 1024 l 1
 394 1024 l 1
 386 984 l 1
 451 1026 529 1049 618 1049 c 2
 639 1049 l 2
 885 1049 966 926 966 752 c 3
 966 699 959 642 946 582 c 2
 911 412 l 2
 858 157 697 -25 448 -25 c 2
 427 -25 l 2
 332 -25 252 12 196 75 c 1
 100 -384 l 1
EndSplineSet
Validated: 3073
EndChar

StartChar: q
Encoding: 113 113 80
Width: 1075
VWidth: 1947
GlyphClass: 2
Flags: W
HStem: -384 21G<592 749.176> -25 150<318.565 604.978> 899 150<466.923 783.867>
VStem: 108 150<185.422 590.232> 592 153<-384 -231>
DStem2: -55.7843 -384 97.0175 -384 0.207912 0.978148<763.852 1232.76> 592 -384 745 -384 0.207912 0.978148<31.8105 432.053 622.349 1155.3 1391.28 1438.15>
LayerCount: 2
Fore
SplineSet
301 582 m 2
 266 411 l 2
 260 383 258 355 258 329 c 3
 258 210 318 125 427 125 c 2
 448 125 l 2
 629 125 727 262 759 418 c 2
 800 612 l 2
 810 663 818 710 818 751 c 3
 818 840 780 899 639 899 c 2
 618 899 l 2
 428 899 336 744 301 582 c 2
618 1049 m 2
 639 1049 l 2
 750 1049 826 1020 876 978 c 1
 885 1024 l 1
 1039 1024 l 1
 745 -384 l 1
 592 -384 l 1
 680 39 l 1
 615 -2 537 -25 448 -25 c 2
 427 -25 l 2
 235 -25 108 125 108 331 c 3
 108 367 112 404 120 443 c 2
 155 612 l 2
 207 864 368 1049 618 1049 c 2
EndSplineSet
Validated: 3073
EndChar

StartChar: r
Encoding: 114 114 81
Width: 1075
VWidth: 1947
GlyphClass: 2
Flags: W
HStem: -0 21G<27 184.176> 899 150<571.297 837.947>
VStem: 27 153<0 153>
DStem2: 27 -0 180 -0 0.207912 0.978148<31.8105 702.608 938.869 1046.12>
LayerCount: 2
Fore
SplineSet
180 -0 m 1
 129 0 78 0 27 -0 c 1
 241 1024 l 1
 394 1024 l 1
 365 888 l 1
 463 983 582 1049 699 1049 c 2
 720 1049 l 2
 949 1049 993 932 1007 889 c 1
 865 839 l 1
 859 861 844 899 720 899 c 2
 699 899 l 2
 539 899 318 657 275 455 c 2
 180 -0 l 1
EndSplineSet
Validated: 3073
EndChar

StartChar: s
Encoding: 115 115 82
Width: 1075
VWidth: 1947
GlyphClass: 2
Flags: W
HStem: -25 150<252.074 636.306> 899 150<407.214 771.621>
VStem: 55 150<169.531 323.358> 190 151<678.643 841.165> 738 150<214.135 382.75> 828 150<731.655 847.765>
DStem2: 410 664 356 524 0.933002 -0.359872<-88.1341 425.668>
LayerCount: 2
Fore
SplineSet
639 1049 m 2xd8
 798 1049 966 951 978 766 c 3
 978 748 977 725 973 704 c 1
 825 734 l 1
 827 742 828 749 828 757 c 3
 828 840 738 899 639 899 c 2
 618 899 l 2
 411 899 341 826 341 761 c 3xd4
 341 719 370 679 410 664 c 2
 690 556 l 2
 835 500 888 401 888 319 c 3
 888 308 887 297 885 287 c 2
 877 241 l 2
 843 44 607 -25 448 -25 c 2
 392 -25 l 2
 203 -25 55 107 55 263 c 3
 55 281 60 326 65 352 c 1
 213 322 l 1
 211 314 205 287 205 264 c 27xe8
 205 173 287 125 392 125 c 2
 448 125 l 2
 582 125 711 181 729 269 c 2
 735 300 l 2
 737 310 738 320 738 323 c 3
 738 360 691 395 636 416 c 2
 356 524 l 2
 261 560 190 649 190 757 c 3
 190 893 301 1049 618 1049 c 2
 639 1049 l 2xd8
EndSplineSet
Validated: 3073
EndChar

StartChar: t
Encoding: 116 116 83
Width: 1075
VWidth: 1947
GlyphClass: 2
Flags: W
HStem: -25 150<432.046 671.522> 858 150<208 412 597 927> 1405 20G<526.827 685>
VStem: 275 152<139.391 270.148> 531 154<1271 1425>
DStem2: 224.313 -25 379.75 -25 0.207912 0.978148<251.649 902.727 1087.91 1482.08>
LayerCount: 2
Fore
SplineSet
548 -25 m 2
 528 -25 l 2
 350 -13 275 79 275 182 c 3
 275 198 277 214 280 230 c 2
 412 858 l 1
 177 858 l 1
 208 1008 l 1
 444 1008 l 1
 531 1425 l 1
 685 1425 l 1
 597 1008 l 1
 959 1008 l 1
 927 858 l 1
 565 858 l 1
 428 202 l 2
 427 198 427 193 427 189 c 3
 427 152 460 130 528 125 c 2
 548 125 l 2
 614 125 703 166 718 232 c 1
 864 198 l 1
 834 65 689 -25 548 -25 c 2
EndSplineSet
Validated: 3073
EndChar

StartChar: u
Encoding: 117 117 84
Width: 1075
VWidth: 1947
GlyphClass: 2
Flags: W
HStem: -25 150<249.764 540.241> 0 21G<672 829.18> 1004 20G<236.821 394 881.82 1039>
VStem: 86 149<143.974 471.578> 241 153<871 1024> 886 153<871 1024>
DStem2: 20.4411 -25 173.668 -25 0.207912 0.978148<293.231 1071.93> 666.686 -25 819.686 -25 0.207912 0.978148<57.369 122.641 348.026 1071.67>
LayerCount: 2
Fore
SplineSet
672 0 m 1x7c
 692 95 l 1
 612 25 518 -25 425 -25 c 2
 404 -25 l 2
 174 -25 86 69 86 227 c 3
 86 266 91 308 101 354 c 2
 241 1024 l 1
 394 1024 l 1
 247 320 l 2
 239 283 235 253 235 228 c 3
 235 142 286 125 404 125 c 2
 425 125 l 2xbc
 562 125 746 355 770 469 c 2
 886 1024 l 1
 1039 1024 l 1
 825 -0 l 1
 774 0 723 0 672 0 c 1x7c
EndSplineSet
Validated: 3073
EndChar

StartChar: v
Encoding: 118 118 85
Width: 1075
VWidth: 1947
GlyphClass: 2
Flags: W
HStem: -25 21G<374.845 495.149> 1004 20G<217 369 861.087 1057>
VStem: 211 150<482.062 1023.7>
DStem2: 393 529 247 491 0.249594 -0.968351<-296.261 263.153> 458 274 486 -25 0.415973 0.909377<0 707.248> 859 1001 981 913 0.56495 0.825125<-487.607 28.0171>
LayerCount: 2
Fore
SplineSet
365 995 m 2
 363 975 361 933 361 891 c 3
 361 757 373 600 393 529 c 2
 458 274 l 1
 583 546 l 2
 646 685 757 863 859 1001 c 2
 875 1024 l 1
 1057 1024 l 1
 981 913 l 2
 891 784 778 613 717 480 c 2
 486 -25 l 1
 380 -25 l 1
 247 491 l 2
 219 594 211 785 211 891 c 3
 211 953 213 991 217 1015 c 2
 218 1024 l 1
 369 1024 l 1
 365 995 l 2
EndSplineSet
Validated: 3073
EndChar

StartChar: w
Encoding: 119 119 86
Width: 1075
VWidth: 1947
GlyphClass: 2
Flags: W
HStem: 0 21G<67 200.645 680.433 806.33> 1004 20G<142.883 298 954.071 1126>
VStem: 79 151<423 876.777>
DStem2: 134 947 282 923 0.156465 0.987684<-486.618 77.9292> 229 423 381 394 0.434365 0.900737<0 340.282> 717 446 573 406 0.268133 -0.963382<-246.932 90.5175> 742 359 910 409 0.257516 0.966274<0 576.822> 938 968 1076 908 0.395829 0.918324<-484.636 61.3219>
LayerCount: 2
Fore
SplineSet
282 923 m 2
 256 761 234 595 230 439 c 2
 229 423 l 1
 249 464 l 2
 279 526 358 671 426 755 c 2
 585 949 l 1
 676 949 l 1
 687 705 l 2
 692 599 698 512 717 446 c 2
 742 359 l 1
 766 449 l 2
 806 599 867 801 938 968 c 2
 963 1024 l 1
 1126 1024 l 1
 1076 908 l 2
 1011 753 950 558 910 409 c 2
 801 0 l 1
 686 -0 l 1
 573 406 l 2
 552 481 543 589 539 656 c 1
 481 584 422 478 381 394 c 2
 191 -0 l 1
 150 0 108 0 67 0 c 1
 79 431 l 2
 84 600 108 783 134 947 c 2
 146 1024 l 1
 298 1024 l 1
 282 923 l 2
EndSplineSet
Validated: 3073
EndChar

StartChar: x
Encoding: 120 120 87
Width: 1075
VWidth: 1947
GlyphClass: 2
Flags: W
HStem: -0 21G<-6 238.918 660.758 832> 1004 20G<247 417.267 847.875 1041>
VStem: 247 162<862 1024> 669 163<0 163>
DStem2: 193 181 297 73 0.739772 0.672858<-104.033 346.074> 409 1024 247 1024 0.381794 -0.924248<0 437.156 688.77 1045.7> 798 928 924 846 0.549272 0.835644<-373.159 114.826>
LayerCount: 2
Fore
SplineSet
-6 -0 m 1
 193 181 l 2
 285 265 377 374 469 486 c 1
 247 1024 l 1
 409 1024 l 1
 576 620 l 1
 657 724 733 829 798 928 c 2
 861 1024 l 1
 1041 1024 l 1
 924 846 l 2
 842 722 745 589 642 461 c 1
 832 0 l 1
 669 -0 l 1
 533 330 l 1
 453 237 377 146 297 73 c 2
 217 -0 l 1
 143 0 68 0 -6 -0 c 1
EndSplineSet
Validated: 3073
EndChar

StartChar: y
Encoding: 121 121 88
Width: 1075
VWidth: 1947
GlyphClass: 2
Flags: W
HStem: -369 150<117.816 310.902> 1004 20G<248 408 897.638 1073>
VStem: -46 151<-203.907 -120.641> 248 151<689.882 1024> 907 166<858 1024>
DStem2: 392 -75 524 -145 0.425088 0.905152<-149.132 240.853 399.93 1213.68>
LayerCount: 2
Fore
SplineSet
207 -369 m 27
 75 -369 -46 -275 -46 -146 c 27
 -46 -127 -45 -117 -42 -97 c 1
 106 -123 l 1
 105 -127 105 -131 105 -134 c 3
 105 -175 144 -219 207 -219 c 3
 282 -219 360 -142 392 -75 c 2
 479 111 l 1
 340 381 269 692 248 1024 c 1
 399 1024 l 1
 417 756 468 506 562 287 c 1
 907 1024 l 1
 1073 1024 l 1
 524 -145 l 2
 492 -214 358 -369 207 -369 c 27
EndSplineSet
Validated: 3073
EndChar

StartChar: z
Encoding: 122 122 89
Width: 1075
VWidth: 1947
GlyphClass: 2
Flags: W
HStem: 0 150<262 861> 874 150<265 805>
DStem2: 21 126 262 150 0.723941 0.689862<191.026 1083.59>
LayerCount: 2
Fore
SplineSet
234 874 m 1
 265 1024 l 1
 1074 1024 l 1
 1048 899 l 1
 262 150 l 1
 892 150 l 1
 861 0 l 1
 -6 0 l 1
 21 126 l 1
 805 874 l 1
 234 874 l 1
EndSplineSet
Validated: 3073
EndChar

StartChar: braceleft
Encoding: 123 123 90
Width: 1075
VWidth: 1947
GlyphClass: 2
Flags: W
HStem: -155 150<437.365 674> 689 150<234 322.375> 1405 150<747.992 1006>
VStem: 268 150<19.6483 338.5> 345 150<291 669.955>
DStem2: 206.281 -155 358.658 -155 0.207912 0.978148<296 704.892 1068.7 1570.33>
LayerCount: 2
Fore
SplineSet
900 1405 m 2xe8
 779 1405 676 1336 652 1226 c 2
 600 986 l 2
 580 894 520 803 434 746 c 1
 479 684 495 604 495 537 c 3xe8
 495 507 491 477 485 447 c 2
 422 143 l 2
 419 129 418 115 418 102 c 3
 418 28 473 -5 568 -5 c 2
 706 -5 l 1
 674 -155 l 1
 568 -155 l 2
 401 -155 268 -68 268 102 c 3xf0
 268 125 271 149 276 173 c 2
 339 477 l 2
 343 498 345 519 345 537 c 3
 345 652 296 689 247 689 c 2
 202 689 l 1
 234 839 l 1
 247 839 l 2
 355 839 436 935 454 1018 c 2
 506 1258 l 2
 547 1448 720 1555 900 1555 c 2
 1037 1555 l 1
 1006 1405 l 1
 900 1405 l 2xe8
EndSplineSet
Validated: 3073
EndChar

StartChar: bar
Encoding: 124 124 91
Width: 1075
VWidth: 1947
GlyphClass: 2
Flags: W
VStem: 330 153<-78 75> 663 153<1323 1476>
DStem2: 330 -78 483 -78 0.207912 0.978148<31.8105 1589.28>
LayerCount: 2
Fore
SplineSet
330 -78 m 1
 663 1476 l 1
 816 1476 l 1
 483 -78 l 1
 330 -78 l 1
EndSplineSet
Validated: 3073
EndChar

StartChar: braceright
Encoding: 125 125 92
Width: 1075
VWidth: 1947
GlyphClass: 2
Flags: W
HStem: -155 150<55 310.008> 623 150<738.908 839> 1405 150<386 619.619>
VStem: 568 151<789.635 1137.16> 640 150<1193.88 1382.45>
DStem2: 336.069 -155 488.871 -155 0.207912 0.978148<209.51 754.691 1106.56 1485.8>
LayerCount: 2
Fore
SplineSet
640 1300 m 3xe8
 640 1387 567 1405 490 1405 c 2
 355 1405 l 1
 386 1555 l 1
 490 1555 l 2
 742 1555 790 1401 790 1300 c 3xe8
 790 1276 787 1251 782 1227 c 2
 725 952 l 2
 721 933 719 913 719 894 c 3
 719 830 744 773 825 773 c 2
 871 773 l 1
 839 623 l 1
 825 623 l 2
 725 623 630 505 603 380 c 2
 552 142 l 2
 511 -48 338 -155 158 -155 c 2
 23 -155 l 1
 55 -5 l 1
 158 -5 l 2
 279 -5 382 64 406 174 c 2
 456 412 l 2
 477 511 538 630 632 704 c 1
 585 757 568 816 568 894 c 27xf0
 568 929 572 954 578 984 c 2
 636 1257 l 2
 639 1272 640 1287 640 1300 c 3xe8
EndSplineSet
Validated: 3073
EndChar

StartChar: asciitilde
Encoding: 126 126 93
Width: 1075
VWidth: 1947
GlyphClass: 2
Flags: W
HStem: 758 150<690.5 847.459> 912 150<399.412 563.953>
DStem2: 652 993 537 897 0.677057 -0.735931<-63.781 150.428>
LayerCount: 2
Fore
SplineSet
490 1062 m 2
 505 1062 l 2
 547 1062 611 1045 652 993 c 1
 716 924 l 2
 726 913 741 908 742 908 c 2
 757 908 l 2
 811 908 856 949 891 1013 c 1
 1023 941 l 1
 958 822 863 758 757 758 c 2
 742 758 l 2
 729 758 663 761 606 822 c 2
 537 897 l 2
 533 902 514 912 505 912 c 2
 490 912 l 2
 433 912 381 863 348 798 c 1
 214 866 l 1
 276 990 380 1062 490 1062 c 2
EndSplineSet
Validated: 3073
EndChar

StartChar: cent
Encoding: 162 162 96
Width: 1075
VWidth: 1947
GlyphClass: 2
Flags: W
HStem: -25 151<488 651.743> 898 150<467.035 639>
VStem: 107 150<183.881 583.788> 772 162<1067 1229>
DStem2: 2.24367 -111 155.045 -111 0.207912 0.978148<483.567 953.542> 230 -111 392 -111 0.374966 0.927038<60.7445 138.351 316.449 1088.74 1269.66 1445.46>
LayerCount: 2
Fore
SplineSet
336 151 m 1
 639 898 l 1
 618 898 l 2
 428 898 335 744 301 582 c 2
 266 411 l 2
 260 381 257 354 257 328 c 3
 257 246 286 184 336 151 c 1
230 -111 m 1
 279 10 l 1
 172 66 107 184 107 328 c 3
 107 365 111 404 120 443 c 2
 155 612 l 2
 208 864 368 1048 618 1048 c 2
 639 1048 l 2
 661 1048 680 1047 698 1046 c 1
 772 1229 l 1
 934 1229 l 1
 847 1014 l 1
 956 965 970 883 979 841 c 1
 831 819 l 1
 828 832 826 858 791 875 c 1
 488 126 l 1
 601 131 667 161 706 226 c 1
 834 150 l 1
 755 19 622 -25 448 -25 c 2
 427 -25 l 1
 392 -111 l 1
 230 -111 l 1
EndSplineSet
Validated: 3073
EndChar

StartChar: sterling
Encoding: 163 163 97
Width: 1075
VWidth: 1947
GlyphClass: 2
Flags: W
HStem: -25 150<521.902 815.601> 49 150<342 501.18> 656 150<145 295 497 864> 1275 150<517.606 860.671>
VStem: 240 151<858.281 1145.41> 349 150<459.784 656>
DStem2: -28 104 40 -30 0.894427 0.447214<0.894428 260.203> 15.5017 -30 169.241 -30 0.207912 0.978148<1091.66 1295.93> 227.533 -30 379.91 -30 0.207912 0.978148<364.199 627.718> 510 177 504 3 0.842696 -0.538389<-66.2292 164.92>
LayerCount: 2
Fore
SplineSet
717 1275 m 2xb8
 696 1275 l 2
 542 1275 430 1205 398 1048 c 2
 392 1018 l 2
 391 1014 391 1011 391 1006 c 3xb8
 391 989 397 964 412 922 c 2
 455 806 l 1
 896 806 l 1
 864 656 l 1
 497 656 l 1
 498 643 499 622 499 600 c 3
 499 565 497 524 492 501 c 2
 483 455 l 2
 464 364 409 276 342 199 c 1
 372 199 l 2x74
 426 199 481 196 510 177 c 2
 582 131 l 2
 587 128 596 125 604 125 c 2
 656 125 l 2
 728 125 797 153 819 172 c 1
 917 58 l 1
 847 -1 729 -25 656 -25 c 2
 604 -25 l 2xb4
 565 -25 529 -13 504 3 c 2
 445 41 l 2
 437 46 413 49 372 49 c 2
 329 49 l 2x74
 231 49 185 42 82 -9 c 2
 40 -30 l 1
 -28 104 l 1
 14 125 l 2
 151 194 311 361 337 485 c 2
 346 531 l 2
 348 543 349 564 349 587 c 3xb4
 349 611 348 637 346 656 c 1
 114 656 l 1
 145 806 l 1
 295 806 l 1
 272 870 l 2
 255 916 240 977 240 1014 c 3
 240 1021 243 1040 244 1045 c 2
 252 1078 l 2
 306 1297 462 1425 696 1425 c 2
 717 1425 l 2
 837 1425 961 1381 1021 1267 c 1
 889 1197 l 1
 865 1243 805 1275 717 1275 c 2xb8
EndSplineSet
Validated: 3073
EndChar

StartChar: euro
Encoding: 8364 8364 98
Width: 1075
VWidth: 1947
GlyphClass: 2
Flags: W
HStem: -25 150<422.351 662.266> 490 150<80 222 396 719> 832 150<186 283 484 941> 1275 150<651.509 931.814>
VStem: 215 150<183.259 490> 961 146<1197.66 1244.11>
LayerCount: 2
Fore
SplineSet
530 -25 m 3
 278 -25 215 195 215 368 c 3
 215 398 217 440 222 490 c 1
 80 490 l 1
 80 640 l 1
 244 640 l 1
 283 832 l 1
 186 832 l 1
 186 982 l 1
 325 982 l 1
 403 1218 536 1425 799 1425 c 3
 979 1425 1075 1338 1107 1201 c 1
 961 1167 l 1
 945 1234 911 1275 799 1275 c 3
 679 1275 570 1214 484 982 c 1
 941 982 l 1
 941 832 l 1
 438 832 l 1
 396 640 l 1
 719 640 l 1
 719 490 l 1
 373 490 l 1
 368 448 365 405 365 368 c 3
 365 141 472 125 530 125 c 3
 641 125 732 200 808 348 c 1
 942 280 l 1
 861 123 731 -25 530 -25 c 3
EndSplineSet
Validated: 3073
EndChar

StartChar: yen
Encoding: 165 165 99
Width: 1075
VWidth: 1947
GlyphClass: 2
Flags: W
HStem: 48 150<41 360 544 862> 306 150<95 413 598 916> 1380 20G<301 457.507 955.262 1142>
VStem: 301 153<1247 1400> 317 152<-160 -8> 967 175<1225 1400>
DStem2: 454 1400 301 1400 0.173405 -0.984851<0 683.266> 317 -160 469 -160 0.207912 0.978148<31.6026 212.395 397.373 475.776 660.962 688.379> 572 727 604 486 0.507267 0.861789<0 780.354>
LayerCount: 2
Fore
SplineSet
95 456 m 1xec
 445 456 l 1
 457 514 l 1
 301 1400 l 1
 454 1400 l 1xf4
 572 727 l 1
 967 1400 l 1
 1142 1400 l 1
 604 486 l 1
 598 456 l 1
 948 456 l 1
 916 306 l 1
 566 306 l 1
 544 198 l 1
 894 198 l 1
 862 48 l 1
 513 48 l 1
 469 -160 l 1
 317 -160 l 1
 360 48 l 1
 9 48 l 1
 41 198 l 1
 391 198 l 1
 413 306 l 1
 63 306 l 1
 95 456 l 1xec
EndSplineSet
Validated: 3073
EndChar

StartChar: section
Encoding: 167 167 101
Width: 1075
VWidth: 1947
GlyphClass: 2
Flags: W
HStem: -158 150<315.76 563.979> 1405 150<518.068 759.586>
VStem: 170 150<559.311 829.576> 290 150<1113.45 1330.51> 633 150<55.3179 270.906> 755 150<559.783 827.993>
LayerCount: 2
Fore
SplineSet
440 1204 m 2xd0
 440 1151 500 1060 633 1033 c 1xd8
 787 1002 905 887 905 733 c 2
 905 667 l 2xc4
 905 532 820 422 701 371 c 1
 752 316 783 250 783 183 c 2
 783 160 l 2
 783 -4 635 -158 448 -158 c 2
 429 -158 l 2
 280 -158 152 -45 101 59 c 1
 235 125 l 1
 268 58 352 -8 429 -8 c 2
 448 -8 l 2
 545 -8 633 72 633 160 c 2
 633 183 l 2
 633 237 567 324 443 349 c 1
 283 384 170 516 170 667 c 2
 170 733 l 2xe8
 170 862 254 964 373 1012 c 1
 323 1066 290 1132 290 1204 c 2
 290 1227 l 2
 290 1385 440 1555 626 1555 c 2
 645 1555 l 2
 775 1555 908 1461 968 1345 c 1
 836 1275 l 1
 804 1337 721 1405 645 1405 c 2
 626 1405 l 2
 523 1405 440 1303 440 1227 c 2
 440 1204 l 2xd0
548 891 m 2
 528 891 l 2
 419 891 320 828 320 733 c 2
 320 667 l 2
 320 573 408 490 528 490 c 2
 548 490 l 2
 668 490 755 572 755 667 c 2
 755 733 l 2xe4
 755 828 657 891 548 891 c 2
EndSplineSet
Validated: 3073
EndChar

StartChar: copyright
Encoding: 169 169 103
Width: 1075
VWidth: 1947
GlyphClass: 2
Flags: W
HStem: 104 150<346.827 740.98> 324 150<417.127 683.634> 741 150<414.452 674.406> 949 150<329.533 718.763>
VStem: -0 150<438.991 777.345> 229 150<512.56 704.957> 916 150<424.621 754.724>
LayerCount: 2
Fore
SplineSet
379 606 m 0
 379 532 434 474 541 474 c 0
 600 474 634 491 655 512 c 1
 759 404 l 1
 698 345 618 324 541 324 c 0
 351 324 229 449 229 606 c 0
 229 751 338 891 526 891 c 0
 657 891 724 834 744 817 c 1
 646 703 l 1
 633 714 598 741 526 741 c 0
 425 741 379 670 379 606 c 0
916 583 m 0
 916 745 801 949 518 949 c 0
 275 949 150 785 150 614 c 0
 150 425 288 254 542 254 c 0
 792 254 916 420 916 583 c 0
518 1099 m 0
 887 1099 1066 825 1066 583 c 0
 1066 344 882 104 542 104 c 0
 187 104 0 361 -0 614 c 0
 0 863 186 1099 518 1099 c 0
EndSplineSet
Validated: 3073
EndChar

StartChar: ordfeminine
Encoding: 170 170 104
Width: 1075
VWidth: 1947
GlyphClass: 2
Flags: W
HStem: 244 150<79 906> 518 150<425.877 671.142> 938 150<449.166 819> 1306 150<537.797 860.02>
VStem: 243 151<700.616 885.436> 873 148<1089.3 1290.95>
DStem2: 674.296 244 826.296 244 0.207912 0.978148<333.193 349.435 532.538 708.92 862.088 994.318>
LayerCount: 2
Fore
SplineSet
629 938 m 2
 460 938 410 866 404 838 c 2
 395 797 l 2
 394 793 394 788 394 783 c 3
 394 737 434 668 540 668 c 2
 559 668 l 2
 666 668 794 818 804 866 c 2
 819 938 l 1
 629 938 l 2
722 1306 m 2
 705 1306 l 2
 614 1306 543 1284 501 1223 c 1
 377 1309 l 1
 419 1370 508 1456 705 1456 c 2
 722 1456 l 2
 956 1447 1021 1331 1021 1213 c 3
 1021 1187 1018 1161 1013 1136 c 2
 889 539 l 1
 737 539 l 1
 746 586 l 1
 692 551 630 518 559 518 c 2
 540 518 l 2
 346 518 243 659 243 784 c 3
 243 801 245 817 249 833 c 2
 258 870 l 2
 271 925 333 1088 629 1088 c 2
 850 1088 l 1
 867 1168 l 2
 871 1188 873 1204 873 1219 c 3
 873 1297 814 1306 722 1306 c 2
937 394 m 1
 906 244 l 1
 48 244 l 1
 79 394 l 1
 937 394 l 1
EndSplineSet
Validated: 3073
EndChar

StartChar: guillemotleft
Encoding: 171 171 105
Width: 1075
VWidth: 1947
GlyphClass: 2
Flags: W
DStem2: 305 431 149 419 0.361887 -0.932222<0 300.144> 177 545 315 479 0.627993 0.778219<35.3006 405.75> 725 431 569 419 0.361887 -0.932222<0 300.144> 597 545 735 479 0.627993 0.778219<35.3006 405.75>
LayerCount: 2
Fore
SplineSet
274 97 m 1
 149 419 l 1
 177 545 l 1
 432 861 l 1
 548 767 l 1
 315 479 l 1
 305 431 l 1
 414 151 l 1
 274 97 l 1
694 97 m 1
 569 419 l 1
 597 545 l 1
 852 861 l 1
 968 767 l 1
 735 479 l 1
 725 431 l 1
 834 151 l 1
 694 97 l 1
EndSplineSet
Validated: 3073
EndChar

StartChar: logicalnot
Encoding: 172 172 106
Width: 1075
VWidth: 1947
GlyphClass: 2
Flags: W
HStem: 525 150<159 740>
VStem: 674 154<214 368>
DStem2: 674 214 828 214 0.207912 0.978148<32.0184 317.926>
LayerCount: 2
Fore
SplineSet
674 214 m 1
 740 525 l 1
 127 525 l 1
 159 675 l 1
 926 675 l 1
 828 214 l 1
 674 214 l 1
EndSplineSet
Validated: 3073
EndChar

StartChar: softhyphen
Encoding: 173 173 107
Width: 1075
VWidth: 1947
GlyphClass: 2
Flags: W
HStem: 525 150<299 777>
VStem: 299 478<525 675>
LayerCount: 2
Fore
SplineSet
777 675 m 1
 777 525 l 1
 299 525 l 1
 299 675 l 1
 777 675 l 1
EndSplineSet
Validated: 3073
EndChar

StartChar: registered
Encoding: 174 174 108
Width: 1075
VWidth: 1947
GlyphClass: 2
Flags: W
HStem: 42 150<356.82 719.584> 511 150<466 520> 747 150<466 629.482> 1012 150<359.088 716.159>
VStem: 5 150<401.633 792.852> 316 150<326 511 661 747> 635 150<664.892 743.07> 921 150<399.807 795.268>
LayerCount: 2
Fore
SplineSet
555 897 m 2
 780 897 785 785 785 729 c 2
 785 689 l 2
 785 613 745 560 682 533 c 1
 786 366 l 1
 658 287 l 1
 520 511 l 1
 466 511 l 1
 466 326 l 1
 316 326 l 1
 316 897 l 1
 555 897 l 2
635 729 m 2
 635 736 630 747 555 747 c 2
 466 747 l 1
 466 661 l 1
 555 661 l 2
 633 661 635 676 635 689 c 2
 635 729 l 2
1071 595 m 3
 1071 316 883 42 538 42 c 3
 194 42 5 311 5 595 c 3
 5 881 198 1162 538 1162 c 3
 888 1162 1071 876 1071 595 c 3
538 1012 m 3
 289 1012 155 806 155 595 c 3
 155 390 282 192 538 192 c 3
 795 192 921 396 921 595 c 3
 921 802 795 1012 538 1012 c 3
EndSplineSet
Validated: 3073
EndChar

StartChar: degree
Encoding: 176 176 110
Width: 1075
VWidth: 1947
GlyphClass: 2
Flags: W
HStem: 807 150<565.744 790.649> 1258 150<566.538 790.879>
VStem: 378 150<995.888 1220.36> 828 150<996.785 1220.19>
LayerCount: 2
Fore
SplineSet
678 1258 m 0
 572 1258 528 1186 528 1108 c 0
 528 1030 571 957 678 957 c 0
 786 957 828 1033 828 1108 c 0
 828 1172 798 1258 678 1258 c 0
978 1108 m 0
 978 946 866 807 678 807 c 0
 491 807 378 944 378 1108 c 0
 378 1275 494 1408 678 1408 c 0
 867 1408 978 1273 978 1108 c 0
EndSplineSet
Validated: 3073
EndChar

StartChar: plusminus
Encoding: 177 177 111
Width: 1075
VWidth: 1947
GlyphClass: 2
Flags: W
HStem: 33 150<39 861> 787 150<198 517 702 1020>
VStem: 438 156<419 575> 625 152<1123 1275>
DStem2: 355.953 33 511.741 33 0.207912 0.978148<428.036 771.007 956.193 1270.8>
LayerCount: 2
Fore
SplineSet
1020 937 m 1
 1020 787 l 1
 670 787 l 1
 594 420 l 1
 438 419 l 1
 517 787 l 1
 198 787 l 1
 198 937 l 1
 549 937 l 1
 625 1275 l 1
 777 1275 l 1
 702 937 l 1
 1020 937 l 1
861 183 m 1
 861 33 l 1
 39 33 l 1
 39 183 l 1
 861 183 l 1
EndSplineSet
Validated: 3073
EndChar

StartChar: twosuperior
Encoding: 178 178 112
Width: 1075
VWidth: 2334
GlyphClass: 2
Flags: W
HStem: 575 150<549 774> 1290 150<650.448 789.19>
VStem: 790 150<1136.77 1289.9>
DStem2: 495 897 599 789 0.735545 0.677476<-73.7033 431.645>
LayerCount: 2
Fore
SplineSet
505 1305 m 1
 540 1356 600 1440 732 1440 c 2
 742 1440 l 2
 898 1440 940 1341 940 1264 c 3
 940 1243 937 1222 932 1201 c 2
 927 1179 l 2
 918 1141 885 1052 827 999 c 2
 599 789 l 2
 580 770 564 748 549 725 c 1
 806 725 l 1
 774 575 l 1
 335 575 l 1
 358 668 l 2
 380 755 446 852 495 897 c 2
 721 1105 l 2
 748 1129 776 1188 781 1211 c 2
 786 1233 l 2
 788 1243 790 1254 790 1259 c 3
 790 1284 775 1290 742 1290 c 2
 732 1290 l 2
 680 1290 658 1263 631 1223 c 1
 505 1305 l 1
EndSplineSet
Validated: 3073
EndChar

StartChar: threesuperior
Encoding: 179 179 113
Width: 1075
VWidth: 2334
GlyphClass: 2
Flags: W
HStem: 557 150<498.413 666.54> 947 150<538 724.245> 1285 150<598.839 762.895>
VStem: 337 150<718.227 798.943> 725 150<768.462 945.446> 767 150<1139.99 1282.67>
LayerCount: 2
Fore
SplineSet
725 921 m 0xf8
 725 944 722 947 649 947 c 2
 538 947 l 1
 538 1097 l 1
 650 1097 l 2
 686 1097 749 1152 760 1204 c 2
 767 1228 l 2
 769 1236 767 1241 767 1247 c 3
 767 1264 743 1285 701 1285 c 2
 689 1285 l 2
 647 1285 612 1263 586 1223 c 1
 460 1305 l 1
 514 1388 598 1435 689 1435 c 2
 701 1435 l 2
 814 1435 917 1360 917 1247 c 3xf4
 917 1232 915 1216 911 1196 c 2
 906 1174 l 2
 889 1115 861 1072 833 1040 c 1
 855 1016 875 979 875 921 c 3
 875 820 815 557 576 557 c 2
 564 557 l 2
 529 557 426 572 365 679 c 0
 348 709 337 745 337 783 c 3
 337 796 338 811 342 828 c 1
 488 796 l 1
 487 789 487 786 487 783 c 3
 487 756 517 712 564 707 c 2
 576 707 l 2
 706 707 725 895 725 921 c 0xf8
EndSplineSet
Validated: 3073
EndChar

StartChar: micro
Encoding: 181 181 115
Width: 1075
VWidth: 2334
GlyphClass: 2
Flags: W
HStem: -25 150<281.289 574.375> 1004 20G<235.861 393 881.817 1038>
VStem: 240 153<871 1024> 688 150<-42 65.9954> 886 152<872 1024>
DStem2: -46.0567 -349 106.32 -349 0.207912 0.978148<29.5663 439.568 670.254 1402.47> 596.244 -349 752.176 -349 0.207912 0.978148<620.24 1403.24>
LayerCount: 2
Fore
SplineSet
688 67 m 1
 617 12 536 -25 448 -25 c 2
 427 -25 l 2
 324 -25 246 3 191 50 c 1
 172 -40 l 2
 147 -156 120 -254 73 -349 c 1
 -98 -349 l 1
 -31 -240 0 -137 26 -10 c 2
 240 1024 l 1
 393 1024 l 1
 257 369 l 2
 250 334 245 302 245 273 c 3
 245 183 288 125 427 125 c 2
 448 125 l 2
 586 125 735 302 758 412 c 2
 886 1024 l 1
 1038 1024 l 1
 844 83 l 2
 838 54 838 16 838 8 c 3
 838 -5 838 -22 840 -42 c 1
 688 -42 l 1
 687 -26 688 -9 688 8 c 3
 688 21 686 43 688 67 c 1
EndSplineSet
Validated: 3073
EndChar

StartChar: paragraph
Encoding: 182 182 116
Width: 1075
VWidth: 2334
GlyphClass: 2
Flags: W
HStem: 0 21G<256 413.181 673 829.176> 1325 150<686 949>
VStem: 256 153<0 153> 673 152<0 152>
DStem2: 256 0 409 0 0.207912 0.978148<31.8105 708.849> 673 0 825 0 0.207912 0.978148<31.6026 1353.43>
LayerCount: 2
Fore
SplineSet
400 691 m 1
 281 717 203 814 203 962 c 3
 203 996 207 1033 216 1072 c 2
 223 1109 l 2
 267 1323 452 1475 604 1475 c 2
 1133 1475 l 1
 825 0 l 1
 673 0 l 1
 949 1325 l 1
 686 1325 l 1
 409 0 l 1
 256 0 l 1
 400 691 l 1
EndSplineSet
Validated: 3073
EndChar

StartChar: periodcentered
Encoding: 183 183 117
Width: 1075
VWidth: 1947
GlyphClass: 2
Flags: W
HStem: 636 222<501.767 677.466>
VStem: 479 221<658.729 835.565>
LayerCount: 2
Fore
SplineSet
700 747 m 0
 700 688 654 636 589 636 c 0
 526 636 479 687 479 747 c 0
 479 805 523 858 589 858 c 0
 654 858 700 807 700 747 c 0
EndSplineSet
Validated: 3073
EndChar

StartChar: onesuperior
Encoding: 185 185 119
Width: 1075
VWidth: 1708
GlyphClass: 2
Flags: W
HStem: 1405 20G<748.45 871>
VStem: 548 153<641 794>
DStem2: 548 641 701 641 0.207912 0.978148<31.8105 601.556>
LayerCount: 2
Fore
SplineSet
548 641 m 1
 675 1229 l 1
 580 1176 l 1
 581 1180 l 1
 541 1236 l 1
 773 1425 l 1
 871 1425 l 1
 701 641 l 1
 548 641 l 1
EndSplineSet
Validated: 3073
EndChar

StartChar: ordmasculine
Encoding: 186 186 120
Width: 1075
VWidth: 1947
GlyphClass: 2
Flags: W
HStem: 244 150<79 906> 523 150<449.95 687.502> 1310 150<585.42 824.373>
VStem: 258 150<713.658 1073.18> 856 150<892.242 1277.48>
LayerCount: 2
Fore
SplineSet
258 872 m 0
 258 1041 376 1460 715 1460 c 0
 853 1460 1006 1388 1006 1133 c 0
 1006 933 915 523 551 523 c 0
 329 523 258 714 258 872 c 0
551 673 m 0
 795 673 856 986 856 1133 c 0
 856 1255 817 1310 715 1310 c 0
 487 1310 408 977 408 872 c 0
 408 776 437 673 551 673 c 0
937 394 m 1
 906 244 l 1
 48 244 l 1
 79 394 l 1
 937 394 l 1
EndSplineSet
Validated: 3073
EndChar

StartChar: guillemotright
Encoding: 187 187 121
Width: 1075
VWidth: 1947
GlyphClass: 2
Flags: W
DStem2: 84 171 200 77 0.627704 0.778452<0 369.043> 358 841 218 787 0.358398 -0.933569<0.237007 301.277> 504 171 620 77 0.627704 0.778452<0 369.043> 778 841 638 787 0.358398 -0.933569<0.237007 301.277>
LayerCount: 2
Fore
SplineSet
736 458 m 1
 746 506 l 1
 638 787 l 1
 778 841 l 1
 902 518 l 1
 874 392 l 1
 620 77 l 1
 504 171 l 1
 736 458 l 1
316 458 m 1
 326 506 l 1
 218 787 l 1
 358 841 l 1
 482 518 l 1
 454 392 l 1
 200 77 l 1
 84 171 l 1
 316 458 l 1
EndSplineSet
Validated: 3073
EndChar

StartChar: OE
Encoding: 338 338 122
Width: 1075
VWidth: 1947
GlyphClass: 2
Flags: W
HStem: 0 150<140.622 427.709 605 844> 657 150<746 919> 1250 150<374.054 668.047 837 1104>
VStem: -16 150<160.74 433.672>
DStem2: -66.0521 0 86.1604 0 0.207912 0.978148<250.229 1286.67> 419.586 0 570.35 0 0.207912 0.978148<186.86 703.024 857.231 1221.95>
LayerCount: 2
Fore
SplineSet
563 1250 m 2
 498 1250 l 2
 402 1250 336 1186 326 1140 c 2
 141 258 l 2
 138 246 134 219 134 213 c 3
 134 157 212 150 240 150 c 2
 305 150 l 2
 377 150 459 202 474 256 c 1
 670 1185 l 2
 671 1189 671 1192 671 1196 c 3
 671 1225 642 1250 563 1250 c 2
240 0 m 2
 36 0 -16 128 -16 213 c 3
 -16 229 -14 243 -11 259 c 2
 180 1172 l 2
 210 1311 357 1400 498 1400 c 2
 563 1400 l 2
 620 1400 653 1393 703 1367 c 1
 710 1400 l 1
 1135 1400 l 1
 1104 1250 l 1
 837 1250 l 1
 746 807 l 1
 950 807 l 1
 919 657 l 1
 710 657 l 1
 605 150 l 1
 875 150 l 1
 844 0 l 1
 421 0 l 1
 426 23 l 1
 388 8 346 0 305 0 c 2
 240 0 l 2
EndSplineSet
Validated: 3073
EndChar

StartChar: oe
Encoding: 339 339 123
Width: 1075
VWidth: 1947
GlyphClass: 2
Flags: W
HStem: -25 150<133.087 352.735 549.993 768.553> 467 150<631 894> 899 150<290.893 513.139 713.169 931.732>
VStem: -22 150<132.82 271.417> 936 149<619.008 890.674>
DStem2: -72.2647 -25 80.5371 -25 0.207912 0.978148<251.101 955.185> 343.948 -25 497.112 -25 0.207912 0.978148<252.124 534.485 687.652 865.613> 758.948 -25 913.325 -25 0.207912 0.978148<180.27 264.786 656.05 878.394>
LayerCount: 2
Fore
SplineSet
229 -25 m 27
 100 -25 -22 103 -22 189 c 3
 -22 203 -21 217 -17 235 c 2
 105 820 l 2
 132 952 268 1049 420 1049 c 27
 504 1049 555 1039 619 970 c 1
 679 1018 746 1049 836 1049 c 19
 965 1049 1085 935 1085 819 c 3
 1085 809 1085 799 1083 790 c 2
 1016 467 l 1
 600 467 l 1
 546 205 l 2
 545 200 544 195 544 190 c 3
 544 153 599 125 646 125 c 27
 724 125 802 177 814 234 c 1
 962 204 l 1
 935 72 798 -25 646 -25 c 27
 563 -25 515 -18 448 54 c 1
 388 6 320 -25 229 -25 c 27
251 790 m 2
 129 203 l 2
 128 198 128 192 128 189 c 3
 128 144 168 125 218 125 c 3
 291 125 385 167 399 234 c 2
 516 789 l 2
 519 802 520 813 520 823 c 3
 520 887 469 899 420 899 c 11
 342 899 266 861 251 790 c 2
667 790 m 2
 631 617 l 1
 894 617 l 1
 931 784 l 2
 934 801 936 823 936 836 c 3
 936 878 912 899 836 899 c 3
 754 899 677 839 667 790 c 2
EndSplineSet
Validated: 3073
EndChar

StartChar: AE
Encoding: 198 198 132
Width: 1075
VWidth: 1947
GlyphClass: 2
Flags: W
HStem: 0 150<605 844> 689 150<397 563 747 926> 1250 150<563.262 679 832 1104>
VStem: -84 160<0 160>
DStem2: -84 0 76 0 0.357198 0.934029<57.1516 794.998 955.462 1383.81> 421 0 573.117 0 0.207912 0.978148<184.978 703.467 888.445 1276.33>
LayerCount: 2
Fore
SplineSet
594 839 m 1
 679 1250 l 1
 594 1243 534 1196 513 1141 c 2
 397 839 l 1
 594 839 l 1
-84 0 m 1
 373 1195 l 2
 422 1323 552 1400 703 1400 c 2
 1135 1400 l 1
 1104 1250 l 1
 832 1250 l 1
 747 839 l 1
 957 839 l 1
 926 689 l 1
 716 689 l 1
 605 150 l 1
 875 150 l 1
 844 0 l 1
 421 0 l 1
 563 689 l 1
 340 689 l 1
 76 0 l 1
 -84 0 l 1
EndSplineSet
Validated: 3073
EndChar

StartChar: Eth
Encoding: 208 208 142
Width: 1075
VWidth: 1947
GlyphClass: 2
Flags: W
HStem: 0 150<259 579.146> 713 150<122 223 407 580> 1250 150<487 818.081>
VStem: 871 150<696.462 1192.48>
DStem2: 75 0 227.117 0 0.207912 0.978148<184.978 728.19 913.168 1308.34>
LayerCount: 2
Fore
SplineSet
702 1250 m 2
 487 1250 l 1
 407 863 l 1
 580 863 l 1
 580 713 l 1
 376 713 l 1
 259 150 l 1
 444 150 l 2
 602 150 741 287 840 748 c 0
 858 831 871 924 871 1006 c 3
 871 1180 816 1250 702 1250 c 2
1021 1006 m 3
 1021 890 998 773 986 716 c 0
 922 412 795 0 444 0 c 2
 75 0 l 1
 223 713 l 1
 91 713 l 1
 122 863 l 1
 254 863 l 1
 365 1400 l 1
 702 1400 l 2
 830 1400 1021 1340 1021 1006 c 3
EndSplineSet
Validated: 3073
EndChar

StartChar: multiply
Encoding: 215 215 149
Width: 1075
VWidth: 1708
GlyphClass: 2
Flags: W
DStem2: 152 366 250 252 0.757301 0.653066<0 389.049 550.898 939.947> 391 967 271 879 0.592841 -0.805319<0 299.608 462.55 762.158>
LayerCount: 2
Fore
SplineSet
864 980 m 1
 962 866 l 1
 659 605 l 1
 843 353 l 1
 723 265 l 1
 545 506 l 1
 250 252 l 1
 152 366 l 1
 455 627 l 1
 271 879 l 1
 391 967 l 1
 569 726 l 1
 864 980 l 1
EndSplineSet
Validated: 3073
EndChar

StartChar: Thorn
Encoding: 222 222 156
Width: 1075
VWidth: 1947
GlyphClass: 2
Flags: W
HStem: -0 21G<27 184.162> 370 150<289 700.56> 1155 150<452 842.578>
VStem: 27 153<0 153> 348 152<1386 1538> 882 150<792.234 1118.17>
DStem2: 27 0 180 0 0.207912 0.978148<31.8105 409.734 563.11 1211.68 1364.85 1571.13> 669.032 0 821.409 0 0.207912 0.978148<613.212 1049.22>
LayerCount: 2
Fore
SplineSet
530 520 m 2
 707 520 801 621 831 762 c 2
 878 986 l 2
 881 1001 882 1015 882 1028 c 0
 882 1130 786 1155 693 1155 c 2
 421 1155 l 1
 289 520 l 1
 530 520 l 2
180 0 m 1
 27 -0 l 1
 348 1538 l 1
 500 1538 l 1
 452 1305 l 1
 693 1305 l 2
 922 1305 1032 1180 1032 1028 c 0
 1032 1003 1029 978 1024 954 c 2
 977 732 l 2
 930 512 769 370 530 370 c 2
 257 370 l 1
 180 0 l 1
EndSplineSet
Validated: 3073
EndChar

StartChar: germandbls
Encoding: 223 223 157
Width: 1075
VWidth: 1947
GlyphClass: 2
Flags: W
HStem: -25 150<400.003 635.922> 712 150<522 739.936> 1275 150<517.905 838.631>
VStem: -54 153<-387 -234> 782 150<441.063 671.798> 853 150<970.816 1260.86>
DStem2: -54 -387 99 -387 0.207912 0.978148<31.8105 1664.35> 527.682 -387 680.058 -387 0.207912 0.978148<1315.83 1603.34> 588.921 -387 741.297 -387 0.207912 0.978148<586.853 965.622>
LayerCount: 2
Fore
SplineSet
853 1184 m 3xf4
 853 1266 795 1275 717 1275 c 2
 696 1275 l 2
 530 1275 429 1199 398 1049 c 2
 99 -387 l 1
 -54 -387 l 1
 252 1079 l 2
 295 1287 446 1425 696 1425 c 2
 717 1425 l 2
 774 1425 1003 1410 1003 1184 c 3xf4
 1003 1157 1000 1114 985 1047 c 2
 977 1010 l 2
 954 902 908 829 839 782 c 1
 898 729 932 653 932 560 c 3
 932 531 929 501 923 470 c 2
 892 322 l 2
 847 108 692 -25 500 -25 c 2
 491 -25 l 2
 423 -23 358 -18 295 43 c 1
 399 151 l 1
 420 128 466 125 491 125 c 2
 500 125 l 2
 620 125 715 205 746 352 c 1
 775 500 l 2
 780 522 782 542 782 560 c 3xf8
 782 681 690 712 600 712 c 2
 522 712 l 1
 522 862 l 1
 542 862 l 2
 748 862 806 921 831 1040 c 2
 839 1079 l 2
 850 1130 853 1163 853 1184 c 3xf4
EndSplineSet
Validated: 3073
EndChar

StartChar: ae
Encoding: 230 230 164
Width: 1075
VWidth: 1947
GlyphClass: 2
Flags: W
HStem: -25 150<132.332 351.334 548.135 768.553> 467 150<205.971 447 631 894> 899 150<291.42 518.664 712.045 936.501>
VStem: -22 150<133.803 272.208> 939 150<619.164 891.582>
DStem2: -72.2647 -25 80.5371 -25 0.207912 0.978148<251.189 511.752 864.401 955.132> 343.948 -25 497.325 -25 0.207912 0.978148<251.146 502.674 687.652 881.817> 758.948 -25 913.325 -25 0.207912 0.978148<180.27 264.786 656.05 883.248>
LayerCount: 2
Fore
SplineSet
420 1049 m 3
 513 1049 581 1012 619 971 c 1
 678 1019 746 1049 836 1049 c 27
 1025 1049 1085 933 1089 849 c 3
 1089 826 1086 807 1083 790 c 2
 1016 467 l 1
 600 467 l 1
 546 204 l 2
 545 199 544 194 544 189 c 3
 544 140 601 125 646 125 c 11
 724 125 802 177 814 234 c 1
 962 204 l 1
 935 72 798 -25 646 -25 c 27
 563 -25 511 -14 448 54 c 1
 386 4 304 -25 229 -25 c 3
 52 -25 -22 82 -22 188 c 3
 -22 204 -20 220 -17 235 c 2
 11 373 l 2
 36 490 164 617 345 617 c 2
 478 617 l 1
 520 820 l 2
 521 824 522 832 522 839 c 3
 522 879 490 899 420 899 c 3
 351 899 265 861 251 790 c 1
 105 820 l 1
 132 952 266 1049 420 1049 c 3
667 790 m 2
 631 617 l 1
 894 617 l 1
 935 804 l 2
 937 815 939 834 939 840 c 3
 939 881 899 899 850 899 c 3
 776 899 681 858 667 790 c 2
229 125 m 3
 304 125 388 179 399 234 c 2
 447 467 l 1
 324 467 l 2
 243 467 172 413 157 343 c 2
 129 203 l 2
 128 198 128 194 128 189 c 3
 128 157 150 125 229 125 c 3
EndSplineSet
Validated: 3073
EndChar

StartChar: eth
Encoding: 240 240 174
Width: 1075
VWidth: 1947
GlyphClass: 2
Flags: W
HStem: -25 150<318.458 598.564> 774 150<449.864 730.929> 1028 21G<351.239 418.755> 1390 20G<975.6 1042.76>
VStem: 107 150<186.123 538.868> 782 187<474.93 877.35>
DStem2: 20.7361 -25 173.113 -25 0.207912 0.978148<393.646 734.299> 310 1170 358 1028 0.949465 0.313873<1.00439 283.341 495.903 764.641> 665.098 -25 818.113 -25 0.207912 0.978148<262.457 613.865>
LayerCount: 2
Fore
SplineSet
427 -25 m 2
 235 -25 107 128 107 326 c 3
 107 363 111 401 120 442 c 2
 126 472 l 2
 178 719 339 924 593 924 c 2
 614 924 l 2
 691 924 756 903 807 864 c 1
 786 957 740 1049 680 1134 c 1
 358 1028 l 1
 310 1170 l 1
 579 1259 l 1
 541 1301 500 1340 458 1375 c 1
 554 1489 l 1
 614 1439 676 1378 734 1310 c 1
 1036 1410 l 1
 1084 1268 l 1
 828 1183 l 1
 890 1087 969 930 969 762 c 3
 969 699 954 620 951 605 c 2
 911 412 l 2
 858 157 697 -25 448 -25 c 2
 427 -25 l 2
782 579 m 3
 782 663 752 774 614 774 c 2
 593 774 l 2
 401 774 305 597 272 442 c 2
 266 412 l 2
 259 381 257 352 257 326 c 3
 257 208 321 125 427 125 c 2
 448 125 l 2
 638 125 732 278 765 445 c 2
 773 487 l 2
 779 521 782 552 782 579 c 3
EndSplineSet
Validated: 3073
EndChar

StartChar: divide
Encoding: 247 247 181
Width: 1075
VWidth: 1947
GlyphClass: 2
Flags: W
HStem: 118 247<385.191 569.925> 525 150<143 961> 835 250<536.74 722.575>
VStem: 352 248<151.525 333.143> 505 248<866.462 1053.54>
LayerCount: 2
Fore
SplineSet
961 675 m 1xe0
 961 525 l 1
 143 525 l 1
 143 675 l 1
 961 675 l 1xe0
753 960 m 0xe8
 753 900 702 835 631 835 c 0
 553 835 505 906 505 960 c 0
 505 1014 553 1085 631 1085 c 0
 702 1085 753 1020 753 960 c 0xe8
600 243 m 0xf0
 600 181 550 118 478 118 c 0
 407 118 352 183 352 243 c 0
 352 298 404 365 478 365 c 0
 552 365 600 298 600 243 c 0xf0
EndSplineSet
Validated: 3073
EndChar

StartChar: oslash
Encoding: 248 248 182
Width: 1075
VWidth: 1947
GlyphClass: 2
Flags: W
HStem: -25 150<329.27 598.564> 899 150<467.035 756.726>
VStem: 107 150<305.459 466.715>
DStem2: -6 0 107 -97 0.657688 0.75329<1.2496 191.943 402.63 1078.47 1306.9 1474.7> 5.21947 -97 158.021 -97 0.207912 0.978148<467.298 948.298> 650.432 -97 802.809 -97 0.207912 0.978148<335.933 825.206>
LayerCount: 2
Fore
SplineSet
138 167 m 1
 119 211 107 262 107 326 c 0
 107 363 111 402 120 443 c 2
 155 612 l 2
 208 864 368 1049 618 1049 c 2
 639 1049 l 2
 738 1049 809 1026 859 991 c 1
 964 1111 l 1
 1076 1013 l 1
 950 868 l 1
 965 825 968 775 968 752 c 0
 968 699 953 614 946 582 c 2
 911 412 l 2
 858 157 697 -25 448 -25 c 2
 427 -25 l 2
 350 -25 282 0 229 43 c 1
 107 -97 l 1
 -6 0 l 1
 138 167 l 1
301 582 m 2
 266 411 l 2
 259 380 257 352 257 326 c 0
 257 322 257 315 258 304 c 1
 758 876 l 1
 731 891 693 899 639 899 c 2
 618 899 l 2
 428 899 335 745 301 582 c 2
816 714 m 1
 328 156 l 1
 355 136 388 125 427 125 c 2
 448 125 l 2
 638 125 731 278 765 442 c 2
 800 612 l 2
 807 648 813 685 816 714 c 1
EndSplineSet
Validated: 3073
EndChar

StartChar: thorn
Encoding: 254 254 188
Width: 1075
VWidth: 1947
GlyphClass: 2
Flags: W
HStem: -384 21G<-52 104.183> -25 150<315.45 598.564> 899 150<464.416 784.75> 1380 20G<314.841 472>
VStem: -52 152<-384 -232> 319 153<1247 1400> 817 150<476.141 865.879>
DStem2: -52 -384 100 -384 0.207912 0.978148<31.6026 500.532 763.999 1247.81 1428.96 1822.15> 589.428 -384 741.805 -384 0.207912 0.978148<629.345 1157.63>
LayerCount: 2
Fore
SplineSet
305 597 m 2
 266 412 l 2
 260 383 258 355 258 330 c 3
 258 205 322 125 427 125 c 2
 448 125 l 2
 638 125 731 278 765 442 c 2
 800 612 l 2
 811 665 817 713 817 753 c 3
 817 842 790 899 639 899 c 2
 618 899 l 2
 434 899 338 755 305 597 c 2
-52 -384 m 1
 319 1400 l 1
 472 1400 l 1
 385 984 l 1
 451 1026 529 1049 618 1049 c 2
 639 1049 l 2
 863 1049 967 938 967 753 c 3
 967 697 958 640 946 582 c 2
 911 412 l 2
 858 157 697 -25 448 -25 c 2
 427 -25 l 2
 332 -25 252 12 196 75 c 1
 100 -384 l 1
 -52 -384 l 1
EndSplineSet
Validated: 3073
EndChar

StartChar: minus
Encoding: 8722 8722 190
Width: 1075
VWidth: 1708
GlyphClass: 2
Flags: W
HStem: 525 150<50 1025>
LayerCount: 2
Fore
SplineSet
1025 675 m 1
 1025 525 l 1
 50 525 l 1
 50 675 l 1
 1025 675 l 1
EndSplineSet
Validated: 3073
EndChar

StartChar: quoteleft
Encoding: 8216 8216 192
Width: 1075
VWidth: 1947
GlyphClass: 2
Flags: W
HStem: 1366 57<861.603 931>
VStem: 605 194<1034.92 1240.48>
LayerCount: 2
Fore
SplineSet
799 1116 m 3
 799 1065 761 1019 703 1019 c 3
 646 1019 605 1064 605 1116 c 3
 605 1116 611 1423 931 1423 c 1
 934 1366 l 1
 876 1350 762 1315 762 1242 c 3
 762 1210 799 1157 799 1116 c 3
EndSplineSet
Validated: 3073
EndChar

StartChar: gravemodifier
Encoding: 715 715 193
Width: 1075
VWidth: 2334
GlyphClass: 2
Flags: W
HStem: 1394 297
VStem: 647 274
DStem2: 767 1691 647 1603 0.593199 -0.805056<0 259.27>
LayerCount: 2
Fore
SplineSet
921 1482 m 1
 801 1394 l 1
 647 1603 l 1
 767 1691 l 1
 921 1482 l 1
EndSplineSet
Validated: 3073
EndChar

StartChar: acute
Encoding: 180 180 194
Width: 1075
VWidth: 1947
GlyphClass: 2
Flags: W
HStem: 1257 381
VStem: 550 368
DStem2: 550 1359 660 1257 0.678936 0.734198<0 379.801>
LayerCount: 2
Fore
SplineSet
660 1257 m 1
 550 1359 l 1
 808 1638 l 1
 918 1536 l 1
 660 1257 l 1
EndSplineSet
Validated: 3073
EndChar

StartChar: circumflex
Encoding: 710 710 195
Width: 1075
VWidth: 1947
GlyphClass: 2
Flags: W
HStem: 1400 238
VStem: 497 487
DStem2: 497 1524 575 1396 0.853846 0.520526<0 215.379>
LayerCount: 2
Fore
SplineSet
838 1638 m 1
 984 1518 l 1
 888 1400 l 1
 759 1508 l 1
 575 1396 l 1
 497 1524 l 1
 684 1638 l 1
 838 1638 l 1
EndSplineSet
Validated: 3073
EndChar

StartChar: tilde
Encoding: 732 732 196
Width: 1075
VWidth: 1947
GlyphClass: 2
Flags: W
HStem: 1447 150<790.27 955.518> 1537 150<563.75 725.346>
LayerCount: 2
Fore
SplineSet
439 1581 m 2x80
 483 1625 549 1687 632 1687 c 2
 648 1687 l 2x40
 696 1687 768 1667 806 1627 c 2
 822 1609 l 2
 826 1605 836 1597 850 1597 c 2
 867 1597 l 2
 911 1597 942 1626 976 1661 c 2
 998 1684 l 1
 1106 1580 l 1
 1084 1557 l 2
 1037 1508 969 1447 867 1447 c 2
 850 1447 l 2x80
 801 1447 747 1468 710 1509 c 2
 696 1525 l 2
 691 1530 681 1537 668 1537 c 2
 652 1537 l 2x40
 615 1537 587 1517 545 1475 c 2
 519 1447 l 1
 413 1555 l 1
 439 1581 l 2x80
EndSplineSet
Validated: 3073
EndChar

StartChar: macronmodifier
Encoding: 713 713 197
Width: 1075
VWidth: 1947
GlyphClass: 2
Flags: W
HStem: 1463 150<531 984>
VStem: 531 453<1463 1613>
LayerCount: 2
Fore
SplineSet
531 1463 m 1
 531 1613 l 1
 984 1613 l 1
 984 1463 l 1
 531 1463 l 1
EndSplineSet
Validated: 3073
EndChar

StartChar: breve
Encoding: 728 728 198
Width: 1075
VWidth: 1947
GlyphClass: 2
Flags: W
HStem: 1405 150<624.911 880.666>
VStem: 468 580
LayerCount: 2
Fore
SplineSet
738 1405 m 0
 623 1405 525 1460 468 1552 c 1
 596 1632 l 1
 641 1561 710 1555 738 1555 c 0
 763 1555 851 1559 944 1647 c 1
 1048 1539 l 1
 910 1408 772 1405 738 1405 c 0
EndSplineSet
Validated: 3073
EndChar

StartChar: dotaccent
Encoding: 729 729 199
Width: 1075
VWidth: 1947
GlyphClass: 2
Flags: W
HStem: 1425 204<668.294 834.75>
VStem: 650 204<1443.91 1610.09>
LayerCount: 2
Fore
SplineSet
650 1527 m 0
 650 1583 694 1629 751 1629 c 0
 807 1629 854 1583 854 1527 c 0
 854 1471 807 1425 751 1425 c 0
 694 1425 650 1471 650 1527 c 0
EndSplineSet
Validated: 3073
EndChar

StartChar: dieresis
Encoding: 168 168 200
Width: 1075
VWidth: 1947
GlyphClass: 2
Flags: W
HStem: 1444 198<420.719 578.283 856.928 1013.6>
VStem: 403 193<1461.19 1625.9> 840 191<1461.46 1626.07>
LayerCount: 2
Fore
SplineSet
1031 1545 m 0
 1031 1486 984 1444 936 1444 c 0
 885 1444 840 1490 840 1545 c 0
 840 1601 885 1642 936 1642 c 0
 983 1642 1031 1605 1031 1545 c 0
596 1545 m 0
 596 1491 553 1444 500 1444 c 0
 448 1444 403 1489 403 1545 c 0
 403 1605 451 1642 499 1642 c 0
 554 1642 596 1597 596 1545 c 0
EndSplineSet
Validated: 3073
EndChar

StartChar: ring
Encoding: 730 730 202
Width: 1075
VWidth: 1947
GlyphClass: 2
Flags: W
HStem: 1223 110<649.515 804.788> 1517 110<649.515 804.788>
VStem: 525 110<1346.23 1503.77> 819 110<1348.51 1501.49>
LayerCount: 2
Fore
SplineSet
635 1425 m 0
 635 1374 675 1333 726 1333 c 0
 777 1333 819 1374 819 1425 c 0
 819 1476 777 1517 726 1517 c 0
 675 1517 635 1476 635 1425 c 0
525 1425 m 0
 525 1537 613 1627 725 1627 c 0
 837 1627 929 1537 929 1425 c 0
 929 1313 837 1223 725 1223 c 0
 613 1223 525 1313 525 1425 c 0
EndSplineSet
Validated: 3073
EndChar

StartChar: cedilla
Encoding: 184 184 203
Width: 1075
VWidth: 1947
GlyphClass: 2
Flags: W
HStem: -486 150<257.838 511.027>
VStem: 388 150<-40.9986 88> 523 150<-321.074 -210.202>
LayerCount: 2
Fore
SplineSet
538 88 m 5xc0
 538 -10 l 5xc0
 523 -67 l 5
 630 -93 673 -174 673 -256 c 7
 673 -304 657 -353 630 -390 c 5
 573 -469 473 -486 379 -486 c 7
 280 -486 195 -444 139 -384 c 5
 249 -283 l 5
 277 -313 322 -336 379 -336 c 7
 490 -336 523 -309 523 -238 c 7xa0
 523 -223 511 -207 426 -207 c 6
 327 -207 l 5
 388 10 l 5
 388 88 l 5
 538 88 l 5xc0
EndSplineSet
Validated: 3073
EndChar

StartChar: ogonek
Encoding: 731 731 204
Width: 1075
VWidth: 1947
GlyphClass: 2
Flags: W
HStem: -420 150<359.369 492.884>
VStem: 209 150<-267.792 -172.702>
DStem2: 294 -69 390 -183 0.772961 0.634454<-59.5779 172.594>
LayerCount: 2
Fore
SplineSet
523 -374 m 2
 486 -402 453 -420 387 -420 c 3
 288 -420 209 -341 209 -243 c 27
 209 -167 219 -131 294 -69 c 2
 427 41 l 1
 437 87 l 1
 583 57 l 1
 563 -41 l 1
 390 -183 l 2
 371 -199 359 -224 359 -243 c 3
 359 -258 367 -270 387 -270 c 3
 401 -270 418 -265 433 -254 c 2
 465 -230 l 1
 555 -350 l 1
 523 -374 l 2
EndSplineSet
Validated: 3073
EndChar

StartChar: caron
Encoding: 711 711 205
Width: 1075
VWidth: 1947
GlyphClass: 2
Flags: W
HStem: 1422 242
VStem: 518 487
DStem2: 743 1552 818 1422 0.853846 0.520526<0 215.379>
LayerCount: 2
Fore
SplineSet
743 1552 m 1
 927 1664 l 1
 1005 1536 l 1
 818 1422 l 1
 664 1422 l 1
 518 1542 l 1
 614 1658 l 1
 743 1552 l 1
EndSplineSet
Validated: 3073
EndChar

StartChar: dotlessi
Encoding: 305 305 206
Width: 1075
VWidth: 1947
GlyphClass: 2
Flags: W
HStem: 0 150<134 383 536 747> 874 150<316 531>
VStem: 102 677
DStem2: 351.117 0 504.117 0 0.207912 0.978148<185.162 892.301>
LayerCount: 2
Fore
SplineSet
747 0 m 1
 102 0 l 1
 134 150 l 1
 383 150 l 1
 531 874 l 1
 285 874 l 1
 316 1024 l 1
 715 1024 l 1
 536 150 l 1
 779 150 l 1
 747 0 l 1
EndSplineSet
Validated: 3073
EndChar

StartChar: currency
Encoding: 164 164 210
Width: 1075
VWidth: 1947
GlyphClass: 2
Flags: W
HStem: 416 150<412.956 664.766> 1003 150<414.436 660.299>
VStem: 173 150<654.116 910.687> 753 150<653.905 911.968>
DStem2: 57 478 159 369 0.730579 0.682828<0.0907211 205.23> 825 558 710 460 0.569951 -0.821679<7.7858 210.545> 773 1062 866 943 0.730579 0.682828<-6.62524 196.02>
LayerCount: 2
Fore
SplineSet
547 1003 m 2
 529 1003 l 2
 426 1003 323 891 323 798 c 2
 323 770 l 2
 323 668 428 566 529 566 c 2
 547 566 l 2
 648 566 753 666 753 770 c 2
 753 798 l 2
 753 891 650 1003 547 1003 c 2
903 798 m 2
 903 770 l 2
 903 692 873 618 825 558 c 1
 945 385 l 1
 822 299 l 1
 710 460 l 1
 660 432 604 416 547 416 c 2
 529 416 l 2
 447 416 367 450 304 504 c 1
 159 369 l 1
 57 478 l 1
 210 621 l 1
 186 667 173 718 173 770 c 2
 173 798 l 2
 173 872 203 946 251 1007 c 1
 131 1179 l 1
 254 1265 l 1
 365 1106 l 1
 415 1135 471 1153 529 1153 c 2
 547 1153 l 2
 630 1153 710 1117 773 1062 c 1
 917 1195 l 1
 1019 1086 l 1
 866 943 l 1
 889 897 903 848 903 798 c 2
EndSplineSet
Validated: 3073
EndChar

StartChar: brokenbar
Encoding: 166 166 211
Width: 1075
VWidth: 1947
GlyphClass: 2
Flags: W
VStem: 331 153<-75 78> 475 154<446 600> 525 153<833 986> 663 153<1323 1476>
DStem2: 331 -75 484 -75 0.207912 0.978148<31.8105 690.189 960.303 1586.13>
LayerCount: 2
Fore
SplineSet
525 833 m 1x20
 663 1476 l 1
 816 1476 l 1x10
 678 833 l 1
 525 833 l 1x20
331 -75 m 1x80
 475 600 l 1
 629 600 l 1x40
 484 -75 l 1
 331 -75 l 1x80
EndSplineSet
Validated: 3073
EndChar

StartChar: onequarter
Encoding: 188 188 212
Width: 1075
VWidth: 1708
GlyphClass: 2
Flags: W
HStem: -35 150<643 708 893 909>
VStem: 239 154<808 962> 672 153<-209 -56>
DStem2: 22.83 -209 176.83 -209 0.207912 0.978148<1071.74 1608.04> 36 16 162 -66 0.546814 0.837254<0.243668 1731.85> 672 -209 825 -209 0.207912 0.978148<31.8105 177.683 362.868 479.127>
LayerCount: 2
Fore
SplineSet
983 1466 m 5
 1109 1384 l 5
 162 -66 l 5
 36 16 l 5
 983 1466 l 5
770 260 m 5
 643 115 l 5
 739 115 l 5
 770 260 l 5
239 808 m 1
 352 1365 l 1
 219 1295 l 1
 178 1351 l 1
 443 1555 l 1
 544 1555 l 1
 393 808 l 1
 239 808 l 1
475 151 m 5
 844 574 l 5
 988 574 l 5
 893 115 l 5
 940 115 l 5
 909 -35 l 5
 862 -35 l 5
 825 -209 l 5
 672 -209 l 5
 708 -35 l 5
 436 -35 l 5
 475 151 l 5
EndSplineSet
Validated: 3073
EndChar

StartChar: onehalf
Encoding: 189 189 213
Width: 1075
VWidth: 1708
GlyphClass: 2
Flags: W
HStem: -285 150<594 855> 398 150<667.682 850.856>
VStem: 239 154<808 962> 852 150<317 396.406>
DStem2: -24 16 102 -66 0.546814 0.837254<0.243668 1731.85> 6.67569 -285 160.676 -285 0.207912 0.978148<1149.44 1685.74> 529 9 625 -107 0.771669 0.636024<-39.4273 446.974>
LayerCount: 2
Fore
SplineSet
239 808 m 1
 352 1365 l 1
 219 1295 l 1
 178 1351 l 1
 443 1555 l 1
 544 1555 l 1
 393 808 l 1
 239 808 l 1
923 1466 m 1
 1049 1384 l 1
 102 -66 l 1
 -24 16 l 1
 923 1466 l 1
771 548 m 2
 783 548 l 2
 963 548 1002 440 1002 368 c 0
 1002 348 1000 330 996 310 c 2
 992 289 l 2
 981 230 927 147 881 104 c 1
 625 -107 l 2
 614 -116 604 -125 594 -135 c 1
 886 -135 l 1
 855 -285 l 1
 374 -285 l 1
 403 -142 l 1
 438 -73 499 -16 529 9 c 2
 783 216 l 1
 815 245 841 300 844 317 c 2
 848 340 l 2
 850 351 852 361 852 368 c 0
 852 383 852 398 783 398 c 2
 771 398 l 2
 707 398 680 377 645 328 c 1
 523 416 l 1
 581 497 651 548 771 548 c 2
EndSplineSet
Validated: 3073
EndChar

StartChar: threequarters
Encoding: 190 190 214
Width: 1075
VWidth: 1708
GlyphClass: 2
Flags: W
HStem: -35 150<643 708 893 909> 789 150<250.012 474.026> 1179 150<314 490.988> 1400 21G<314.476 356.5> 1463 150<360.952 537.611>
VStem: 499 150<960.855 1174.11> 541 150<1352.49 1460.78> 672 153<-209 -56>
DStem2: 106 16 232 -66 0.546814 0.837254<0.243668 1731.85> 672 -209 825 -209 0.207912 0.978148<31.8105 177.683 362.868 479.127>
LayerCount: 2
Fore
SplineSet
421 1329 m 2xfc
 472 1329 541 1360 541 1429 c 3
 541 1439 534 1463 476 1463 c 2
 463 1463 l 2
 415 1463 369 1437 344 1400 c 1
 220 1484 l 1
 272 1561 365 1613 463 1613 c 2
 476 1613 l 2
 564 1613 691 1568 691 1429 c 3xfa
 691 1355 661 1291 602 1243 c 1
 623 1213 649 1157 649 1085 c 3
 649 1065 647 1046 642 1024 c 2
 637 998 l 2
 608 882 568 789 360 789 c 2
 347 789 l 2
 149 797 103 889 100 962 c 1
 250 968 l 1
 250 961 266 942 347 939 c 2
 360 939 l 2
 458 939 474 961 491 1028 c 2
 496 1052 l 2
 498 1062 499 1074 499 1087 c 3
 499 1129 484 1179 429 1179 c 2
 314 1179 l 1
 314 1329 l 1
 421 1329 l 2xfc
1053 1466 m 1
 1179 1384 l 1
 232 -66 l 1
 106 16 l 1
 1053 1466 l 1
770 260 m 1
 643 115 l 1
 739 115 l 1
 770 260 l 1
475 151 m 1
 844 574 l 1
 988 574 l 1
 893 115 l 1
 940 115 l 1
 909 -35 l 1
 862 -35 l 1
 825 -209 l 1
 672 -209 l 1xf9
 708 -35 l 1
 436 -35 l 1
 475 151 l 1
EndSplineSet
Validated: 3073
EndChar

StartChar: Lslash
Encoding: 321 321 216
Width: 1075
VWidth: 1947
GlyphClass: 2
Flags: W
HStem: 0 151<213 851> 1380 20G<318.753 476>
VStem: 323 153<1247 1400>
DStem2: 25 584 67 440 0.959345 0.282236<0 58.1718 310.439 772.053> 29 0 180.904 0 0.207912 0.978148<185.956 466.557 717.463 1430.53>
LayerCount: 2
Fore
SplineSet
851 0 m 1
 29 0 l 1
 123 457 l 1
 67 440 l 1
 25 584 l 1
 158 623 l 1
 323 1400 l 1
 476 1400 l 1
 323 671 l 1
 766 802 l 1
 808 658 l 1
 286 505 l 1
 213 151 l 1
 883 151 l 1
 851 0 l 1
EndSplineSet
Validated: 3073
EndChar

StartChar: lslash
Encoding: 322 322 257
Width: 1075
VWidth: 1947
GlyphClass: 2
Flags: W
HStem: 0 150<135 383 536 747> 1250 150<396 610>
DStem2: 164 584 206 440 0.959345 0.282236<0 262.291 511.963 772.053> 351.117 0 504.117 0 0.207912 0.978148<185.162 524.99 776.251 1276.51>
LayerCount: 2
Fore
SplineSet
364 1250 m 1
 396 1400 l 1
 794 1400 l 1
 655 729 l 1
 905 802 l 1
 947 658 l 1
 621 562 l 1
 536 150 l 1
 779 150 l 1
 747 0 l 1
 103 0 l 1
 135 150 l 1
 383 150 l 1
 458 514 l 1
 206 440 l 1
 164 584 l 1
 492 681 l 1
 610 1250 l 1
 364 1250 l 1
EndSplineSet
Validated: 3073
EndChar

StartChar: dotlessj
Encoding: 567 567 260
Width: 1075
VWidth: 1947
GlyphClass: 2
Flags: W
HStem: -369 150<291.279 517.726> 874 150<416 761>
VStem: 130 150<-199.943 -149>
DStem2: 502.547 -369 655.349 -369 0.207912 0.978148<176.794 1269.57>
LayerCount: 2
Fore
SplineSet
280 -143 m 1
 289 -213 360 -219 383 -219 c 0
 525 -219 553 -130 561 -94 c 2
 761 874 l 1
 384 874 l 1
 416 1024 l 1
 945 1024 l 1
 707 -126 l 2
 674 -281 548 -369 383 -369 c 0
 321 -369 153 -346 130 -149 c 1
 280 -143 l 1
EndSplineSet
Validated: 3073
EndChar

StartChar: eng
Encoding: 331 331 261
Width: 1075
VWidth: 2334
GlyphClass: 2
Flags: W
HStem: -369 150<290.108 568.235> 0 21G<28 184.177> 899 150<497.537 812.437> 1004 20G<235.859 393>
VStem: 28 152<0 152> 832 150<667.895 875.176>
DStem2: -50.4334 -369 101.567 -369 0.207912 0.978148<408.846 1178.42 1381.42 1422.94> 594.33 -369 746.707 -369 0.207912 0.978148<212.496 1187.42>
LayerCount: 2
Fore
SplineSet
832 795 m 3xec
 832 857 803 899 639 899 c 2
 618 899 l 2xec
 486 899 327 703 303 589 c 2
 180 0 l 1
 28 0 l 1
 240 1024 l 1
 393 1024 l 1xdc
 379 952 l 1
 450 1010 533 1049 618 1049 c 2
 639 1049 l 2
 967 1049 982 879 982 808 c 2
 982 795 l 2
 982 765 979 735 973 704 c 2
 816 -43 l 2
 780 -212 638 -369 440 -369 c 2
 381 -369 l 2
 227 -369 169 -276 166 -271 c 1
 290 -185 l 1
 292 -192 314 -219 381 -219 c 2
 440 -219 l 2
 552 -219 646 -128 670 -13 c 2
 825 734 l 2
 831 765 832 783 832 795 c 3xec
EndSplineSet
Validated: 3073
EndChar

StartChar: ellipsis
Encoding: 8230 8230 266
Width: 1075
VWidth: 1947
GlyphClass: 2
Flags: W
HStem: 27 171<128.457 269.76 484.422 624.76 839.674 980.76>
VStem: 118 162<36.6866 188.154> 474 162<37.0584 187.782> 829 163<37.0584 187.782>
LayerCount: 2
Fore
SplineSet
636 113 m 0
 636 69 601 27 554 27 c 0
 509 27 474 67 474 113 c 0
 474 157 508 198 554 198 c 0
 602 198 636 155 636 113 c 0
280 113 m 0
 280 69 246 27 199 27 c 0
 153 27 118 67 118 113 c 0
 118 157 152 198 199 198 c 0
 246 198 280 155 280 113 c 0
992 113 m 0
 992 69 957 27 910 27 c 0
 865 27 829 67 829 113 c 0
 829 157 864 198 910 198 c 0
 958 198 992 155 992 113 c 0
EndSplineSet
Validated: 3073
EndChar

StartChar: uparrow
Encoding: 8593 8593 267
Width: 1075
VWidth: 1708
GlyphClass: 2
Flags: W
VStem: 458 160<177 794>
DStem2: 121 676 235 564 0.696298 0.717753<0 319.347> 598 1044 618 794 0.696298 -0.717753<193.364 512.711>
LayerCount: 2
Fore
SplineSet
618 177 m 1
 458 177 l 1
 458 794 l 1
 235 564 l 1
 121 676 l 1
 478 1044 l 1
 598 1044 l 1
 955 676 l 1
 841 564 l 1
 618 794 l 1
 618 177 l 1
EndSplineSet
Validated: 3073
EndChar

StartChar: downarrow
Encoding: 8595 8595 268
Width: 1075
VWidth: 1708
GlyphClass: 2
Flags: W
VStem: 458 160<387 991>
DStem2: 238 633 118 527 0.6662 -0.745773<0 330.024> 618 387 598 124 0.6662 0.745773<0 330.024>
LayerCount: 2
Fore
SplineSet
458 991 m 1
 618 991 l 1
 618 387 l 1
 838 633 l 1
 958 527 l 1
 598 124 l 1
 478 124 l 1
 118 527 l 1
 238 633 l 1
 458 387 l 1
 458 991 l 1
EndSplineSet
Validated: 3073
EndChar

StartChar: spaceopenbox
Encoding: 9251 9251 269
Width: 1075
VWidth: 1947
GlyphClass: 2
Flags: W
HStem: -167 323<26 143 661 746> -167 150<143 624>
VStem: 26 154<2 156> 661 153<3 156>
LayerCount: 2
Fore
SplineSet
661 156 m 1xb0
 814 156 l 1
 746 -167 l 1xb0
 -43 -167 l 1x70
 26 156 l 1
 180 156 l 1xb0
 143 -17 l 1
 624 -17 l 1x70
 661 156 l 1xb0
EndSplineSet
Validated: 3073
EndChar

StartChar: foursuperior
Encoding: 8308 8308 271
Width: 1075
VWidth: 1947
GlyphClass: 2
Flags: W
HStem: 764 150<466 673 857 968> 1405 20G<773.482 961>
VStem: 629 153<544 697>
DStem2: 214 885 466 914 0.732479 0.68079<204.328 606.213> 629 544 782 544 0.207912 0.978148<31.8105 224.341 409.318 657.164>
LayerCount: 2
Fore
SplineSet
760 1188 m 1
 466 914 l 1
 704 914 l 1
 760 1188 l 1
214 885 m 1
 795 1425 l 1
 961 1425 l 1
 857 914 l 1
 999 914 l 1
 968 764 l 1
 827 764 l 1
 782 544 l 1
 629 544 l 1
 673 764 l 1
 189 764 l 1
 214 885 l 1
EndSplineSet
Validated: 3073
EndChar

StartChar: Eng
Encoding: 330 330 273
Width: 1075
VWidth: 2334
GlyphClass: 2
Flags: W
HStem: -369 150<290.154 568.235> 0 21G<27 183.185> 1275 150<582.116 883.807> 1380 20G<314.829 472>
VStem: 27 152<0 152> 910 150<927.781 1247.09>
DStem2: -51.4334 -369 100.567 -369 0.207912 0.978148<408.846 1553.7 1760.53 1807.36> 594.33 -369 746.707 -369 0.207912 0.978148<212.496 1625.99>
LayerCount: 2
Fore
SplineSet
290 -185 m 1xec
 293 -194 314 -219 381 -219 c 2
 440 -219 l 2
 552 -219 646 -128 670 -13 c 2
 897 1079 l 2
 903 1108 910 1157 910 1177 c 2
 910 1185 l 2
 910 1264 790 1275 717 1275 c 2
 696 1275 l 2xec
 566 1275 402 1066 378 951 c 2
 179 0 l 1
 27 0 l 1
 319 1400 l 1
 472 1400 l 1xdc
 456 1323 l 1
 528 1383 610 1425 696 1425 c 2
 717 1425 l 2
 1006 1425 1060 1294 1060 1184 c 2
 1060 1177 l 2
 1060 1136 1048 1071 1043 1047 c 2
 816 -43 l 2
 780 -212 638 -369 440 -369 c 2
 381 -369 l 2
 227 -369 169 -279 166 -271 c 1
 290 -185 l 1xec
EndSplineSet
Validated: 3073
EndChar

StartChar: dcroat
Encoding: 273 273 274
Width: 1075
VWidth: 1947
GlyphClass: 2
Flags: W
HStem: -25 150<318.458 604.535> 899 150<467.035 784.021> 1205 150<666 923 1108 1157> 1380 20G<960 1117>
VStem: 107 150<187.625 466.715>
DStem2: 20.5235 -25 173.325 -25 0.207912 0.978148<393.69 874.689> 667 -25 820 -25 0.207912 0.978148<31.8105 65.3043 256.095 790.11 1024.54 1256.35 1441.53 1455.61>
LayerCount: 2
Fore
SplineSet
427 -25 m 2
 235 -25 107 128 107 326 c 0
 107 363 111 402 120 443 c 2
 155 612 l 2
 208 864 368 1049 618 1049 c 2
 639 1049 l 2
 750 1049 826 1021 876 978 c 1
 923 1205 l 1
 634 1205 l 1
 666 1355 l 1
 955 1355 l 1
 964 1400 l 1
 1117 1400 l 1
 1108 1355 l 1
 1189 1355 l 1
 1157 1205 l 1
 1076 1205 l 1
 820 -25 l 1
 667 -25 l 1
 680 39 l 1
 614 -2 537 -25 448 -25 c 2
 427 -25 l 2
818 752 m 0
 818 869 747 899 639 899 c 2
 618 899 l 2
 428 899 335 745 301 582 c 2
 266 411 l 2
 259 380 257 352 257 326 c 0
 257 208 321 125 427 125 c 2
 448 125 l 2
 629 125 726 263 759 419 c 2
 800 612 l 2
 811 667 818 724 818 752 c 0
EndSplineSet
EndChar

StartChar: bullet
Encoding: 8226 8226 280
Width: 1075
VWidth: 1947
GlyphClass: 2
Flags: W
HStem: 496 343<447.721 658.903>
VStem: 390 329<556.864 780.967>
LayerCount: 2
Fore
SplineSet
719 669 m 3
 719 584 645 496 554 496 c 3
 462 496 390 576 390 669 c 3
 390 757 466 839 554 839 c 3
 642 839 719 757 719 669 c 3
EndSplineSet
Validated: 3073
EndChar

StartChar: florin
Encoding: 402 402 281
Width: 1075
VWidth: 1947
GlyphClass: 2
Flags: W
HStem: -386 150<-9.4903 227.533> 752 150<274 517 712 958> 1275 150<828.83 1089.73>
DStem2: 293 -107 437 -147 0.253475 0.967342<-99.8446 887.725 1082.25 1447.4>
LayerCount: 2
Fore
SplineSet
1053 1246 m 1
 1039 1267 1004 1275 954 1275 c 0
 863 1275 795 1220 780 1162 c 2
 712 902 l 1
 958 902 l 1
 958 752 l 1
 672 752 l 1
 437 -147 l 1
 402 -270 260 -386 114 -386 c 1
 69 -383 -58 -372 -117 -253 c 1
 17 -187 l 1
 25 -203 48 -232 114 -236 c 1
 194 -236 277 -163 293 -107 c 1
 517 752 l 1
 274 752 l 1
 274 902 l 1
 557 902 l 1
 634 1200 l 2
 671 1340 811 1425 954 1425 c 0
 1127 1425 1165 1347 1187 1314 c 1
 1053 1246 l 1
EndSplineSet
Validated: 3073
EndChar

StartChar: dagger
Encoding: 8224 8224 282
Width: 1075
VWidth: 1947
GlyphClass: 2
Flags: W
HStem: 875 149<210 531 715 1037> 1405 20G<640.86 798>
VStem: 269 152<-387 -235> 645 153<1272 1425>
DStem2: 269 -387 421 -387 0.207912 0.978148<31.6026 1288.9 1472.89 1850.58>
LayerCount: 2
Fore
SplineSet
210 1024 m 1
 562 1024 l 1
 645 1425 l 1
 798 1425 l 1
 715 1024 l 1
 1068 1024 l 1
 1037 875 l 1
 684 875 l 1
 421 -387 l 1
 269 -387 l 1
 531 875 l 1
 179 875 l 1
 210 1024 l 1
EndSplineSet
Validated: 3073
EndChar

StartChar: daggerdbl
Encoding: 8225 8225 283
Width: 1075
VWidth: 1947
GlyphClass: 2
Flags: W
HStem: 14 150<31 352 537 857> 875 149<210 531 716 1037> 1405 20G<641.81 798>
VStem: 269 153<-387 -234> 646 152<1273 1425>
DStem2: 269 -387 422 -387 0.207912 0.978148<31.8105 409.494 594.68 1288.9 1473.1 1850.79>
LayerCount: 2
Fore
SplineSet
210 1024 m 1
 562 1024 l 1
 646 1425 l 1
 798 1425 l 1
 716 1024 l 1
 1068 1024 l 1
 1037 875 l 1
 684 875 l 1
 537 164 l 1
 889 164 l 1
 857 14 l 1
 506 14 l 1
 422 -387 l 1
 269 -387 l 1
 352 14 l 1
 0 14 l 1
 31 164 l 1
 384 164 l 1
 531 875 l 1
 179 875 l 1
 210 1024 l 1
EndSplineSet
Validated: 3073
EndChar

StartChar: trademark
Encoding: 8482 8482 284
Width: 1075
VWidth: 1947
GlyphClass: 2
Flags: W
HStem: 1233 150<295 386 540 638> 1380 20G<670 826.14 1006.33 1172>
VStem: 223 154<466 620> 474 154<466 620> 819 154<466 620>
DStem2: 223 466 377 466 0.207912 0.978148<32.0184 784.129> 474 466 628 466 0.207912 0.978148<32.0184 286.596>
LayerCount: 2
Fore
SplineSet
223 466 m 1xb8
 386 1233 l 1
 263 1233 l 1
 295 1383 l 1
 670 1383 l 1xb8
 674 1400 l 1
 826 1400 l 1
 829 971 l 1
 1015 1400 l 1
 1172 1400 l 1x78
 1172 1395 1171 1390 1170 1385 c 2
 973 466 l 1
 819 466 l 1
 864 675 l 1
 797 519 l 1
 683 519 l 1
 681 715 l 1
 628 466 l 1
 474 466 l 1
 638 1233 l 1
 540 1233 l 1
 377 466 l 1
 223 466 l 1xb8
EndSplineSet
Validated: 3073
EndChar

StartChar: Ecyrillic
Encoding: 1028 1028 290
Width: 1075
VWidth: 1947
GlyphClass: 2
Flags: W
HStem: -25 150<327.291 571.801> 681 150<345 694> 1275 150<562.937 819.734>
VStem: 123 150<182.036 676.706> 870 150<1086.85 1220.1>
LayerCount: 2
Fore
SplineSet
438 -25 m 3
 307 -25 123 44 123 373 c 3
 123 438 127 539 161 698 c 2
 182 795 l 2
 250 1098 375 1425 707 1425 c 3
 837 1425 998 1360 1020 1088 c 1
 870 1076 l 1
 856 1255 773 1275 707 1275 c 3
 564 1275 437 1190 345 831 c 1
 694 830 l 1
 694 681 l 1
 312 681 l 1
 296 605 273 465 273 373 c 3
 273 156 364 125 438 125 c 3
 556 125 645 212 715 348 c 1
 849 280 l 1
 745 76 602 -25 438 -25 c 3
EndSplineSet
Validated: 3073
EndChar

StartChar: Becyrillic
Encoding: 1041 1041 298
Width: 1075
VWidth: 2334
GlyphClass: 2
Flags: W
HStem: -25 150<207 639.754> 712 150<360 738.781> 1250 150<440 1010>
VStem: 782 150<440.949 671.685>
DStem2: 23 -25 175.117 -25 0.207912 0.978148<184.978 784.516 937.683 1333.84> 665.18 -25 817.557 -25 0.207912 0.978148<207.791 597.633>
LayerCount: 2
Fore
SplineSet
600 862 m 2
 806 862 932 744 932 562 c 3
 932 532 929 502 922 470 c 2
 886 297 l 2
 843 90 711 -25 448 -25 c 2
 23 -25 l 1
 318 1400 l 1
 1041 1400 l 1
 1010 1250 l 1
 440 1250 l 1
 360 862 l 1
 600 862 l 2
329 712 m 1
 207 125 l 1
 448 125 l 2
 659 125 715 209 740 327 c 2
 776 500 l 2
 781 523 782 544 782 562 c 3
 782 682 692 712 600 712 c 2
 329 712 l 1
EndSplineSet
Validated: 3073
EndChar

StartChar: Gecyrillic
Encoding: 1043 1043 299
Width: 1075
VWidth: 2334
GlyphClass: 2
Flags: W
HStem: 0 21G<27 184.163> 1249 151<440 1115>
VStem: 27 153<0 153>
DStem2: 27 0 180 0 0.207912 0.978148<31.8105 1307.57>
LayerCount: 2
Fore
SplineSet
180 0 m 1
 27 0 l 1
 318 1400 l 1
 1144 1400 l 1
 1115 1249 l 1
 440 1249 l 1
 180 0 l 1
EndSplineSet
Validated: 3073
EndChar

StartChar: Decyrillic
Encoding: 1044 1044 300
Width: 1075
VWidth: 1947
GlyphClass: 2
Flags: W
HStem: 0 151<101 105 266 682> 1250 150<806.485 909>
VStem: -41 107<-162 -95.6448>
DStem2: 105 151 266 151 0.3649 0.931047<58.7488 1094.35> 615.47 -162 768.47 -162 0.207912 0.978148<351.803 1442.17>
LayerCount: 2
Fore
SplineSet
435 993 m 1
 481 1114 652 1336 853 1400 c 1
 1093 1400 l 1
 835 151 l 1
 939 151 l 1
 898 -43 l 1
 834 -162 l 1
 721 -162 l 1
 755 0 l 1
 101 0 l 1
 66 -162 l 1
 -41 -162 l 1
 -59 -33 l 1
 -21 151 l 1
 105 151 l 1
 435 993 l 1
266 151 m 1
 682 151 l 1
 909 1250 l 1
 878 1250 l 1
 760 1206 614 1038 575 939 c 2
 266 151 l 1
EndSplineSet
Validated: 3073
EndChar

StartChar: Zhecyrillic
Encoding: 1046 1046 302
Width: 1075
VWidth: 1947
GlyphClass: 2
Flags: W
HStem: 0 21G<-60 121.972 350 507.194 748.505 902> 1380 20G<247 400.531 1019.15 1201>
VStem: -60 171<0 171> 247 151<1249 1400> 350 153<0 153> 631 152<1198 1350> 751 151<0 151> 1030 171<1229 1400>
DStem2: -60 0 111 0 0.481167 0.876629<82.2795 610.375> 398 1400 247 1400 0.125381 -0.992109<0 670.453> 350 0 503 0 0.207912 0.978148<31.8105 225.735 742.748 1378.92> 648 696 816 691 0.477403 0.878685<75.8103 800.962> 816 691 693 465 0.123504 -0.992344<209.079 677.682>
LayerCount: 2
Fore
SplineSet
-60 0 m 1xeb
 333 716 l 1
 247 1400 l 1
 398 1400 l 1
 490 673 l 1
 631 1350 l 1
 783 1350 l 1xf5
 648 696 l 1
 1030 1400 l 1
 1201 1400 l 1
 816 691 l 1
 902 0 l 1
 751 0 l 1
 693 465 l 1
 542 186 l 1
 503 0 l 1
 350 0 l 1
 396 221 l 1
 365 463 l 1
 111 0 l 1
 -60 0 l 1xeb
EndSplineSet
Validated: 3073
EndChar

StartChar: Zecyrillic
Encoding: 1047 1047 303
Width: 1075
VWidth: 1947
GlyphClass: 2
Flags: W
HStem: -25 150<255.816 612.795> 734 150<420 722.703> 1275 150<506.196 836.046>
VStem: 64 150<163.553 321.084> 774 150<320.478 682.372> 857 150<988.662 1251.22>
DStem2: 610.265 -25 762.642 -25 0.207912 0.978148<987.237 1217.34> 664.688 -25 817.915 -25 0.207912 0.978148<245.022 571.068>
LayerCount: 2
Fore
SplineSet
774 537 m 3xf8
 774 621 744 734 605 734 c 2
 391 734 l 17
 420 884 l 9
 588 886 l 2
 707 887 821 963 836 1037 c 2
 845 1079 l 2
 851 1106 857 1149 857 1168 c 3
 857 1214 836 1275 717 1275 c 2
 673 1275 l 2
 575 1275 466 1232 412 1149 c 1
 286 1231 l 1
 373 1365 535 1425 673 1425 c 2
 717 1425 l 2
 908 1425 1007 1308 1007 1167 c 3xf4
 1007 1131 996 1071 991 1047 c 2
 982 1007 l 2
 966 927 907 853 824 803 c 1
 887 742 924 646 924 537 c 3
 924 495 919 448 909 400 c 2
 904 380 l 2
 851 122 690 -25 448 -25 c 2
 404 -25 l 2
 197 -25 64 95 64 244 c 3
 64 269 71 323 78 354 c 1
 224 320 l 1
 221 305 214 263 214 246 c 3
 214 150 328 125 404 125 c 2
 448 125 l 2
 622 125 721 231 758 414 c 2
 763 434 l 2
 771 474 774 507 774 537 c 3xf8
EndSplineSet
Validated: 3073
EndChar

StartChar: Iicyrillic
Encoding: 1048 1048 304
Width: 1075
VWidth: 1947
GlyphClass: 2
Flags: W
HStem: 0 21G<29 186.059 672 828.171> 1380 20G<315.843 472 957.955 1116>
VStem: 320 152<1248 1400> 672 152<0 152>
DStem2: 29 0 179.315 0 0.207912 0.978148<428.943 1429.91> 262 389 172 0 0.574711 0.818356<0 864.52> 672 0 824 0 0.207912 0.978148<31.6026 1031.59>
LayerCount: 2
Fore
SplineSet
29 0 m 1
 320 1400 l 1
 472 1400 l 1
 262 389 l 1
 972 1400 l 1
 1116 1400 l 1
 824 0 l 1
 672 0 l 1
 882 1010 l 1
 172 0 l 1
 29 0 l 1
EndSplineSet
Validated: 3073
EndChar

StartChar: Elcyrillic
Encoding: 1051 1051 307
Width: 1075
VWidth: 1947
GlyphClass: 2
Flags: W
HStem: 0 21G<-20 152.932 672 829.157> 1250 150<793.84 932>
VStem: -20 164<0 164> 672 153<0 153>
DStem2: -20 0 144 0 0.407159 0.913357<66.7741 1310.85> 672 0 825 0 0.207912 0.978148<31.8105 1276.74>
LayerCount: 2
Fore
SplineSet
424 996 m 2
 480 1122 637 1331 853 1400 c 1
 1116 1400 l 1
 825 0 l 1
 672 0 l 1
 932 1250 l 1
 877 1250 l 1
 761 1208 621 1068 562 936 c 2
 144 0 l 1
 -20 0 l 1
 424 996 l 2
EndSplineSet
Validated: 3073
EndChar

StartChar: Pecyrillic
Encoding: 1055 1055 311
Width: 1075
VWidth: 1947
GlyphClass: 2
Flags: W
HStem: 0 21G<27 183.176 672 828.171> 1250 150<440 932>
VStem: 27 152<0 152> 318 798<602 1400> 672 152<0 152>
DStem2: 27 0 179 0 0.207912 0.978148<31.6026 1308.55> 672 0 824 0 0.207912 0.978148<31.6026 1276.74>
LayerCount: 2
Fore
SplineSet
179 0 m 1xe8
 27 0 l 1
 318 1400 l 1
 1116 1400 l 1xf0
 824 0 l 1
 672 -0 l 1
 932 1250 l 1
 440 1250 l 1
 179 0 l 1xe8
EndSplineSet
Validated: 3073
EndChar

StartChar: Ucyrillic
Encoding: 1059 1059 315
Width: 1075
VWidth: 1947
GlyphClass: 2
Flags: W
HStem: -25 150<146.484 368.932> 1380 20G<308 465.649 971.344 1149>
VStem: 308 153<1247 1400> 981 168<1232 1400>
DStem2: 461 1400 308 1400 0.225237 -0.974304<0 746.384> 425 248 559 180 0.435368 0.900253<-141.178 232.125 471.858 1279.16>
LayerCount: 2
Fore
SplineSet
559 180 m 2
 475 6 348 -24 251 -25 c 2
 219 -25 l 2
 187 -25 154 -21 127 -10 c 2
 94 3 l 1
 146 143 l 1
 177 132 l 2
 191 127 205 125 219 125 c 2
 251 125 l 2
 315 126 374 142 425 248 c 2
 526 457 l 1
 308 1400 l 1
 461 1400 l 1
 630 673 l 1
 981 1400 l 1
 1149 1400 l 1
 559 180 l 2
EndSplineSet
Validated: 3073
EndChar

StartChar: Efcyrillic
Encoding: 1060 1060 316
Width: 1075
VWidth: 1947
GlyphClass: 2
Flags: W
HStem: -24 21G<345 502.112> 83 158<295.906 368 553 653.1> 1171 156<486.951 593 778 854.616> 1405 20G<642.714 799>
VStem: 80 150<305.965 781.997> 923 150<658.921 1102.19>
DStem2: -49.4658 -24 102.911 -24 0.207912 0.978148<560.556 1100.1> 345 -24 498 -24 0.207912 0.978148<31.8105 114.335 302.455 1220.45 1407.59 1480.13> 733.399 -24 886.201 -24 0.207912 0.978148<438.436 973.623>
LayerCount: 2
Fore
SplineSet
748 1176 m 1
 553 241 l 1
 742 287 839 473 879 661 c 2
 908 796 l 2
 918 845 923 892 923 933 c 3
 923 1099 847 1160 748 1176 c 1
398 235 m 1
 593 1171 l 1
 471 1145 331 1055 270 764 c 2
 250 668 l 2
 237 607 230 544 230 487 c 3
 230 321 293 252 398 235 c 1
498 -24 m 1
 345 -24 l 1
 368 88 l 1
 160 125 80 290 80 487 c 3
 80 558 90 630 104 698 c 2
 124 794 l 2
 215 1228 473 1312 626 1327 c 1
 647 1425 l 1
 799 1425 l 1
 778 1323 l 1
 973 1289 1073 1141 1073 933 c 3
 1073 879 1066 824 1054 766 c 2
 1025 629 l 2
 964 342 797 112 520 83 c 1
 498 -24 l 1
EndSplineSet
Validated: 3073
EndChar

StartChar: Tsecyrillic
Encoding: 1062 1062 318
Width: 1075
VWidth: 1947
GlyphClass: 2
Flags: W
HStem: 0 150<213 624> 1380 20G<314.857 471 878.856 1035>
VStem: 319 152<1248 1400> 883 152<1248 1400>
DStem2: -21.3759 -237 130.741 -237 0.207912 0.978148<427.273 1672> 541.741 -237 694.741 -237 0.207912 0.978148<427.456 1672.18>
LayerCount: 2
Fore
SplineSet
213 150 m 1
 624 150 l 1
 883 1400 l 1
 1035 1400 l 1
 777 150 l 1
 930 150 l 1
 905 30 l 1
 685 -237 l 1
 569 -141 l 1
 686 0 l 1
 29 0 l 1
 319 1400 l 1
 471 1400 l 1
 213 150 l 1
EndSplineSet
Validated: 3073
EndChar

StartChar: Checyrillic
Encoding: 1063 1063 319
Width: 1075
VWidth: 1947
GlyphClass: 2
Flags: W
HStem: 0 21G<672 829.157> 437 150<386.847 763> 1380 20G<314.797 471 959.818 1116>
VStem: 190 150<630.31 979.586> 319 152<1248 1400> 672 153<0 153> 964 152<1248 1400>
DStem2: 22.7906 0 176.878 0 0.207912 0.978148<788.979 1430.99> 672 0 825 0 0.207912 0.978148<31.8105 446.37 599.538 1430.12>
LayerCount: 2
Fore
SplineSet
340 738 m 3xf6
 340 615 436 587 523 587 c 2
 794 587 l 1
 964 1400 l 1
 1116 1400 l 1
 825 0 l 1
 672 0 l 1
 763 437 l 1
 523 437 l 2
 305 437 190 567 190 738 c 3xf6
 190 768 193 798 199 829 c 2
 319 1400 l 1
 471 1400 l 1xee
 355 838 l 2
 347 798 340 763 340 738 c 3xf6
EndSplineSet
Validated: 3073
EndChar

StartChar: Shacyrillic
Encoding: 1064 1064 320
Width: 1075
VWidth: 1947
GlyphClass: 2
Flags: W
HStem: -0 150<155 383 536 763> 1380 20G<255.871 413 1016.87 1174>
VStem: -29 914<0 914> 260 153<1247 1400> 597 152<1032 1184> 1021 153<1247 1400>
DStem2: -29 0 123.117 0 0.207912 0.978148<184.978 1429.49> 351.117 0 504.117 0 0.207912 0.978148<185.162 1209.25> 731.117 0 885 0 0.207912 0.978148<153.351 1429.68>
LayerCount: 2
Fore
SplineSet
536 150 m 1xdc
 763 150 l 1
 1021 1400 l 1
 1174 1400 l 1
 885 0 l 1
 -29 -0 l 1xe4
 260 1400 l 1
 413 1400 l 1
 155 150 l 1
 383 150 l 1
 597 1184 l 1
 749 1184 l 1
 536 150 l 1xdc
EndSplineSet
Validated: 3073
EndChar

StartChar: Shchacyrillic
Encoding: 1065 1065 321
Width: 1075
VWidth: 1947
GlyphClass: 2
Flags: W
HStem: 0 150<155 354 507 705> 1380 20G<253.9 410 955.92 1112>
VStem: 258 152<1248 1400> 563 154<1030 1184> 960 152<1248 1400>
DStem2: -79.5885 -238 72.5281 -238 0.207912 0.978148<428.295 1672.39> 271.528 -238 424.528 -238 0.207912 0.978148<428.479 1451.53> 622.528 -238 775.528 -238 0.207912 0.978148<428.479 1672.37>
LayerCount: 2
Fore
SplineSet
725 0 m 1
 -29 0 l 1
 258 1400 l 1
 410 1400 l 1
 155 150 l 1
 354 150 l 1
 563 1184 l 1
 717 1184 l 1
 507 150 l 1
 705 150 l 1
 960 1400 l 1
 1112 1400 l 1
 858 150 l 1
 967 150 l 1
 941 23 l 1
 719 -238 l 1
 605 -140 l 1
 725 0 l 1
EndSplineSet
Validated: 3073
EndChar

StartChar: Hardsigncyrillic
Encoding: 1066 1066 322
Width: 1075
VWidth: 1947
GlyphClass: 2
Flags: W
HStem: 0 150<386 652.169> 672 150<525 744.942> 1250 150<364 461>
VStem: 255 390<1010 1400> 775 150<406.611 641.859>
DStem2: 202 0 354.117 0 0.207912 0.978148<184.978 718.025 871.193 1276.53> 671.18 0 823.557 0 0.207912 0.978148<201.398 532.285>
LayerCount: 2
Fore
SplineSet
662 822 m 2
 820 822 925 694 925 523 c 3
 925 494 922 463 915 430 c 2
 892 322 l 2
 845 102 691 0 523 0 c 2
 202 0 l 1
 461 1250 l 1
 364 1250 l 1
 205 959 l 1
 162 959 l 1
 255 1400 l 1
 645 1400 l 1
 525 822 l 1
 662 822 l 2
775 523 m 3
 775 613 733 672 662 672 c 2
 494 672 l 1
 386 150 l 1
 523 150 l 2
 571 150 705 162 746 352 c 2
 769 460 l 2
 774 484 775 504 775 523 c 3
EndSplineSet
Validated: 3073
EndChar

StartChar: Yericyrillic
Encoding: 1067 1067 323
Width: 1075
VWidth: 1947
GlyphClass: 2
Flags: W
HStem: 0 150<178 356.754> 722 150<330 451.26> 1380 20G<283.8 440 998.871 1155>
VStem: 288 152<1248 1400> 496 150<328.881 682.835> 714 152<0 152> 1003 152<1248 1400>
DStem2: -6 0 146.117 0 0.207912 0.978148<184.978 769.428 922.803 1430.53> 382.18 0 534.557 0 0.207912 0.978148<207.791 583.27> 714 0 866 0 0.207912 0.978148<31.6026 1429.49>
LayerCount: 2
Fore
SplineSet
298 722 m 1
 178 150 l 1
 378 154 433 237 457 352 c 2
 489 510 l 2
 494 533 496 554 496 573 c 3
 496 692 407 722 314 722 c 2
 298 722 l 1
330 872 m 1
 536 866 646 740 646 573 c 3
 646 543 641 512 635 480 c 2
 603 322 l 2
 560 115 428 0 165 0 c 2
 -6 0 l 1
 288 1400 l 1
 440 1400 l 1
 330 872 l 1
866 0 m 1
 714 0 l 1
 1003 1400 l 1
 1155 1400 l 1
 866 0 l 1
EndSplineSet
Validated: 3073
EndChar

StartChar: Softsigncyrillic
Encoding: 1068 1068 324
Width: 1075
VWidth: 1947
GlyphClass: 2
Flags: W
HStem: 0 150<213 645.583> 672 150<353 732.359> 1380 20G<315.843 472>
VStem: 320 152<1248 1400> 776 150<408.913 632.238>
DStem2: 29 0 181.117 0 0.207912 0.978148<184.978 717.818 871.401 1429.91> 671.18 0 823.557 0 0.207912 0.978148<207.702 533.47>
LayerCount: 2
Fore
SplineSet
592 822 m 2
 801 822 926 703 926 524 c 3
 926 493 922 462 915 429 c 2
 892 322 l 2
 848 115 717 0 454 0 c 2
 29 0 l 1
 320 1400 l 1
 472 1400 l 1
 353 822 l 1
 592 822 l 2
320 672 m 1
 213 150 l 1
 454 150 l 2
 665 150 721 235 746 352 c 2
 769 461 l 2
 774 485 776 505 776 524 c 3
 776 642 686 672 592 672 c 2
 320 672 l 1
EndSplineSet
Validated: 3073
EndChar

StartChar: Ereversedcyrillic
Encoding: 1069 1069 325
Width: 1075
VWidth: 1947
GlyphClass: 2
Flags: W
HStem: -25 150<327.482 572.977> 681 150<527 824> 1041 21G<380.394 456> 1275 150<569.583 816.157>
VStem: 125 150<186.041 309.338> 872 150<831.86 1216.24>
LayerCount: 2
Fore
SplineSet
872 996 m 3
 872 1171 839 1275 707 1275 c 3
 581 1275 491 1184 421 1041 c 1
 287 1107 l 1
 332 1199 455 1425 707 1425 c 3
 969 1425 1022 1204 1022 996 c 3
 1022 938 1018 878 1005 813 c 2
 968 636 l 2
 840 12 544 -25 438 -25 c 3
 313 -25 151 37 125 308 c 1
 275 322 l 1
 292 146 373 125 438 125 c 3
 593 125 741 272 824 681 c 1
 527 681 l 1
 527 831 l 1
 855 830 l 1
 866 885 872 926 872 996 c 3
EndSplineSet
Validated: 3073
EndChar

StartChar: IUcyrillic
Encoding: 1070 1070 326
Width: 1075
VWidth: 1947
GlyphClass: 2
Flags: W
HStem: -25 150<578.823 683.188> 0 21G<-31 126.192> 625 150<284 443> 1275 151<784.82 912.768> 1380 20G<257.814 414>
VStem: -31 153<0 153> 262 152<1248 1400> 408 150<131.779 623.508> 935 150<755.781 1272.09>
DStem2: -36.3139 -25 116.686 -25 0.207912 0.978148<57.369 695.948 849.115 1455.88> 304.838 -25 458.432 -25 0.207912 0.978148<414.781 664.521 817.689 1279.9> 725.055 -25 877.857 -25 0.207912 0.978148<274.866 1097.39>
LayerCount: 2
Fore
SplineSet
408 342 m 3xb580
 408 362 410 467 427 546 c 2
 443 625 l 1
 253 625 l 1
 122 0 l 1
 -31 0 l 1
 262 1400 l 1
 414 1400 l 1x6e80
 284 775 l 1
 474 775 l 1
 503 912 l 2
 580 1261 742 1426 875 1426 c 0
 1033 1426 1085 1220 1085 1042 c 3
 1085 983 1080 927 1070 882 c 2
 992 512 l 2
 915 147 745 -25 611 -25 c 3
 498 -25 408 97 408 342 c 3xb580
880 1275 m 3xb580
 764 1275 698 1120 649 882 c 2
 573 514 l 2
 566 481 558 411 558 342 c 3
 558 187 584 125 621 125 c 3
 691 125 804 346 846 544 c 2
 924 912 l 2
 931 942 935 997 935 1055 c 3
 935 1160 921 1275 880 1275 c 3xb580
EndSplineSet
Validated: 3073
EndChar

StartChar: IAcyrillic
Encoding: 1071 1071 327
Width: 1075
VWidth: 1947
GlyphClass: 2
Flags: W
HStem: 0 21G<-32 167.455 672 828.171> 642 150<617 805> 1250 150<490.329 932>
VStem: -32 185<0 185> 224 150<827.141 1011.36> 672 152<0 152>
DStem2: -32 0 153 0 0.585671 0.810549<108.349 809.328> 22.7816 0 175.583 0 0.207912 0.978148<967.647 1261.04> 672 0 824 0 0.207912 0.978148<31.6026 655.623 808.79 1276.74>
LayerCount: 2
Fore
SplineSet
805 642 m 1
 617 642 l 1
 153 0 l 1
 -32 0 l 1
 442 656 l 1
 295 691 224 792 224 914 c 3
 224 939 227 964 233 989 c 2
 252 1078 l 2
 303 1316 444 1400 692 1400 c 2
 1116 1400 l 1
 824 0 l 1
 672 0 l 1
 805 642 l 1
836 792 m 1
 932 1250 l 1
 692 1250 l 2
 488 1250 428 1190 398 1048 c 2
 379 957 l 2
 376 942 374 927 374 914 c 3
 374 817 470 792 566 792 c 2
 836 792 l 1
EndSplineSet
Validated: 3073
EndChar

StartChar: becyrillic
Encoding: 1073 1073 329
Width: 1075
VWidth: 1947
GlyphClass: 2
Flags: W
HStem: -25 150<318.565 598.564> 1250 150<576 1010>
VStem: 108 150<186.029 590.192> 817 150<476.141 867.953>
DStem2: 20.7361 -25 173.113 -25 0.207912 0.978148<397.721 874.289> 665.736 -25 818.113 -25 0.207912 0.978148<262.324 791.585>
LayerCount: 2
Fore
SplineSet
301 582 m 2
 266 412 l 2
 260 383 258 355 258 330 c 3
 258 205 322 125 427 125 c 2
 448 125 l 2
 638 125 731 278 765 442 c 2
 800 612 l 2
 811 665 817 714 817 754 c 3
 817 843 790 899 639 899 c 2
 618 899 l 2
 428 899 335 745 301 582 c 2
313 1400 m 1
 1041 1400 l 1
 1010 1250 l 1
 576 1250 l 1
 863 1001 l 2
 927 943 967 859 967 754 c 3
 967 698 958 640 946 582 c 2
 911 412 l 2
 858 157 697 -25 448 -25 c 2
 427 -25 l 2
 235 -25 108 125 108 330 c 3
 108 366 112 404 120 442 c 2
 155 612 l 2
 205 850 350 1028 576 1047 c 1
 293 1303 l 1
 313 1400 l 1
EndSplineSet
Validated: 3073
EndChar

StartChar: vecyrillic
Encoding: 1074 1074 330
Width: 1075
VWidth: 2334
GlyphClass: 2
Flags: W
HStem: 0 150<278.688 659.974> 474 150<312 431.06> 1274 150<455.601 755.9>
VStem: 88 152<188.145 467.32> 768 150<250.503 439.199 1029.11 1259.08>
DStem2: 25.494 0 179.871 0 0.207912 0.978148<309.111 516.557 669.932 1325.73> 511.439 0 664.241 0 0.207912 0.978148<926.251 1231.2>
LayerCount: 2
Fore
SplineSet
765 1205 m 3
 765 1268 678 1274 635 1274 c 2
 598 1274 l 2
 465 1274 436 1223 425 1168 c 2
 312 624 l 1
 326 624 l 2
 451 624 708 924 741 1080 c 2
 763 1185 l 2
 765 1198 765 1201 765 1205 c 3
573 474 m 2
 280 474 l 1
 243 297 l 2
 241 288 240 279 240 270 c 3
 240 200 302 150 431 150 c 2
 476 150 l 2
 714 150 768 302 768 369 c 3
 768 394 744 474 573 474 c 2
918 369 m 3
 918 221 800 0 476 0 c 2
 431 0 l 2
 197 0 88 118 88 262 c 3
 88 283 90 305 95 327 c 2
 279 1200 l 2
 299 1297 354 1424 598 1424 c 2
 635 1424 l 2
 870 1424 915 1293 915 1205 c 3
 915 1189 913 1171 911 1159 c 2
 887 1048 l 2
 862 932 744 751 605 623 c 1
 863 609 918 470 918 369 c 3
EndSplineSet
Validated: 3073
EndChar

StartChar: gecyrillic
Encoding: 1075 1075 331
Width: 1075
VWidth: 1947
GlyphClass: 2
Flags: W
HStem: -25 150<222.419 585.257> 899 150<425.641 801.69>
VStem: 46 148<159.835 345.43> 746 146<271.203 324.946> 808 150<730.78 877.73>
DStem2: 243 520 295 380 0.93698 0.349382<-105.555 599.67>
LayerCount: 2
Fore
SplineSet
808 829 m 3xe8
 808 861 792 897 604 899 c 2
 583 899 l 2
 490 899 378 846 322 767 c 1
 200 853 l 1
 282 969 436 1049 583 1049 c 2
 604 1049 l 2
 698 1048 958 1043 958 829 c 3xe8
 958 700 868 592 765 554 c 2
 295 380 l 2
 243 361 214 326 206 287 c 2
 196 240 l 2
 195 236 194 229 194 223 c 3
 194 141 327 125 392 125 c 2
 448 125 l 2
 571 125 726 256 746 352 c 1
 892 322 l 1xf0
 857 156 643 -25 448 -25 c 2
 392 -25 l 2
 156 -25 46 97 46 228 c 3
 46 242 47 256 50 270 c 2
 58 315 l 2
 77 410 145 485 243 520 c 2
 715 696 l 2
 763 714 808 776 808 829 c 3xe8
EndSplineSet
Validated: 3073
EndChar

StartChar: decyrillic
Encoding: 1076 1076 332
Width: 1075
VWidth: 1947
GlyphClass: 2
Flags: W
HStem: -25 150<318.458 598.564> 899 150<467.035 784.021> 1250 150<429.529 835.972>
VStem: 107 150<187.625 466.715> 888 150<980.053 1197.64>
DStem2: 20.5235 -25 173.325 -25 0.207912 0.978148<393.69 874.689> 665.736 -25 818.113 -25 0.207912 0.978148<262.324 790.373 1024.8 1123.2>
LayerCount: 2
Fore
SplineSet
427 -25 m 2
 235 -25 107 128 107 326 c 3
 107 363 111 402 120 443 c 2
 155 612 l 2
 208 864 368 1049 618 1049 c 2
 639 1049 l 2
 750 1049 826 1021 876 978 c 1
 884 1017 888 1057 888 1077 c 3
 888 1145 861 1241 710 1250 c 2
 692 1250 l 2
 513 1250 493 1241 394 1188 c 1
 324 1320 l 1
 462 1394 513 1400 692 1400 c 2
 714 1400 l 2
 941 1387 1038 1231 1038 1077 c 3
 1038 1055 1035 1022 1027 968 c 1
 911 412 l 2
 858 157 697 -25 448 -25 c 2
 427 -25 l 2
639 899 m 2
 618 899 l 2
 428 899 335 745 301 582 c 2
 266 411 l 2
 259 380 257 352 257 326 c 3
 257 208 321 125 427 125 c 2
 448 125 l 2
 638 125 731 278 765 442 c 2
 800 612 l 2
 811 667 818 724 818 752 c 3
 818 869 747 899 639 899 c 2
EndSplineSet
Validated: 3073
EndChar

StartChar: zhecyrillic
Encoding: 1078 1078 334
Width: 1075
VWidth: 1947
GlyphClass: 2
Flags: W
HStem: 0 21G<-29 163.014 350 506.37 710.258 868> 1004 20G<558.835 715>
VStem: -29 179<0 179> 563 152<872 1024> 715 153<0 153>
DStem2: -29 0 150 0 0.544684 0.838641<97.4985 445.872> 280 1069 136 1029 0.266349 -0.963877<0.200851 564.502> 350 0 502 0 0.207912 0.978148<31.6026 149.047 540.551 1045.91> 607 498 760 457 0.568146 0.822928<53.1863 718.655> 760 457 646 291 0.229989 -0.973193<135.331 434.4>
LayerCount: 2
Fore
SplineSet
-29 0 m 1
 286 485 l 1
 136 1029 l 1
 280 1069 l 1
 447 467 l 1
 563 1024 l 1
 715 1024 l 1
 607 498 l 1
 1015 1092 l 1
 1139 1004 l 1
 760 457 l 1
 868 0 l 1
 715 0 l 1
 646 291 l 1
 528 119 l 1
 502 0 l 1
 350 0 l 1
 380 146 l 1
 340 292 l 1
 150 0 l 1
 -29 0 l 1
EndSplineSet
Validated: 3073
EndChar

StartChar: zecyrillic
Encoding: 1079 1079 335
Width: 1075
VWidth: 1947
GlyphClass: 2
Flags: W
HStem: -25 150<272.234 612.754> 485 150<428 686.802> 898 150<427.761 786.071>
VStem: 81 150<166.503 222> 747 150<255.431 449.464> 793 148<734.931 879.819>
LayerCount: 2
Fore
SplineSet
554 635 m 2xf8
 695 635 793 767 793 834 c 3
 793 873 730 898 639 898 c 2
 595 898 l 2
 497 898 388 855 334 772 c 1
 208 854 l 1
 295 988 456 1048 595 1048 c 2
 639 1048 l 2
 696 1048 760 1043 826 1009 c 0
 889 977 941 922 941 832 c 3
 941 710 855 618 793 570 c 1xf4
 862 521 897 452 897 372 c 3
 897 356 896 340 892 320 c 2
 888 299 l 2
 857 147 688 -25 448 -25 c 2
 427 -25 l 2
 167 -16 85 118 81 222 c 1
 231 228 l 1
 233 183 288 130 427 125 c 2
 448 125 l 2
 635 125 747 272 747 372 c 3
 747 446 666 485 553 485 c 2
 428 485 l 1
 428 635 l 1
 554 635 l 2xf8
EndSplineSet
Validated: 3073
EndChar

StartChar: iicyrillic
Encoding: 1080 1080 336
Width: 1075
VWidth: 1947
GlyphClass: 2
Flags: W
HStem: -25 150<239.99 544.191> 0 21G<672 828.18> 1004 20G<236.796 393 881.804 1038>
VStem: 83 150<139.288 465.906> 241 152<872 1024> 886 152<872 1024>
DStem2: 19.5137 -25 172.315 -25 0.207912 0.978148<274.892 1072.13> 666.686 -25 818.686 -25 0.207912 0.978148<57.1611 121.455 335.095 1071.67>
LayerCount: 2
Fore
SplineSet
404 125 m 2xbc
 425 125 l 2xbc
 557 125 742 338 766 452 c 2
 886 1024 l 1
 1038 1024 l 1
 824 0 l 1
 672 0 l 1x7c
 691 94 l 1
 611 24 518 -25 425 -25 c 2
 404 -25 l 2
 292 -25 83 -17 83 209 c 3
 83 246 97 341 109 396 c 2
 241 1024 l 1
 393 1024 l 1
 255 364 l 2
 241 297 233 244 233 209 c 3
 233 135 270 125 404 125 c 2xbc
EndSplineSet
Validated: 3073
EndChar

StartChar: kacyrillic
Encoding: 1082 1082 338
Width: 1075
VWidth: 1947
GlyphClass: 2
Flags: W
HStem: 0 21G<27 184.13 652.745 868> 1004 20G<235.84 393 915.667 961.188>
VStem: 240 153<871 1024>
DStem2: 27 0 180 0 0.207912 0.978148<31.8105 125.75 486.422 1045.91> 738 151 626 51 0.652443 -0.757838<-209.706 70.0674> 814 964 898 840 0.857493 0.514496<-312.039 157.436>
LayerCount: 2
Fore
SplineSet
180 0 m 1
 27 0 l 1
 240 1024 l 1
 393 1024 l 1
 273 445 l 1
 289 467 l 2
 439 670 607 840 814 964 c 2
 949 1045 l 1
 1027 917 l 1
 898 840 l 2
 778 768 676 674 590 582 c 1
 597 494 l 2
 609 351 688 209 738 151 c 2
 868 0 l 1
 670 0 l 1
 626 51 l 2
 569 117 479 263 453 434 c 1
 438 416 423 396 409 377 c 2
 199 92 l 1
 180 0 l 1
EndSplineSet
Validated: 3073
EndChar

StartChar: elcyrillic
Encoding: 1083 1083 339
Width: 1075
VWidth: 1947
GlyphClass: 2
Flags: W
HStem: 0 21G<-19 159.123 672 829.16> 873 151<706.495 854>
VStem: -19 168<0 168> 672 153<0 153>
DStem2: -19 0 149 0 0.452247 0.891893<75.9775 909.409> 672 0 825 0 0.207912 0.978148<31.8105 891.763>
LayerCount: 2
Fore
SplineSet
304 637 m 2
 375 776 566 957 774 1024 c 1
 1038 1024 l 1
 825 0 l 1
 672 0 l 1
 854 873 l 1
 798 873 l 1
 673 829 499 692 438 571 c 2
 149 0 l 1
 -19 0 l 1
 304 637 l 2
EndSplineSet
Validated: 3073
EndChar

StartChar: emcyrillic
Encoding: 1084 1084 340
Width: 1075
VWidth: 1947
GlyphClass: 2
Flags: W
HStem: 0 21G<-68 95.0472 766 918.363> 1004 20G<234.965 396.954 864.715 1037>
VStem: -68 157<0 157> 766 150<0 150>
DStem2: -68 0 89 0 0.288891 0.957362<45.356 753.67> 394 1024 294 678 0.146125 -0.989266<327.674 684.346> 494 347 514 75 0.491421 0.870922<0 443.234> 766 0 916 0 0.117348 0.993091<17.6021 663.483>
LayerCount: 2
Fore
SplineSet
89 0 m 1
 -68 0 l 1
 241 1024 l 1
 394 1024 l 1
 494 347 l 1
 876 1024 l 1
 1037 1024 l 1
 916 0 l 1
 766 0 l 1
 843 659 l 1
 514 75 l 1
 383 75 l 1
 294 678 l 1
 89 0 l 1
EndSplineSet
Validated: 3073
EndChar

StartChar: encyrillic
Encoding: 1085 1085 341
Width: 1075
VWidth: 1947
GlyphClass: 2
Flags: W
HStem: 0 21G<28 184.203 673 829.18> 395 150<294 755> 1004 20G<236.84 394 881.825 1039>
VStem: 28 152<0 152> 241 153<871 1024> 673 152<0 152> 886 153<871 1024>
DStem2: 28 0 180 0 0.207912 0.978148<31.6026 435.228 588.395 1045.91> 673 0 825 0 0.207912 0.978148<31.6026 403.417 556.584 1045.91>
LayerCount: 2
Fore
SplineSet
180 0 m 1
 28 0 l 1
 241 1024 l 1
 394 1024 l 1
 294 545 l 1
 786 545 l 1
 886 1024 l 1
 1039 1024 l 1
 825 0 l 1
 673 0 l 1
 755 395 l 1
 263 395 l 1
 180 0 l 1
EndSplineSet
Validated: 3073
EndChar

StartChar: tecyrillic
Encoding: 1090 1090 346
Width: 1075
VWidth: 1947
GlyphClass: 2
Flags: W
HStem: 0 21G<-18 138.208 349 506.135 718 875.156> 899 150<363.408 522.769 733.367 893.406>
VStem: -18 152<0 152> 349 153<0 153> 718 153<0 153> 897 148<758.006 894.752>
DStem2: -18 0 134 0 0.207912 0.978148<31.6026 913.887> 349 0 502 0 0.207912 0.978148<31.8105 874.152> 718 0 871 0 0.207912 0.978148<31.8105 886.719>
LayerCount: 2
Fore
SplineSet
841 1049 m 2
 993 1049 1045 978 1045 876 c 3
 1045 851 1042 823 1036 794 c 2
 871 0 l 1
 718 0 l 1
 890 824 l 2
 894 843 897 858 897 869 c 3
 897 896 881 899 841 899 c 2
 829 899 l 2
 758 899 670 812 649 711 c 2
 502 0 l 1
 349 0 l 1
 518 819 l 2
 522 834 524 846 524 857 c 3
 524 885 509 899 472 899 c 2
 461 899 l 2
 395 899 308 827 288 732 c 2
 134 0 l 1
 -18 0 l 1
 202 1050 l 1
 355 1050 l 1
 349 1024 l 1
 384 1041 422 1049 461 1049 c 2
 472 1049 l 2
 556 1049 609 1016 640 971 c 1
 696 1019 762 1049 829 1049 c 2
 841 1049 l 2
EndSplineSet
Validated: 3073
EndChar

StartChar: efcyrillic
Encoding: 1092 1092 348
Width: 1075
VWidth: 1947
GlyphClass: 2
Flags: W
HStem: -384 21G<269 426.178> -25 150<250.216 344 528 669.869> 830 150<391.125 522 707 787.628> 1029 20G<563.942 721>
VStem: 52 150<174.846 467.647> 269 153<-384 -231> 847 150<471.903 763.225>
DStem2: -117.639 -384 38.4427 -384 0.207912 0.978148<790.27 1163.8> 269 -384 422 -384 0.207912 0.978148<31.8105 366.748 551.726 1240.07 1425.26 1463.85> 649.279 -384 801.655 -384 0.207912 0.978148<619.388 989.354>
LayerCount: 2
Fore
SplineSet
52 355 m 3
 52 384 54 412 59 437 c 2
 76 527 l 2
 115 723 257 980 528 980 c 2
 554 980 l 1
 568 1049 l 1
 721 1049 l 1
 707 980 l 1
 898 975 997 782 997 586 c 3
 997 555 994 525 989 498 c 2
 970 408 l 2
 918 161 751 -25 539 -25 c 2
 497 -25 l 1
 422 -384 l 1
 269 -384 l 1
 344 -25 l 1
 323 -25 l 2
 78 -25 52 255 52 355 c 3
676 830 m 1
 528 125 l 1
 539 125 l 2
 655 125 785 230 824 438 c 2
 841 528 l 2
 846 551 847 574 847 586 c 3
 847 639 829 830 699 830 c 2
 676 830 l 1
522 830 m 1
 343 826 251 634 224 499 c 2
 207 409 l 2
 205 396 202 376 202 355 c 3
 202 232 247 125 323 125 c 2
 375 125 l 1
 522 830 l 1
EndSplineSet
Validated: 3073
EndChar

StartChar: tsecyrillic
Encoding: 1094 1094 350
Width: 1075
VWidth: 1947
GlyphClass: 2
Flags: W
HStem: -25 150<251.345 539.792> 1004 20G<237.804 394 882.801 1039>
VStem: 84 150<142.053 466.047> 242 152<872 1024> 730 150<-103.013 75.098> 887 152<872 1024>
DStem2: -37.1618 -298 115.215 -298 0.207912 0.978148<563.05 1351.15> 607.457 -298 762.253 -298 0.207912 0.978148<366.877 403.175 624.464 1351.23>
LayerCount: 2
Fore
SplineSet
234 219 m 3
 234 169 240 125 404 125 c 2
 425 125 l 2
 561 125 746 353 769 462 c 2
 887 1024 l 1
 1039 1024 l 1
 846 96 l 1
 853 87 880 47 880 -32 c 3
 880 -126 819 -227 636 -298 c 1
 582 -158 l 1
 691 -116 730 -74 730 -31 c 3
 730 -2 712 27 685 56 c 1
 693 96 l 1
 612 26 518 -25 425 -25 c 2
 404 -25 l 2
 98 -25 84 140 84 219 c 3
 84 246 87 287 101 352 c 2
 242 1024 l 1
 394 1024 l 1
 247 322 l 2
 236 271 234 240 234 219 c 3
EndSplineSet
Validated: 3073
EndChar

StartChar: checyrillic
Encoding: 1095 1095 351
Width: 1075
VWidth: 1947
GlyphClass: 2
Flags: W
HStem: 0 21G<673 829.18> 352 150<331.725 615.014> 1004 20G<236.857 394 881.758 1039>
VStem: 166 149<520.892 858.531> 241 153<871 1024> 673 152<0 152> 886 153<871 1024>
DStem2: 24.8579 0 177.235 0 0.207912 0.978148<657.26 1046.56> 673 0 825 0 0.207912 0.978148<31.6026 488.138 719.514 1045.91>
LayerCount: 2
Fore
SplineSet
482 352 m 2xf6
 224 352 166 474 166 607 c 3xf6
 166 634 169 677 183 744 c 2
 241 1024 l 1
 394 1024 l 1xee
 329 714 l 2
 320 671 315 636 315 609 c 3
 315 520 365 502 482 502 c 2
 503 502 l 2
 632 502 825 733 851 859 c 2
 886 1024 l 1
 1039 1024 l 1
 825 0 l 1
 673 0 l 1
 772 478 l 1
 691 405 596 352 503 352 c 2
 482 352 l 2xf6
EndSplineSet
Validated: 3073
EndChar

StartChar: shacyrillic
Encoding: 1096 1096 352
Width: 1075
VWidth: 1947
GlyphClass: 2
Flags: W
HStem: -25 150<173.168 323.671 536.594 690.975> 0 21G<732 875.16> 1004 20G<190.869 347 559.768 716 927.791 1084>
VStem: 21 152<127.828 295.418> 195 152<872 1024> 564 152<872 1024> 932 152<872 1024>
DStem2: -23.2019 -25 128.948 -25 0.207912 0.978148<216.408 1071.44> 341.654 -25 494.387 -25 0.207912 0.978148<218.891 1072.31> 710.48 -25 865.686 -25 0.207912 0.978148<208.747 1072.13>
LayerCount: 2
Fore
SplineSet
225 -25 m 2xbe
 75 -25 21 50 21 151 c 3
 21 176 25 203 31 230 c 2
 195 1024 l 1
 347 1024 l 1
 184 234 l 2
 178 206 173 165 173 154 c 3
 173 129 184 125 225 125 c 2
 236 125 l 2
 286 125 388 194 422 353 c 2
 564 1024 l 1
 716 1024 l 1
 542 199 l 2
 538 181 536 167 536 157 c 3
 536 133 553 125 594 125 c 2
 605 125 l 2xbe
 681 125 768 244 787 335 c 2
 932 1024 l 1
 1084 1024 l 1
 871 0 l 1
 732 0 l 1x7e
 737 19 l 1
 719 6 l 2
 683 -21 636 -25 605 -25 c 2
 594 -25 l 2
 513 -25 449 -5 412 51 c 1
 328 -23 264 -25 236 -25 c 2
 225 -25 l 2xbe
EndSplineSet
Validated: 3073
EndChar

StartChar: shchacyrillic
Encoding: 1097 1097 353
Width: 1075
VWidth: 1947
GlyphClass: 2
Flags: W
HStem: -300 144<671.819 726.936> -25 150<173.088 301.605 542.999 691.855> 1004 20G<190.869 347 558.85 715 927.833 1084>
VStem: 21 152<127.828 295.418> 195 152<872 1024> 563 152<872 1024> 774 150<-110.411 28.7739> 932 152<872 1024>
DStem2: -81.655 -300 70.9199 -300 0.207912 0.978148<497.556 1352.59> 284.558 -300 438.722 -300 0.207912 0.978148<535.583 1352.96> 653.413 -300 808.465 -300 0.207912 0.978148<491.798 1352.99>
LayerCount: 2
Fore
SplineSet
225 -25 m 3
 75 -25 21 50 21 151 c 3
 21 176 25 203 31 230 c 1
 195 1024 l 1
 347 1024 l 1
 184 232 l 2
 180 212 173 165 173 154 c 3
 173 129 184 125 225 125 c 3
 298 125 412 294 441 436 c 2
 563 1024 l 1
 715 1024 l 1
 545 200 l 2
 542 183 540 169 540 159 c 3
 540 131 554 125 594 125 c 2
 605 125 l 2
 688 125 772 256 792 352 c 2
 932 1024 l 1
 1084 1024 l 1
 892 93 l 1
 913 56 924 14 924 -30 c 0
 924 -148 840 -253 676 -300 c 1
 634 -156 l 1
 745 -124 774 -70 774 -30 c 0
 774 -7 765 14 755 30 c 1
 681 -24 628 -25 605 -25 c 2
 594 -25 l 2
 512 -25 449 -5 413 53 c 1
 363 6 301 -25 225 -25 c 3
EndSplineSet
Validated: 3073
EndChar

StartChar: hardsigncyrillic
Encoding: 1098 1098 354
Width: 1075
VWidth: 1947
GlyphClass: 2
Flags: W
HStem: 0 149<385 664.055> 486 150<487 702.126> 848 150<281 378>
VStem: 747 150<279.176 444.598>
DStem2: 201 0 353.329 0 0.207912 0.978148<184 528.397 681.565 866.27>
LayerCount: 2
Fore
SplineSet
553 636 m 2
 820 636 897 476 897 369 c 3
 897 355 897 341 893 323 c 2
 877 244 l 2
 836 52 616 1 453 0 c 2
 201 0 l 1
 378 848 l 1
 281 848 l 1
 136 572 l 1
 82 572 l 1
 170 998 l 1
 562 998 l 1
 487 636 l 1
 553 636 l 2
747 369 m 3
 747 422 687 486 553 486 c 2
 456 486 l 1
 385 149 l 1
 453 149 l 2
 610 150 717 196 731 272 c 2
 743 341 l 2
 746 356 747 364 747 369 c 3
EndSplineSet
Validated: 3073
EndChar

StartChar: yericyrillic
Encoding: 1099 1099 355
Width: 1075
VWidth: 1947
GlyphClass: 2
Flags: W
HStem: 0 150<155 385.092> 486 150<256 428.851> 1004 20G<179.84 336 935.859 1092>
VStem: 184 152<872 1024> 459 150<217.718 452.021> 728 152<0 152> 940 152<872 1024>
DStem2: -29 0 123.117 0 0.207912 0.978148<184.978 528.189 681.357 1045.91> 383.76 0 536.136 0 0.207912 0.978148<184.077 383.105> 728 0 880 0 0.207912 0.978148<31.6026 1045.7>
LayerCount: 2
Fore
SplineSet
155 150 m 1
 188 150 l 2
 288 150 423 170 442 274 c 2
 456 351 l 2
 458 361 459 369 459 376 c 3
 459 457 364 486 287 486 c 2
 225 486 l 1
 155 150 l 1
256 636 m 1
 287 636 l 2
 470 636 609 532 609 376 c 3
 609 360 608 343 604 323 c 2
 588 244 l 2
 547 55 356 0 188 0 c 2
 -29 0 l 1
 184 1024 l 1
 336 1024 l 1
 256 636 l 1
728 0 m 1
 940 1024 l 1
 1092 1024 l 1
 880 0 l 1
 728 0 l 1
EndSplineSet
Validated: 3073
EndChar

StartChar: softsigncyrillic
Encoding: 1100 1100 356
Width: 1075
VWidth: 1947
GlyphClass: 2
Flags: W
HStem: 0 150<213 665.123> 486 150<314 702.516> 1029 20G<241.863 399>
VStem: 246 153<896 1049> 746 151<224.485 443.719>
DStem2: 29 0 181.117 0 0.207912 0.978148<184.978 528.189 681.357 1071.19>
LayerCount: 2
Fore
SplineSet
213 150 m 1
 454 150 l 2
 610 150 716 198 731 274 c 2
 742 329 l 2
 743 335 746 362 746 367 c 3
 746 446 637 486 553 486 c 2
 283 486 l 1
 213 150 l 1
314 636 m 1
 553 636 l 2
 780 636 897 493 897 365 c 3
 897 351 896 337 893 323 c 2
 877 244 l 2
 836 52 618 0 454 0 c 2
 29 0 l 1
 246 1049 l 1
 399 1049 l 1
 314 636 l 1
EndSplineSet
Validated: 3073
EndChar

StartChar: ereversedcyrillic
Encoding: 1101 1101 357
Width: 1075
VWidth: 1947
GlyphClass: 2
Flags: W
HStem: -25 150<231.012 568.784> 437 150<366 745> 898 150<399.919 765.051>
VStem: 801 150<587.932 864.353>
DStem2: 646.799 -25 800.113 -25 0.207912 0.978148<274.04 472.321 625.697 788.375>
LayerCount: 2
Fore
SplineSet
219 201 m 1
 227 158 251 129 410 125 c 2
 431 125 l 2
 558 125 701 239 745 437 c 1
 366 437 l 1
 366 587 l 1
 777 587 l 1
 783 612 l 2
 794 665 801 712 801 750 c 3
 801 850 755 898 621 898 c 2
 601 898 l 2
 460 898 385 869 343 794 c 1
 211 866 l 1
 287 1003 424 1048 601 1048 c 2
 621 1048 l 2
 902 1048 951 862 951 757 c 3
 951 722 943 651 929 582 c 2
 893 412 l 2
 840 162 649 -25 431 -25 c 2
 410 -25 l 2
 255 -25 105 0 71 175 c 1
 219 201 l 1
EndSplineSet
Validated: 3073
EndChar

StartChar: iucyrillic
Encoding: 1102 1102 358
Width: 1075
VWidth: 1947
GlyphClass: 2
Flags: W
HStem: -25 150<512.75 684.12> 0 21G<-18 138.211> 437 150<258 372> 899 150<681.576 870.553> 1004 20G<192.801 349>
VStem: -18 152<0 152> 197 152<872 1024> 349 150<137.307 434.239> 874 150<534.578 892.581>
DStem2: -23.3139 -25 128.686 -25 0.207912 0.978148<57.1611 503.739 657.115 1071.88> 273.799 -25 426.113 -25 0.207912 0.978148<310.538 472.321 625.281 907.4> 710.736 -25 863.113 -25 0.207912 0.978148<222.195 855.648>
LayerCount: 2
Fore
SplineSet
576 -25 m 2xb780
 540 -25 349 -9 349 243 c 3
 349 282 353 342 372 437 c 1
 226 437 l 1
 134 0 l 1
 -18 0 l 1
 197 1024 l 1
 349 1024 l 1x6f80
 258 587 l 1
 402 587 l 1
 408 612 l 2
 471 912 623 1049 767 1049 c 2
 788 1049 l 2
 873 1049 1024 1033 1024 817 c 3
 1024 751 1010 676 991 582 c 2
 956 412 l 2
 910 192 796 -25 597 -25 c 2
 576 -25 l 2xb780
499 243 m 3
 499 153 540 125 576 125 c 2
 597 125 l 2
 682 125 768 239 810 442 c 2
 845 612 l 2
 866 713 874 776 874 817 c 3
 874 885 861 899 788 899 c 2
 767 899 l 2xb780
 705 899 603 815 554 582 c 2
 519 412 l 2
 502 329 499 277 499 243 c 3
EndSplineSet
Validated: 3073
EndChar

StartChar: iacyrillic
Encoding: 1103 1103 359
Width: 1075
VWidth: 1947
GlyphClass: 2
Flags: W
HStem: 0 21G<673 829.16> 412 150<584 758> 874 150<407.902 854>
VStem: 180 150<622.217 809.354> 673 152<0 152>
DStem2: 31 71 137 -35 0.707107 0.707107<0 513.359> 665.561 -35 817.561 -35 0.207912 0.978148<67.3845 456.451 609.619 928.315>
LayerCount: 2
Fore
SplineSet
854 874 m 1
 613 874 l 2
 449 874 352 821 337 749 c 2
 331 725 l 2
 330 721 330 717 330 715 c 3
 330 665 388 562 518 562 c 2
 789 562 l 1
 854 874 l 1
758 412 m 1
 584 412 l 1
 137 -35 l 1
 31 71 l 1
 394 434 l 1
 260 483 180 606 180 715 c 3
 180 733 182 748 185 761 c 2
 191 783 l 2
 230 973 445 1024 613 1024 c 2
 1038 1024 l 1
 825 0 l 1
 673 0 l 1
 758 412 l 1
EndSplineSet
Validated: 3073
EndChar

StartChar: ecyrillic
Encoding: 1108 1108 362
Width: 1075
VWidth: 1708
GlyphClass: 2
Flags: W
HStem: -25 150<318.458 620.232> 437 150<303 665> 899 150<467.035 788.681>
VStem: 107 150<185.544 435.965>
DStem2: 19.6015 -25 172.915 -25 0.207912 0.978148<393.882 504.381 657.548 866.02>
CounterMasks: 1 e0
LayerCount: 2
Fore
SplineSet
427 -25 m 2
 235 -25 107 128 107 326 c 3
 107 363 111 402 120 443 c 2
 155 612 l 2
 208 864 368 1049 618 1049 c 2
 639 1049 l 2
 776 1049 915 1008 957 849 c 1
 811 811 l 1
 799 857 768 899 639 899 c 2
 618 899 l 2
 430 899 338 748 303 587 c 1
 698 587 l 1
 665 437 l 1
 272 437 l 1
 266 411 l 2
 259 380 257 352 257 326 c 3
 257 205 324 125 427 125 c 2
 448 125 l 2
 563 125 635 158 687 231 c 1
 809 145 l 1
 725 26 603 -25 448 -25 c 2
 427 -25 l 2
EndSplineSet
Validated: 3073
EndChar

StartChar: numero
Encoding: 8470 8470 372
Width: 1075
VWidth: 1947
Flags: W
HStem: -0 21G<-46 111.291 298.387 455.257> 471 151<828.573 903.749> 1149 151<921.831 995.369> 1380 20G<249.714 407.591 591.733 749>
VStem: -46 153<0 153> 275 155<622 783> 596 153<1247 1400> 687 140<624.591 974.132> 996 140<800.147 1146.25>
DStem2: -46 -0 107 -0 0.207912 0.978148<31.8105 832.629> 297.79 -0 451 -0 0.207912 0.978148<635.896 1431.41>
LayerCount: 2
Fore
SplineSet
979 1149 m 3xfd80
 900 1149 827 905 827 681 c 3
 827 646 837 622 844 622 c 3
 922 622 996 844 996 1090 c 3
 996 1120 990 1149 979 1149 c 3xfd80
983 1300 m 3
 1047 1300 1136 1245 1136 1090 c 3
 1136 971 1083 675 986 551 c 0
 929 478 872 471 839 471 c 3
 805 471 687 501 687 681 c 3
 687 798 739 1092 833 1216 c 0
 869 1264 930 1300 983 1300 c 3
-46 -0 m 1
 254 1400 l 1
 407 1400 l 1
 430 622 l 1
 596 1400 l 1
 749 1400 l 1xfe80
 451 0 l 1
 299 0 l 1
 275 783 l 1
 107 0 l 1
 -46 -0 l 1
EndSplineSet
Validated: 3073
EndChar

StartChar: caroncomb
Encoding: 780 780 377
Width: 1075
VWidth: 1947
Flags: W
HStem: 1422 242
VStem: 518 487
DStem2: 743 1552 818 1422 0.853846 0.520526<0 215.379>
LayerCount: 2
Fore
SplineSet
743 1552 m 1
 927 1664 l 1
 1005 1536 l 1
 818 1422 l 1
 664 1422 l 1
 518 1542 l 1
 614 1658 l 1
 743 1552 l 1
EndSplineSet
Validated: 3073
EndChar

StartChar: gravecomb
Encoding: 768 768 379
Width: 1075
VWidth: 2334
Flags: W
HStem: 1394 297
VStem: 647 274
DStem2: 767 1691 647 1603 0.593199 -0.805056<0 259.27>
LayerCount: 2
Fore
SplineSet
921 1482 m 1
 801 1394 l 1
 647 1603 l 1
 767 1691 l 1
 921 1482 l 1
EndSplineSet
Validated: 3073
EndChar

StartChar: acutecomb
Encoding: 769 769 380
Width: 1075
VWidth: 2334
Flags: W
HStem: 1381 323
VStem: 554 340
DStem2: 554 1495 652 1381 0.756823 0.65362<0 319.414>
LayerCount: 2
Fore
SplineSet
652 1381 m 1
 554 1495 l 1
 796 1704 l 1
 894 1590 l 1
 652 1381 l 1
EndSplineSet
Validated: 3073
EndChar

StartChar: tildecomb
Encoding: 771 771 381
Width: 1075
VWidth: 1947
Flags: W
HStem: 1447 150<791.601 955.518> 1537 150<563.75 726.557>
LayerCount: 2
Fore
SplineSet
439 1581 m 2x80
 483 1625 551 1687 652 1687 c 2
 668 1687 l 2x40
 716 1687 768 1667 806 1627 c 2
 822 1609 l 2
 826 1605 836 1597 850 1597 c 2
 867 1597 l 2
 911 1597 942 1626 976 1661 c 2
 998 1684 l 1
 1106 1580 l 1
 1084 1557 l 2
 1037 1508 969 1447 867 1447 c 2
 850 1447 l 2x80
 801 1447 747 1468 710 1509 c 2
 696 1525 l 2
 691 1530 681 1537 668 1537 c 2
 652 1537 l 2x40
 615 1537 587 1517 545 1475 c 2
 519 1447 l 1
 413 1555 l 1
 439 1581 l 2x80
EndSplineSet
Validated: 3073
EndChar

StartChar: hookabovecomb
Encoding: 777 777 382
Width: 1075
VWidth: 1947
Flags: W
HStem: 1551 130<596.797 872.953>
VStem: 876 150<1454.95 1544.37>
LayerCount: 2
Fore
SplineSet
786 1681 m 3
 1014 1681 1026 1530 1026 1515 c 3
 1026 1435 983 1328 789 1314 c 1
 773 1239 l 1
 627 1271 l 1
 662 1434 l 1
 723 1434 l 2
 843 1434 875 1480 876 1512 c 3
 876 1532 828 1551 786 1551 c 3
 723 1551 673 1540 611 1504 c 1
 535 1614 l 1
 609 1657 683 1681 786 1681 c 3
EndSplineSet
Validated: 3073
EndChar

StartChar: dotbelowcomb
Encoding: 803 803 383
Width: 1075
VWidth: 2334
Flags: W
HStem: -355 204<285.294 451.75>
VStem: 267 204<-336.089 -169.911>
LayerCount: 2
Fore
SplineSet
267 -253 m 0
 267 -197 311 -151 368 -151 c 0
 424 -151 471 -197 471 -253 c 0
 471 -309 424 -355 368 -355 c 0
 311 -355 267 -309 267 -253 c 0
EndSplineSet
Validated: 3073
EndChar

StartChar: commaturnedabovecmb
Encoding: 786 786 396
Width: 1075
VWidth: 1947
Flags: W
HStem: -486 150<257.838 511.027>
VStem: 388 150<-40.9986 88> 523 150<-321.074 -210.202>
LayerCount: 2
Fore
SplineSet
538 88 m 1xc0
 538 -10 l 1xc0
 523 -67 l 1
 630 -93 673 -174 673 -256 c 3
 673 -304 657 -353 630 -390 c 1
 573 -469 473 -486 379 -486 c 3
 280 -486 195 -444 139 -384 c 1
 249 -283 l 1
 277 -313 322 -336 379 -336 c 3
 490 -336 523 -309 523 -238 c 3xa0
 523 -223 511 -207 426 -207 c 2
 327 -207 l 1
 388 10 l 1
 388 88 l 1
 538 88 l 1xc0
EndSplineSet
Validated: 3073
EndChar

StartChar: Hbar
Encoding: 294 294 400
Width: 1075
VWidth: 1947
Flags: W
HStem: 0 21G<27 184.231 672 829.183> 657 150<349 809> 1095 150<206 255 440 900 1085 1134>
VStem: 27 153<0 153> 319 152<1244 1396> 672 153<0 153> 964 152<1244 1396>
DStem2: 27 0 180 0 0.207912 0.978148<31.8105 703.353 856.313 1118.48 1303.66 1426.2> 672 0 825 0 0.207912 0.978148<31.8105 671.127 824.294 1118.48 1303.66 1426.2>
LayerCount: 2
Fore
SplineSet
349 807 m 1
 840 807 l 1
 900 1095 l 1
 409 1095 l 1
 349 807 l 1
180 0 m 1
 27 0 l 1
 255 1095 l 1
 175 1095 l 1
 206 1245 l 1
 287 1245 l 1
 319 1396 l 1
 471 1396 l 1
 440 1245 l 1
 932 1245 l 1
 964 1396 l 1
 1116 1396 l 1
 1085 1245 l 1
 1164 1245 l 1
 1134 1095 l 1
 1054 1095 l 1
 825 0 l 1
 672 0 l 1
 809 657 l 1
 319 657 l 1
 180 0 l 1
EndSplineSet
EndChar

StartChar: hbar
Encoding: 295 295 401
Width: 1075
VWidth: 1947
Flags: W
HStem: 0 21G<28 184.191 672 829.205> 899 150<503.727 810.795> 1205 150<230 278 463 690> 1380 20G<314.556 472>
VStem: 28 152<0 152> 672 153<0 153> 832 152<668.234 869.492>
DStem2: 28 0 180 0 0.207912 0.978148<31.6026 791.86 1004.17 1230.65 1415.83 1429.91> 672 0 825 0 0.207912 0.978148<31.8105 810.339>
LayerCount: 2
Fore
SplineSet
832 795 m 3
 832 857 803 899 639 899 c 2
 618 899 l 2
 485 899 329 699 303 587 c 1
 180 0 l 1
 28 0 l 1
 155 612 l 2
 156 615 155 617 156 620 c 2
 278 1205 l 1
 198 1205 l 1
 230 1355 l 1
 309 1355 l 1
 319 1400 l 1
 472 1400 l 1
 463 1355 l 1
 722 1355 l 1
 690 1205 l 1
 431 1205 l 1
 379 952 l 1
 450 1010 533 1049 618 1049 c 2
 639 1049 l 2
 863 1049 984 976 984 802 c 3
 984 772 980 740 973 704 c 1
 825 0 l 1
 672 0 l 1
 825 734 l 2
 831 765 832 783 832 795 c 3
EndSplineSet
EndChar

StartChar: IJ
Encoding: 306 306 410
Width: 1075
VWidth: 1947
Flags: W
HStem: 0 135<35 189 343 526> 262 150<464 612.033> 1265 150<305 428 582 807 961 1116>
DStem2: 160.305 0 314.305 0 0.207912 0.978148<170.034 1293.01> 538.703 0 691.505 0 0.207912 0.978148<424.7 1293.14>
LayerCount: 2
Fore
SplineSet
555 135 m 1
 526 0 l 1
 7 0 l 1
 35 135 l 1
 189 135 l 1
 428 1265 l 1
 273 1265 l 1
 305 1415 l 1
 1148 1415 l 1
 1116 1265 l 1
 961 1265 l 1
 815 581 l 2
 747 264 600 266 552 262 c 1
 464 262 l 1
 464 412 l 1
 552 412 l 1
 578 414 630 432 669 613 c 2
 807 1265 l 1
 582 1265 l 1
 343 135 l 1
 555 135 l 1
EndSplineSet
Validated: 3073
EndChar

StartChar: Tbar
Encoding: 358 358 430
Width: 1075
VWidth: 1947
Flags: W
HStem: 0 21G<349 507.165> 485 150<106 450 635 979> 1250 150<266 610 763 1139>
VStem: 349 154<0 154>
DStem2: 349 0 503 0 0.207912 0.978148<32.0184 495.401 680.586 1276.95>
LayerCount: 2
Fore
SplineSet
266 1400 m 1
 1170 1400 l 1
 1139 1250 l 1
 763 1250 l 1
 635 635 l 1
 1010 635 l 1
 979 485 l 1
 604 485 l 1
 503 0 l 1
 349 0 l 1
 450 485 l 1
 75 485 l 1
 106 635 l 1
 482 635 l 1
 610 1250 l 1
 235 1250 l 1
 266 1400 l 1
EndSplineSet
EndChar

StartChar: tbar
Encoding: 359 359 431
Width: 1075
VWidth: 1947
Flags: W
HStem: -25 150<428.016 669.876> 485 150<131 334 519 950> 858 150<208 412 597 927> 1405 20G<526.827 685>
VStem: 275 150<134.136 267.437> 531 154<1271 1425>
DStem2: 225.596 -25 379.75 -25 0.207912 0.978148<245.097 521.394 706.579 902.46 1087.65 1481.81>
LayerCount: 2
Fore
SplineSet
864 198 m 1
 838 74 698 -25 548 -25 c 2
 528 -25 l 2
 474 -21 442 -18 395 6 c 0
 333 37 278 100 275 181 c 3
 275 190 275 202 280 230 c 2
 334 485 l 1
 99 485 l 1
 131 635 l 1
 365 635 l 1
 412 858 l 1
 177 858 l 1
 208 1008 l 1
 444 1008 l 1
 531 1425 l 1
 685 1425 l 1
 597 1008 l 1
 959 1008 l 1
 927 858 l 1
 565 858 l 1
 519 635 l 1
 982 635 l 1
 950 485 l 1
 487 485 l 1
 428 202 l 2
 426 192 425 187 425 183 c 3
 425 171 435 125 528 125 c 2
 548 125 l 2
 617 125 700 165 718 232 c 1
 864 198 l 1
EndSplineSet
EndChar

StartChar: A
Encoding: 65 65 461
Width: 1075
VWidth: 1708
Flags: W
HStem: 249 150<349 680> 1405 20G<648.765 780.982>
VStem: 0 165<0 165> 700 150<0 249>
DStem2: 0 0 165 -0 0.41922 0.907885<69.1713 343.445 508.554 1221.3>
LayerCount: 2
Fore
SplineSet
349 399 m 1
 680 399 l 1
 648 1046 l 1
 349 399 l 1
165 -0 m 1
 110 0 55 0 0 0 c 1
 658 1425 l 1
 780 1425 l 1
 850 -0 l 1
 800 0 750 0 700 -0 c 1
 688 249 l 1
 280 249 l 1
 165 -0 l 1
EndSplineSet
Validated: 3073
EndChar

StartChar: Lambda
Encoding: 923 923 462
Width: 1075
VWidth: 1708
Flags: W
HStem: 0 21G<0 172.256 699.989 852> 1405 20G<648.765 781.01>
VStem: 0 163<0 163> 701 151<0 283.474>
DStem2: 0 0 163 0 0.41922 0.907885<68.3328 1223.12>
LayerCount: 2
Fore
SplineSet
163 0 m 1
 0 0 l 1
 658 1425 l 1
 780 1425 l 1
 852 0 l 1
 701 0 l 1
 648 1048 l 1
 163 0 l 1
EndSplineSet
Validated: 3073
EndChar

StartChar: Delta
Encoding: 916 916 463
Width: 1075
VWidth: 1708
Flags: W
HStem: 0 150<237 688> 1405 20G<648.807 780.912>
VStem: 688 157<150 314.289>
DStem2: 3 0 237 150 0.417642 0.908611<234.02 1216.64>
LayerCount: 2
Fore
SplineSet
688 150 m 1
 647 1043 l 1
 237 150 l 1
 688 150 l 1
3 0 m 1
 658 1425 l 1
 780 1425 l 1
 845 0 l 1
 3 0 l 1
EndSplineSet
Validated: 3073
EndChar

StartChar: Theta
Encoding: 920 920 464
Width: 1075
VWidth: 1947
Flags: W
HStem: -25 150<327.291 570.19> 624 150<477 719> 1275 150<554.434 818.635>
VStem: 123 150<182.036 712.844> 477 242<624 774> 873 150<695.055 1217.65>
DStem2: 7.32162 -25 161.698 -25 0.207912 0.978148<447.269 1204.11> 675.186 -25 827.988 -25 0.207912 0.978148<355.214 1050.44>
LayerCount: 2
Fore
SplineSet
719 774 m 1
 719 624 l 1
 477 624 l 1
 477 774 l 1
 719 774 l 1
873 1010 m 3
 873 1171 840 1275 707 1275 c 3
 555 1275 412 1181 328 763 c 2
 309 668 l 2
 281 522 273 432 273 373 c 3
 273 156 364 125 438 125 c 3
 668 125 778 462 821 661 c 2
 850 796 l 2
 869 884 873 943 873 1010 c 3
707 1425 m 3
 833 1425 1023 1370 1023 1010 c 3
 1023 933 1016 860 996 766 c 2
 967 629 l 2
 914 380 773 -25 438 -25 c 3
 307 -25 123 44 123 373 c 3
 123 438 127 539 161 698 c 2
 182 795 l 26
 250 1108 375 1425 707 1425 c 3
EndSplineSet
Validated: 3073
EndChar

StartChar: Xi
Encoding: 926 926 465
Width: 1075
VWidth: 1708
Flags: W
HStem: 0 336<98 213 743 827> 0 150<213 705> 625 150<421 767> 1050 350<318 398 932 1043> 1250 150<440 932>
VStem: 98 153<183 336> 246 152<1050 1202> 743 152<184 336> 891 152<1050 1202>
DStem2: 29 0 181.117 0 0.207912 0.978148<184.978 343.004 1103.77 1308.14> 673.117 0 827 0 0.207912 0.978148<153.351 343.187 1103.96 1276.51>
LayerCount: 2
Fore
SplineSet
799 775 m 1x20
 767 625 l 1
 389 625 l 1
 421 775 l 1
 799 775 l 1x20
213 150 m 1x65
 705 150 l 1x65
 743 336 l 1
 895 336 l 1
 827 0 l 1xa5
 29 0 l 1x65
 98 336 l 1
 251 336 l 1xa5
 213 150 l 1x65
398 1050 m 1x3280
 246 1050 l 1
 318 1400 l 1x3280
 1116 1400 l 1x2a80
 1043 1050 l 1
 891 1050 l 1x3280
 932 1250 l 1
 440 1250 l 1x2a80
 398 1050 l 1x3280
EndSplineSet
Validated: 3073
EndChar

StartChar: Sigma
Encoding: 931 931 468
Width: 1075
VWidth: 1947
Flags: W
HStem: -25 150<228 852> 1250 150<456 1118>
DStem2: 16 90 228 125 0.590295 0.807188<153.394 811.459> 456 1250 270 1310 0.369973 -0.929043<0 483.595>
LayerCount: 2
Fore
SplineSet
289 1400 m 1
 1149 1400 l 1
 1118 1250 l 1
 456 1250 l 1
 665 723 l 1
 228 125 l 1
 883 125 l 1
 852 -25 l 1
 -8 -25 l 1
 16 90 l 1
 495 745 l 1
 270 1310 l 1
 289 1400 l 1
EndSplineSet
Validated: 3073
EndChar

StartChar: Psi
Encoding: 936 936 473
Width: 1075
VWidth: 1947
Flags: W
HStem: -24 21G<341 498.208> 437 150<325 438 623 771.139> 1405 20G<642.776 799>
VStem: 154 150<606.089 778.382> 289 153<1198 1351> 341 153<-24 129> 647 152<1273 1425> 980 153<1198 1351>
DStem2: -4.24344 -24 148.558 -24 0.207912 0.978148<771.427 1405.92> 341 -24 494 -24 0.207912 0.978148<31.8105 471.093 656.279 1480.96> 687.757 -24 840.558 -24 0.207912 0.978148<668.691 1405.71>
LayerCount: 2
Fore
SplineSet
304 699 m 3xf3
 304 666 328 587 400 587 c 2
 470 587 l 1
 647 1425 l 1
 799 1425 l 1
 623 587 l 1
 666 587 l 2
 759 587 837 681 851 744 c 2
 980 1351 l 1
 1133 1351 l 1
 997 712 l 2
 969 585 835 437 666 437 c 2
 591 437 l 1
 494 -24 l 1
 341 -24 l 1
 438 437 l 1
 400 437 l 2
 240 437 154 589 154 699 c 3xf7
 154 717 156 731 159 744 c 2
 289 1351 l 1
 442 1351 l 1xeb
 305 712 l 2
 304 707 304 702 304 699 c 3xf3
EndSplineSet
Validated: 3073
EndChar

StartChar: Omega
Encoding: 937 937 474
Width: 1075
VWidth: 1947
Flags: W
HStem: 0 150<29 215 701 855> 1275 150<550.714 844.368>
VStem: 162 150<406.041 899.76> 892 150<785.847 1229.13>
DStem2: 12.1529 0 166.53 0 0.207912 0.978148<649.192 1214.42> 681.153 0 833.53 0 0.207912 0.978148<535.697 1090.86>
LayerCount: 2
Fore
SplineSet
215 150 m 1
 246 302 l 1
 181 387 162 495 162 597 c 3
 162 674 174 753 189 832 c 2
 199 886 l 2
 252 1144 378 1425 700 1425 c 2
 714 1425 l 2
 868 1425 1042 1355 1042 1073 c 3
 1042 987 1025 899 1016 857 c 2
 1004 802 l 2
 968 636 893 400 727 278 c 1
 701 150 l 1
 887 150 l 1
 855 0 l 1
 517 0 l 1
 593 370 l 1
 620 387 l 2
 734 459 815 631 858 832 c 2
 870 889 l 2
 884 955 892 1018 892 1073 c 3
 892 1228 830 1275 714 1275 c 2
 700 1275 l 2
 488 1275 389 1093 347 858 c 2
 337 802 l 2
 324 731 312 660 312 597 c 3
 312 464 351 405 380 376 c 2
 409 347 l 1
 337 0 l 1
 -3 0 l 1
 29 150 l 1
 215 150 l 1
EndSplineSet
Validated: 3073
EndChar

StartChar: alpha
Encoding: 945 945 483
Width: 1075
VWidth: 1947
Flags: W
HStem: -40 150<317.341 489.983> -0 21G<673 823> 911 152<513.732 664.614>
VStem: 147 150<120.467 568.226> 673 150<0 148>
DStem2: 541 220 673 148 0.390243 0.920712<-115.113 -14.7792 710.243 904.709>
LayerCount: 2
Fore
SplineSet
297 309 m 3xb8
 297 141 324 110 384 110 c 3
 459 110 522 175 541 220 c 2
 673 529 l 1
 673 832 l 2
 673 881 648 911 609 911 c 3
 465 911 297 585 297 309 c 3xb8
147 309 m 3
 147 564 323 1063 586 1063 c 3
 789 1063 810 928 818 874 c 1
 894 1053 l 1
 1032 995 l 1
 822 499 l 1
 823 0 l 1
 673 -0 l 1x78
 673 148 l 1
 619 36 518 -40 384 -40 c 27
 194 -40 147 149 147 309 c 3
EndSplineSet
Validated: 3073
EndChar

StartChar: beta
Encoding: 946 946 484
Width: 1075
VWidth: 2334
Flags: W
HStem: -25 150<242.023 674.629> 474 150<471 714.209> 899 150<423.866 812.524>
VStem: -39 153<-318 -165> 767 150<276.833 443.173> 825 150<721.676 874.863>
DStem2: -39 -318 114 -318 0.207912 0.978148<31.8105 380.121 571.825 1228.83> 626.167 -318 780.543 -318 0.207912 0.978148<495.937 700.854>
LayerCount: 2
Fore
SplineSet
427 -25 m 2xf8
 378 -24 267 -23 185 23 c 1
 114 -318 l 1
 -39 -318 l 1
 181 734 l 2
 225 945 369 1049 618 1049 c 2
 623 1049 l 2
 670 1048 775 1047 856 1006 c 0
 898 985 975 932 975 821 c 3
 975 716 911 619 825 559 c 1xf4
 886 514 917 450 917 369 c 3
 917 350 916 331 912 312 c 2
 900 244 l 2
 888 174 824 -25 471 -25 c 2
 427 -25 l 2xf8
825 821 m 3
 825 868 775 896 623 899 c 2
 618 899 l 2
 405 899 349 812 327 704 c 2
 234 244 l 2
 231 227 230 218 230 209 c 3
 230 145 286 128 427 125 c 2
 471 125 l 2
 714 125 743 234 752 274 c 2
 764 338 l 2
 766 349 767 360 767 369 c 3xf8
 767 464 652 472 573 474 c 1
 471 474 l 1
 471 624 l 1
 535 624 l 2
 734 624 825 747 825 821 c 3
EndSplineSet
Validated: 3073
EndChar

StartChar: gamma
Encoding: 947 947 485
Width: 1075
VWidth: 2334
Flags: W
HStem: -384 21G<270 427.282> 1004 20G<249 402.338 860.381 1040>
VStem: 249 151<873 1024> 270 153<-384 -231> 871 169<855 1024>
DStem2: 400 1024 249 1024 0.116132 -0.993234<0 731.952> 485 297 511 27 0.468702 0.883357<0 823.119>
LayerCount: 2
Fore
SplineSet
270 -384 m 1xd8
 363 49 l 1
 249 1024 l 1
 400 1024 l 1xe8
 485 297 l 1
 871 1024 l 1
 1040 1024 l 1
 511 27 l 1
 423 -384 l 1
 270 -384 l 1xd8
EndSplineSet
Validated: 3073
EndChar

StartChar: delta
Encoding: 948 948 486
Width: 1075
VWidth: 1947
Flags: W
HStem: -25 150<318.458 598.564> 1250 150<572 1010>
VStem: 107 150<186.123 583.788> 818 150<481.453 864.14>
DStem2: 20.5235 -25 173.325 -25 0.207912 0.978148<393.69 872.7> 665.736 -25 818.113 -25 0.207912 0.978148<262.324 790.373>
LayerCount: 2
Fore
SplineSet
257 326 m 3
 257 208 321 125 427 125 c 2
 448 125 l 2
 638 125 731 278 765 442 c 2
 800 612 l 2
 811 667 818 724 818 752 c 3
 818 870 744 899 639 899 c 2
 618 899 l 2
 428 899 335 745 301 582 c 2
 266 411 l 2
 259 380 257 352 257 326 c 3
427 -25 m 2
 235 -25 107 128 107 326 c 3
 107 363 111 402 120 443 c 2
 155 612 l 2
 205 848 348 1025 571 1047 c 1
 293 1304 l 1
 313 1400 l 1
 1041 1400 l 1
 1010 1250 l 1
 572 1250 l 1
 849 1001 l 2
 936 920 968 838 968 752 c 3
 968 699 953 614 946 582 c 2
 911 412 l 2
 858 157 697 -25 448 -25 c 2
 427 -25 l 2
EndSplineSet
Validated: 3073
EndChar

StartChar: epsilon
Encoding: 949 949 487
Width: 1075
VWidth: 2334
Flags: W
HStem: -25 150<281.328 676.828> 458 150<376.584 690> 899 150<413.95 838.166>
VStem: 82 150<147.283 359.787> 185 150<649.215 830.069>
LayerCount: 2
Fore
SplineSet
839 861 m 1xe8
 822 883 754 899 662 899 c 2
 618 899 l 2
 365 899 335 777 335 734 c 3xe8
 335 690 367 608 531 608 c 2
 720 608 l 1
 690 458 l 1
 531 458 l 2
 309 458 232 344 232 224 c 3
 232 188 251 155 280 144 c 0
 308 133 357 125 427 125 c 2
 471 125 l 2
 591 125 644 138 690 180 c 1
 790 68 l 1
 701 -12 599 -25 471 -25 c 2
 427 -25 l 2
 216 -25 82 34 82 220 c 3xf0
 82 311 101 451 270 544 c 1
 209 599 185 672 185 734 c 3
 185 847 269 1049 618 1049 c 2
 662 1049 l 2
 906 1049 948 964 967 939 c 1
 839 861 l 1xe8
EndSplineSet
Validated: 3073
EndChar

StartChar: zeta
Encoding: 950 950 488
Width: 1075
VWidth: 2334
Flags: W
HStem: -369 150<380 623.007> -25 150<252.32 646.429>
VStem: 85 149<148.622 387.005> 656 150<-182.884 -43.9327>
DStem2: 674 830 472 542 0.867856 0.496816<-573.401 92.2104>
LayerCount: 2
Fore
SplineSet
427 -25 m 2
 176 -25 85 63 85 229 c 27
 85 301 106 376 121 409 c 0
 173 525 360 649 398 672 c 2
 674 830 l 2
 696 842 721 859 752 883 c 1
 654 896 559 927 489 996 c 1
 595 1102 l 1
 658 1040 766 1024 946 1024 c 2
 1068 1024 l 1
 1051 943 l 1
 996 893 l 2
 879 788 802 731 748 700 c 2
 472 542 l 2
 316 452 259 369 252 342 c 2
 247 322 l 2
 239 289 234 261 234 237 c 3
 234 146 287 125 427 125 c 2
 448 125 l 2
 520 125 806 121 806 -90 c 3
 806 -269 687 -369 377 -369 c 2
 349 -369 l 1
 380 -219 l 1
 549 -219 656 -210 656 -90 c 3
 656 -53 606 -25 448 -25 c 2
 427 -25 l 2
EndSplineSet
Validated: 3073
EndChar

StartChar: eta
Encoding: 951 951 489
Width: 1075
VWidth: 2334
Flags: W
HStem: 0 21G<28 184.169> 899 150<500.817 814.104> 1004 20G<236.84 394>
VStem: 28 152<0 152> 592 152<-387 -235> 832 150<667.039 873.062>
DStem2: -54.2594 -387 97.7406 -387 0.207912 0.978148<427.248 1190.18 1399.82 1441.55> 592 -387 744 -387 0.207912 0.978148<31.6026 1204.57>
LayerCount: 2
Fore
SplineSet
639 1049 m 2xdc
 889 1049 982 961 982 794 c 27
 982 759 979 735 973 704 c 2
 744 -387 l 1
 592 -387 l 1
 825 734 l 2
 828 750 832 783 832 794 c 3
 832 893 747 899 639 899 c 2
 618 899 l 2xdc
 486 899 331 703 303 590 c 1
 180 0 l 1
 28 0 l 1
 241 1024 l 1
 394 1024 l 1xbc
 379 952 l 1
 450 1010 533 1049 618 1049 c 2
 639 1049 l 2xdc
EndSplineSet
Validated: 3073
EndChar

StartChar: theta
Encoding: 952 952 490
Width: 1075
VWidth: 1947
Flags: W
HStem: -25 150<318.458 598.564> 437 150<303 763> 899 150<467.035 778.031>
VStem: 107 150<186.602 436.058> 818 148<587.413 863.1>
DStem2: 19.6015 -25 172.915 -25 0.207912 0.978148<398.772 504.381 657.548 866.02> 664.799 -25 818.113 -25 0.207912 0.978148<262.519 472.321 625.489 789.055>
CounterMasks: 1 e0
LayerCount: 2
Fore
SplineSet
427 -25 m 2
 235 -25 107 125 107 328 c 3
 107 365 111 403 120 443 c 2
 155 612 l 2
 208 864 368 1049 618 1049 c 2
 639 1049 l 2
 886 1049 966 921 966 750 c 3
 966 697 959 640 946 582 c 2
 911 412 l 2
 858 157 697 -25 448 -25 c 2
 427 -25 l 2
639 899 m 2
 618 899 l 2
 430 899 338 748 303 587 c 1
 794 587 l 1
 800 612 l 2
 810 664 818 711 818 751 c 3
 818 843 778 899 639 899 c 2
427 125 m 2
 448 125 l 2
 636 125 728 275 763 437 c 1
 272 437 l 1
 266 411 l 2
 260 384 257 357 257 331 c 3
 257 219 314 125 427 125 c 2
EndSplineSet
Validated: 3073
EndChar

StartChar: lambda
Encoding: 955 955 491
Width: 1075
VWidth: 2334
Flags: W
HStem: 0 21G<14 195.872 673.493 826> 1390 20G<505 658.248>
VStem: 14 171<0 171> 505 151<1259 1410> 676 150<0 150>
DStem2: 14 0 185 0 0.477484 0.878641<81.6497 917.088> 656 1410 505 1410 0.120394 -0.992726<0 404.424 662.414 1402.15>
LayerCount: 2
Fore
SplineSet
14 0 m 1
 552 990 l 1
 505 1410 l 1
 656 1410 l 1
 704 983 l 1
 826 0 l 1
 676 0 l 1
 584 734 l 1
 185 0 l 1
 14 0 l 1
EndSplineSet
Validated: 3073
EndChar

StartChar: xi
Encoding: 958 958 494
Width: 1075
VWidth: 2334
Flags: W
HStem: -369 150<379 597.616> -25 150<261.716 644.795> 458 150<375.62 735>
VStem: 83 150<155.531 378.776> 184 150<650.755 839.749> 654 151<-168.342 -45.9547>
LayerCount: 2
Fore
SplineSet
83 223 m 3xf4
 83 283 95 328 95 328 c 0
 121 433 187 499 270 544 c 1
 209 599 184 671 184 733 c 3
 184 757 187 770 193 794 c 0
 244 999 403 1034 562 1071 c 1
 507 1104 461 1146 418 1194 c 1
 530 1294 l 1
 598 1217 676 1157 814 1152 c 2
 988 1145 l 1
 975 1085 l 1
 849 1012 l 2
 638 890 334 937 334 733 c 3xec
 334 692 367 608 531 608 c 2
 766 608 l 1
 735 458 l 1
 531 458 l 2
 322 458 263 398 243 303 c 0
 236 272 233 254 233 223 c 3
 233 164 288 125 427 125 c 2
 471 125 l 2
 626 125 805 38 805 -93 c 3
 805 -110 797 -209 723 -269 c 0
 633 -342 489 -369 396 -369 c 2
 348 -369 l 1
 379 -219 l 1
 396 -219 l 2
 507 -219 654 -185 654 -94 c 3
 654 -40 546 -25 471 -25 c 2
 427 -25 l 2
 95 -25 83 212 83 223 c 3xf4
EndSplineSet
Validated: 3073
EndChar

StartChar: pi
Encoding: 960 960 496
Width: 1075
VWidth: 2334
Flags: W
HStem: -0 21G<72 269 607 765> 874 150<466 750 904 1041.07>
VStem: 600 150<2.04046 345.148>
DStem2: 126.926 -0 280.226 -0 0.207912 0.978148<29.0059 885.347> 568.89 -0 721.691 -0 0.207912 0.978148<155.265 892.556>
LayerCount: 2
Fore
SplineSet
204 994 m 1
 265 1013 338 1024 428 1024 c 2
 819 1024 l 2
 961 1024 1037 1053 1081 1084 c 1
 1043 902 l 1
 1002 889 955 881 904 877 c 1
 754 152 l 2
 750 134 750 125 750 120 c 0
 750 96 752 46 765 -0 c 1
 611 -0 l 1
 603 41 600 82 600 120 c 0
 600 146 605 171 608 184 c 2
 750 874 l 1
 466 874 l 1
 317 152 l 2
 306 103 284 50 254 0 c 1
 72 -0 l 1
 122 61 160 135 171 184 c 2
 311 866 l 1
 251 856 206 838 166 813 c 1
 204 994 l 1
EndSplineSet
Validated: 3073
EndChar

StartChar: rho
Encoding: 961 961 497
Width: 1075
VWidth: 2334
Flags: W
HStem: -384 21G<-52 104.176> -25 150<281.807 598.965> 899 150<467.436 774.319>
VStem: -52 152<-384 -232> 816 150<472.734 856.203>
DStem2: -52 -384 100 -384 0.207912 0.978148<31.6026 471.896 706.194 1243.72> 589.428 -384 741.805 -384 0.207912 0.978148<630.675 1174.33>
LayerCount: 2
Fore
SplineSet
639 1049 m 2
 857 1049 966 903 966 738 c 3
 966 707 960 643 946 581 c 2
 911 412 l 2
 858 160 698 -25 448 -25 c 2
 427 -25 l 2
 315 -25 240 4 190 47 c 1
 100 -384 l 1
 -52 -384 l 1
 155 612 l 2
 208 867 369 1049 618 1049 c 2
 639 1049 l 2
249 272 m 3
 249 154 320 125 427 125 c 2
 448 125 l 2
 638 125 731 279 765 442 c 2
 800 613 l 2
 805 637 816 700 816 738 c 2
 816 760 l 2
 816 819 781 899 639 899 c 2
 618 899 l 2
 428 899 335 746 301 582 c 2
 266 412 l 2
 260 385 249 314 249 272 c 3
EndSplineSet
Validated: 3073
EndChar

StartChar: sigmafinal
Encoding: 962 962 498
Width: 1075
VWidth: 2334
Flags: W
HStem: -369 150<380 584.301> -25 150<318.565 649.777> 899 150<526.047 959.703>
VStem: 108 150<188.047 468.677> 655 150<-158.876 -43.5181>
DStem2: -52.3834 -369 99.9933 -369 0.207912 0.978148<749.406 1174.06> 1013 990 920 863 0.948683 -0.316228<-249.182 -0.632458>
LayerCount: 2
Fore
SplineSet
655 -79 m 3
 655 -52 616 -29 448 -25 c 2
 427 -25 l 2
 235 -25 108 125 108 330 c 3
 108 366 112 404 120 442 c 2
 155 612 l 2
 206 857 433 1049 717 1049 c 3
 797 1049 883 1035 970 1005 c 2
 1013 990 l 1
 965 848 l 1
 920 863 l 2
 849 888 781 899 717 899 c 3
 501 899 337 755 301 582 c 2
 266 412 l 2
 260 383 258 355 258 330 c 3
 258 205 322 125 427 125 c 2
 448 125 l 2
 753 119 805 28 805 -79 c 3
 805 -150 754 -369 385 -369 c 2
 350 -369 l 1
 380 -219 l 1
 385 -219 l 2
 643 -219 655 -94 655 -79 c 3
EndSplineSet
Validated: 3073
EndChar

StartChar: sigma
Encoding: 963 963 499
Width: 1075
VWidth: 1947
Flags: W
HStem: -25 150<318.565 598.564> 842 150<958 1067> 899 150<467.035 788.616>
VStem: 108 150<188.047 468.677> 817 150<476.141 840.945>
DStem2: 20.7361 -25 173.113 -25 0.207912 0.978148<397.721 874.645> 665.736 -25 818.113 -25 0.207912 0.978148<262.324 790.608>
LayerCount: 2
Fore
SplineSet
618 1049 m 2xb8
 639 1049 l 2xb8
 734 1049 807 1029 860 992 c 1
 1098 993 l 1
 1067 842 l 1
 958 842 l 1xd8
 964 815 967 785 967 753 c 3
 967 697 958 640 946 582 c 2
 911 412 l 2
 858 157 697 -25 448 -25 c 2
 427 -25 l 2
 235 -25 108 125 108 330 c 3
 108 366 112 404 120 442 c 2
 155 612 l 2
 208 864 368 1049 618 1049 c 2xb8
301 582 m 2
 266 412 l 2
 260 383 258 355 258 330 c 3
 258 205 322 125 427 125 c 2
 448 125 l 2
 638 125 731 278 765 442 c 2
 800 612 l 2
 811 665 817 713 817 753 c 3
 817 842 790 899 639 899 c 2
 618 899 l 2
 428 899 335 745 301 582 c 2
EndSplineSet
Validated: 3073
EndChar

StartChar: tau
Encoding: 964 964 500
Width: 1075
VWidth: 2334
Flags: W
HStem: 0 21G<274 484.5> 874 150<206.868 531 684 1040.04>
DStem2: 351.102 -0 503.479 -0 0.207912 0.978148<34.3693 892.304>
LayerCount: 2
Fore
SplineSet
428 1024 m 2
 819 1024 l 2
 961 1024 1037 1053 1081 1084 c 1
 1043 902 l 1
 980 883 906 874 819 874 c 2
 684 874 l 1
 536 153 l 2
 524 98 500 47 469 -0 c 1
 274 0 l 1
 328 49 374 113 390 183 c 1
 531 874 l 1
 428 874 l 2
 303 874 229 852 166 812 c 1
 204 994 l 1
 265 1013 338 1024 428 1024 c 2
EndSplineSet
Validated: 3073
EndChar

StartChar: upsilon
Encoding: 965 965 501
Width: 1075
VWidth: 1947
Flags: W
HStem: -25 150<308.526 594.077> 899 150<725 813.424> 1004 20G<236.806 393>
VStem: 113 150<171.81 613.156> 241 152<872 1024> 829 149<495.826 892.582>
DStem2: 19.4562 -25 171.833 -25 0.207912 0.978148<399.975 1072.14>
LayerCount: 2
Fore
SplineSet
729 1049 m 2xd4
 957 1049 978 927 978 785 c 3
 978 720 965 618 940 498 c 0
 841 25 569 -25 438 -25 c 3
 269 -25 113 65 113 329 c 3xd4
 113 388 121 454 137 528 c 2
 241 1024 l 1
 393 1024 l 1xac
 283 498 l 2
 276 465 263 396 263 329 c 3
 263 168 333 125 438 125 c 3
 631 125 742 279 794 528 c 0
 817 639 829 722 829 783 c 3
 829 808 827 829 823 846 c 0
 816 878 808 899 729 899 c 2
 695 899 l 1
 725 1049 l 1
 729 1049 l 2xd4
EndSplineSet
Validated: 3073
EndChar

StartChar: phi
Encoding: 966 966 502
Width: 1075
VWidth: 1947
Flags: W
HStem: -16 147<288.434 346> 898 151<710.296 863.734>
VStem: 63 150<211.319 646.609> 173 152<822 974> 269 153<-387 -234> 873 150<488.414 893.116>
DStem2: -114.489 -387 37.8875 -387 0.207912 0.978148<819.049 1391.03> 269 -387 422 -387 0.207912 0.978148<31.8105 378.902 567.022 1331.06> 641.878 -387 794.679 -387 0.207912 0.978148<669.298 1167.92>
LayerCount: 2
Fore
SplineSet
873 760 m 3xc4
 873 881 857 898 795 898 c 27
 706 898 667 793 652 719 c 2
 531 137 l 1
 671 173 784 290 820 451 c 2
 855 610 l 2
 867 663 873 715 873 760 c 3xc4
269 -387 m 1xec
 346 -16 l 1
 161 22 63 178 63 379 c 3xec
 63 427 69 477 80 528 c 2
 173 974 l 1
 325 974 l 1xd4
 226 498 l 2
 217 456 213 416 213 379 c 3
 213 273 248 158 377 131 c 1
 506 749 l 2
 541 914 637 1049 792 1049 c 3
 977 1049 1023 892 1023 760 c 3
 1023 701 1014 639 1001 578 c 2
 966 419 l 2
 912 179 726 4 498 -22 c 1
 422 -387 l 1
 269 -387 l 1xec
EndSplineSet
Validated: 3073
EndChar

StartChar: chi
Encoding: 967 967 503
Width: 1075
VWidth: 2062
Flags: W
HStem: 1004 20G<111 307.714 837.329 1027>
VStem: -43 177<-387 -210> 850 177<847 1024>
DStem2: -43 -387 134 -387 0.534781 0.84499<94.6563 716.359 1062.56 1669.84> 294 1024 196 901 0.568514 -0.822673<0 363.761> 510 570 364 534 0.250276 -0.968174<-320.844 60.8764 407.49 864.818> 775 -265 653 -353 0.585005 -0.81103<-233.439 42.2001>
LayerCount: 2
Fore
SplineSet
318 989 m 2
 401 868 470 735 510 570 c 1
 525 511 l 1
 850 1024 l 1
 1027 1024 l 1
 577 312 l 1
 624 129 l 1
 664 -34 709 -174 775 -265 c 2
 863 -387 l 1
 678 -387 l 1
 653 -353 l 2
 564 -230 514 -55 478 93 c 2
 467 138 l 1
 134 -387 l 1
 -43 -387 l 1
 415 337 l 1
 364 534 l 1
 328 683 267 799 196 901 c 2
 111 1024 l 1
 294 1024 l 1
 318 989 l 2
EndSplineSet
Validated: 3073
EndChar

StartChar: psi
Encoding: 968 968 504
Width: 1075
VWidth: 1947
Flags: W
HStem: -16 147<291.557 346> 1027 20G<563.83 720>
VStem: 63 150<208.472 646.609> 172 153<821 974> 269 153<-387 -234> 568 152<895 1047> 933 152<822 974>
DStem2: -114.489 -387 37.8875 -387 0.207912 0.978148<818.026 1390.82> 269 -387 422 -387 0.207912 0.978148<31.8105 381.097 570.165 1464.83> 645.511 -387 797.887 -387 0.207912 0.978148<710.214 1391.03>
LayerCount: 2
Fore
SplineSet
269 -387 m 1xee
 346 -16 l 1
 173 21 63 165 63 378 c 3xee
 63 426 69 476 80 528 c 2
 172 974 l 1
 325 974 l 1xd6
 226 498 l 2
 217 454 213 414 213 378 c 3
 213 275 248 158 377 131 c 1
 568 1047 l 1
 720 1047 l 1
 532 140 l 1
 681 188 802 345 840 528 c 2
 933 974 l 1
 1085 974 l 1
 986 498 l 2
 937 262 758 13 498 -21 c 1
 422 -387 l 1
 269 -387 l 1xee
EndSplineSet
Validated: 3073
EndChar

StartChar: omega
Encoding: 969 969 505
Width: 1075
VWidth: 2334
Flags: W
HStem: -25 150<197.003 374.298 541.119 705.392> 1004 20G<247.5 438 852 1009.49>
VStem: 40 150<125.171 382.352> 882 150<569.617 981.101>
DStem2: -25.9213 -25 126.455 -25 0.207912 0.978148<294.982 1009.19> 260 1024 366 910 0.533993 0.845489<-275.344 0> 344.798 -25 497.175 -25 0.207912 0.978148<227.826 788.646> 711.866 -25 864.243 -25 0.207912 0.978148<196.197 865.605>
LayerCount: 2
Fore
SplineSet
238 -25 m 2
 166 -25 40 103 40 229 c 27
 40 277 45 307 54 351 c 2
 137 749 l 2
 150 813 182 905 240 992 c 2
 260 1024 l 1
 438 1024 l 1
 366 910 l 2
 344 876 300 799 283 719 c 2
 200 321 l 2
 193 286 190 265 190 229 c 27
 190 184 194 125 238 125 c 2
 249 125 l 2
 355 125 384 159 399 230 c 2
 506 747 l 1
 652 717 l 1
 545 200 l 2
 542 187 540 175 540 166 c 3
 540 135 560 125 621 125 c 2
 633 125 l 2
 704 132 770 249 792 352 c 2
 875 749 l 2
 880 772 882 799 882 825 c 3
 882 894 870 939 870 939 c 2
 852 1024 l 1
 1005 1024 l 1
 1016 975 l 2
 1021 956 1032 889 1032 825 c 3
 1032 792 1029 756 1021 719 c 2
 938 322 l 2
 914 208 843 50 720 -5 c 0
 686 -20 646 -24 633 -25 c 2
 621 -25 l 2
 531 -25 480 -3 446 29 c 1
 376 -23 291 -25 249 -25 c 2
 238 -25 l 2
EndSplineSet
Validated: 3073
EndChar

StartChar: dieresiscmb
Encoding: 776 776 508
Width: 1075
VWidth: 1947
Flags: W
HStem: 1285 198<450.719 608.283 827.928 984.598>
VStem: 433 193<1302.19 1466.9> 811 191<1302.46 1467.07>
LayerCount: 2
Fore
SplineSet
1002 1386 m 0
 1002 1327 955 1285 907 1285 c 0
 856 1285 811 1331 811 1386 c 0
 811 1442 856 1483 907 1483 c 0
 954 1483 1002 1446 1002 1386 c 0
626 1386 m 0
 626 1332 583 1285 530 1285 c 0
 478 1285 433 1330 433 1386 c 0
 433 1446 481 1483 529 1483 c 0
 584 1483 626 1438 626 1386 c 0
EndSplineSet
Validated: 3073
EndChar

StartChar: Djecyrillic
Encoding: 1026 1026 512
Width: 1075
VWidth: 2334
Flags: W
HStem: 0 150<612 709.104> 829 150<679.699 860.311> 1250 150<268 495 648 1013>
VStem: 234 152<0 152> 865 150<669.404 820.901>
DStem2: 234 0 386 0 0.207912 0.978148<31.6026 719.643 942.99 1276.95> 705.393 0 857.769 0 0.207912 0.978148<173.711 795.586>
LayerCount: 2
Fore
SplineSet
865 780 m 3
 865 824 825 829 775 829 c 2
 755 829 l 2
 725 829 538 724 472 410 c 2
 386 0 l 1
 234 0 l 1
 495 1250 l 1
 237 1250 l 1
 268 1400 l 1
 1044 1400 l 1
 1013 1250 l 1
 648 1250 l 1
 573 892 l 1
 637 948 701 979 755 979 c 2
 775 979 l 2
 808 979 1015 968 1015 780 c 3
 1015 755 1011 730 1006 704 c 2
 926 321 l 2
 896 176 809 0 633 0 c 2
 612 0 l 1
 612 150 l 1
 633 150 l 2
 699 150 754 229 780 351 c 2
 860 734 l 2
 864 752 865 768 865 780 c 3
EndSplineSet
Validated: 3073
EndChar

StartChar: Ljecyrillic
Encoding: 1033 1033 513
Width: 1075
VWidth: 1947
Flags: W
HStem: 0 150<548 726.754> 722 150<704 821.164> 1250 150<525.444 629>
VStem: -38 158<0 158> 866 150<451.921 680.552>
DStem2: -38 0 120 0 0.295248 0.95542<46.6493 1347.5> 364 0 516.117 0 0.207912 0.978148<184.978 769.22 923.635 1277.78> 752.18 0 904.557 0 0.207912 0.978148<207.791 585.226>
LayerCount: 2
Fore
SplineSet
301 1097 m 2
 344 1237 453 1400 554 1400 c 2
 813 1400 l 1
 704 872 l 1
 901 867 1016 749 1016 575 c 3
 1016 545 1012 514 1005 480 c 2
 973 322 l 1
 930 115 798 0 535 0 c 2
 364 0 l 1
 629 1250 l 1
 566 1250 l 1
 544 1234 480 1165 445 1053 c 2
 120 0 l 1
 -38 0 l 1
 301 1097 l 2
667 722 m 1
 548 150 l 1
 748 153 803 237 827 352 c 2
 859 510 l 2
 864 535 866 556 866 575 c 3
 866 700 759 722 684 722 c 2
 667 722 l 1
EndSplineSet
Validated: 3073
EndChar

StartChar: Njecyrillic
Encoding: 1034 1034 514
Width: 1075
VWidth: 1947
Flags: W
HStem: 0 150<548 726.754> 722 150<302 516 700 828.717> 1380 20G<256.771 413 654.758 812>
VStem: -35 153<0 153> 261 152<1248 1400> 659 153<1247 1400> 866 150<328.875 683.105>
DStem2: -35 0 118 0 0.207912 0.978148<31.8105 769.636 923.011 1430.95> 364 0 516.117 0 0.207912 0.978148<184.978 737.825 922.803 1430.74> 752.18 0 904.557 0 0.207912 0.978148<207.791 583.27>
LayerCount: 2
Fore
SplineSet
669 722 m 1
 548 150 l 1
 748 153 803 237 827 352 c 2
 859 510 l 2
 864 533 866 554 866 573 c 3
 866 692 780 722 687 722 c 2
 669 722 l 1
118 0 m 1
 -35 0 l 1
 261 1400 l 1
 413 1400 l 1
 302 872 l 1
 547 872 l 1
 659 1400 l 1
 812 1400 l 1
 700 872 l 1
 908 867 1016 741 1016 573 c 3
 1016 543 1011 512 1005 480 c 2
 973 322 l 1
 930 115 798 0 535 0 c 2
 364 0 l 1
 516 722 l 1
 270 722 l 1
 118 0 l 1
EndSplineSet
Validated: 3073
EndChar

StartChar: Tshecyrillic
Encoding: 1035 1035 515
Width: 1075
VWidth: 1947
Flags: W
HStem: 0 21G<236 392.179 708 864.148> 829 150<674.861 858.006> 1250 150<270 495 648 1015>
VStem: 236 152<0 152> 708 152<0 152> 865 150<666.977 821.782>
DStem2: 236 0 388 0 0.207912 0.978148<31.6026 716.721 948.859 1276.53> 708 0 860 0 0.207912 0.978148<31.6026 793.088>
LayerCount: 2
Fore
SplineSet
775 979 m 2
 1000 979 1015 854 1015 780 c 3
 1015 765 1011 728 1006 704 c 2
 860 0 l 1
 708 0 l 1
 860 734 l 2
 863 751 865 766 865 778 c 3
 865 808 841 829 775 829 c 2
 755 829 l 2
 695 825 532 687 472 402 c 2
 388 0 l 1
 236 0 l 1
 495 1250 l 1
 239 1250 l 1
 270 1400 l 1
 1047 1400 l 1
 1015 1250 l 1
 648 1250 l 1
 575 898 l 1
 660 974 724 979 755 979 c 2
 775 979 l 2
EndSplineSet
Validated: 3073
EndChar

StartChar: Dzhecyrillic
Encoding: 1039 1039 516
Width: 1075
VWidth: 2334
Flags: W
HStem: -384 21G<270 426.219> 0 150<213 350 503 705> 1380 20G<315.843 472 960.84 1117>
VStem: 270 152<-384 -232> 320 152<1248 1400> 965 152<1248 1400>
DStem2: -52.6217 -384 99.4948 -384 0.207912 0.978148<577.557 1822.49> 270 -384 422 -384 0.207912 0.978148<31.6026 392.242> 591.495 -384 745.378 -384 0.207912 0.978148<545.93 1822.67>
LayerCount: 2
Fore
SplineSet
213 150 m 1xec
 705 150 l 1
 965 1400 l 1
 1117 1400 l 1
 827 0 l 1
 503 0 l 1
 422 -384 l 1
 270 -384 l 1xf4
 350 0 l 1
 29 0 l 1
 320 1400 l 1
 472 1400 l 1
 213 150 l 1xec
EndSplineSet
Validated: 3073
EndChar

StartChar: djecyrillic
Encoding: 1106 1106 517
Width: 1075
VWidth: 2334
Flags: W
HStem: -369 150<290.155 568.235> 0 21G<85 242.179> 780 150<534.153 799.393> 1110 150<191 317 501 822> 1406 20G<378.783 536>
VStem: 85 153<0 153> 383 153<1273 1426> 809 150<439.523 771.535>
DStem2: 6.56663 -369 159.567 -369 0.207912 0.978148<409.054 1052.18 1254.93 1511.22 1696.2 1834.04> 594.33 -369 746.707 -369 0.207912 0.978148<212.496 1089.73>
LayerCount: 2
Fore
SplineSet
809 701 m 3
 809 766 795 780 673 780 c 2
 652 780 l 2
 526 780 361 589 336 469 c 2
 238 0 l 1
 85 0 l 1
 317 1110 l 1
 159 1110 l 1
 191 1260 l 1
 348 1260 l 1
 383 1426 l 1
 536 1426 l 1
 501 1260 l 1
 853 1260 l 1
 822 1110 l 1
 470 1110 l 1
 411 828 l 1
 483 889 566 930 652 930 c 2
 673 930 l 2
 901 930 959 844 959 701 c 3
 959 666 949 595 937 538 c 2
 816 -43 l 2
 780 -212 638 -369 440 -369 c 2
 383 -369 l 2
 229 -369 169 -278 166 -271 c 1
 290 -185 l 1
 293 -190 316 -219 383 -219 c 2
 440 -219 l 2
 552 -219 646 -128 670 -13 c 2
 791 568 l 2
 802 622 809 668 809 701 c 3
EndSplineSet
Validated: 3073
EndChar

StartChar: dzhecyrillic
Encoding: 1119 1119 519
Width: 1075
VWidth: 1947
Flags: W
HStem: 0 151<213 351 504 705> 1004 20G<236.859 394 880.876 1038>
VStem: 241 153<871 1024> 269 153<-387 -234> 885 153<871 1024>
DStem2: -53.2594 -387 98.6446 -387 0.207912 0.978148<581.602 1441.35> 269 -387 422 -387 0.207912 0.978148<31.8105 395.592> 590.645 -387 744.741 -387 0.207912 0.978148<550.019 1441.37>
LayerCount: 2
Fore
SplineSet
213 151 m 1xe8
 705 151 l 1
 885 1024 l 1
 1038 1024 l 1
 827 0 l 1
 504 0 l 1
 422 -387 l 1
 269 -387 l 1xd8
 351 0 l 1
 29 0 l 1
 241 1024 l 1
 394 1024 l 1
 213 151 l 1xe8
EndSplineSet
Validated: 3073
EndChar

StartChar: ljecyrillic
Encoding: 1113 1113 520
Width: 1075
VWidth: 1947
Flags: W
HStem: 0 150<537 734.706> 486 150<638 781.14> 873 151<404.716 534>
VStem: -35 155<0 155> 796 149<293.147 472.281>
DStem2: -35 0 120 0 0.265686 0.96406<41.1813 898.942> 353 0 505.117 0 0.207912 0.978148<184.978 528.189 681.357 891.555> 718.76 0 871.136 0 0.207912 0.978148<170.434 396.053>
LayerCount: 2
Fore
SplineSet
140 635 m 2
 203 863 295 973 454 1024 c 1
 718 1024 l 1
 638 636 l 1
 703 636 l 2
 824 636 945 549 945 391 c 3
 945 369 943 346 938 322 c 2
 923 244 l 2
 890 70 747 0 604 0 c 2
 353 -0 l 1
 534 873 l 1
 478 873 l 1
 372 834 323 735 284 595 c 2
 120 0 l 1
 -35 0 l 1
 140 635 l 2
607 486 m 1
 537 150 l 1
 604 150 l 2
 681 150 758 177 777 274 c 2
 792 352 l 2
 795 365 796 378 796 389 c 3
 796 447 765 486 703 486 c 2
 607 486 l 1
EndSplineSet
Validated: 3073
EndChar

StartChar: njecyrillic
Encoding: 1114 1114 521
Width: 1075
VWidth: 1947
Flags: W
HStem: 0 150<537 734.706> 486 150<267 453 637 781.14> 1004 20G<189.879 346 559.876 716>
VStem: -17 153<0 153> 194 152<872 1024> 564 152<872 1024> 796 149<213.144 473.733>
DStem2: -17 0 136 0 0.207912 0.978148<31.8105 527.981 681.149 1045.49> 353 0 505.117 0 0.207912 0.978148<184.978 496.171 681.149 1045.49> 718.76 0 871.136 0 0.207912 0.978148<170.434 396.053>
LayerCount: 2
Fore
SplineSet
537 150 m 1
 604 150 l 2
 681 150 758 177 777 274 c 2
 792 352 l 2
 795 365 796 378 796 389 c 3
 796 447 765 486 703 486 c 2
 606 486 l 1
 537 150 l 1
136 0 m 1
 -17 0 l 1
 194 1024 l 1
 346 1024 l 1
 267 636 l 1
 484 636 l 1
 564 1024 l 1
 716 1024 l 1
 637 636 l 1
 703 636 l 2
 824 636 945 549 945 391 c 3
 945 369 943 346 938 322 c 2
 923 244 l 2
 890 70 747 0 604 0 c 2
 353 0 l 1
 453 486 l 1
 236 486 l 1
 136 0 l 1
EndSplineSet
Validated: 3073
EndChar

StartChar: apostrophereverse
Encoding: 8219 8219 523
Width: 1075
VWidth: 1708
Flags: W
HStem: 959 465
VStem: 586 101<1070.41 1233.97>
LayerCount: 2
Fore
SplineSet
774 959 m 1
 623 1009 586 1112 586 1214 c 3
 586 1261 594 1307 602 1347 c 0
 611 1390 648 1424 698 1424 c 3
 756 1424 795 1378 795 1327 c 3
 795 1288 773 1253 738 1238 c 1
 701 1218 687 1192 687 1165 c 3
 687 1104 757 1037 800 1010 c 1
 774 959 l 1
EndSplineSet
EndChar

StartChar: arrowleft
Encoding: 8592 8592 526
Width: 1075
VWidth: 1708
Flags: W
HStem: 520 160<353 949>
DStem2: 127 674 353 680 0.687366 0.726311<159.703 513.395> 353 520 127 526 0.687366 -0.726311<0 353.692>
LayerCount: 2
Fore
SplineSet
949 680 m 1
 949 520 l 1
 353 520 l 1
 596 263 l 1
 480 153 l 1
 127 526 l 1
 127 674 l 1
 480 1047 l 1
 596 937 l 1
 353 680 l 1
 949 680 l 1
EndSplineSet
Validated: 3073
EndChar

StartChar: arrowright
Encoding: 8594 8594 527
Width: 1075
VWidth: 1708
Flags: W
HStem: 520 160<127 723>
DStem2: 596 1047 480 937 0.687366 -0.726311<0.159668 353.852> 480 263 596 153 0.687366 0.726311<0 353.692>
LayerCount: 2
Fore
SplineSet
127 520 m 1
 127 680 l 1
 723 680 l 1
 480 937 l 1
 596 1047 l 1
 949 674 l 1
 949 526 l 1
 596 153 l 1
 480 263 l 1
 723 520 l 1
 127 520 l 1
EndSplineSet
Validated: 3073
EndChar

StartChar: lthorizform
Encoding: 9472 9472 528
Width: 1075
Flags: W
HStem: 443 160<0 1075>
LayerCount: 2
Fore
SplineSet
0 443 m 1
 -0 603 l 1
 1075 603 l 1
 1075 443 l 1
 0 443 l 1
EndSplineSet
Validated: 3073
EndChar

StartChar: ltvertform
Encoding: 9474 9474 529
Width: 1075
Flags: W
VStem: 458 160<-615 1775>
LayerCount: 2
Fore
SplineSet
618 -615 m 1
 458 -615 l 1
 458 1775 l 1
 618 1775 l 1
 618 -615 l 1
EndSplineSet
Validated: 3073
EndChar

StartChar: rightanglenw
Encoding: 9484 9484 530
Width: 1075
Flags: W
HStem: 443 160<618 1075>
VStem: 458 160<-615 443>
LayerCount: 2
Fore
SplineSet
458 -615 m 1
 458 603 l 1
 1075 603 l 1
 1075 443 l 1
 618 443 l 1
 618 -615 l 1
 458 -615 l 1
EndSplineSet
Validated: 3073
EndChar

StartChar: rightanglene
Encoding: 9488 9488 531
Width: 1075
Flags: W
HStem: 443 160<0 458>
VStem: 458 160<-615 443>
LayerCount: 2
Fore
SplineSet
458 443 m 1
 0 443 l 1
 -0 603 l 1
 618 603 l 1
 618 -615 l 1
 458 -615 l 1
 458 443 l 1
EndSplineSet
Validated: 3073
EndChar

StartChar: rightanglesw
Encoding: 9492 9492 532
Width: 1075
Flags: W
HStem: 443 160<618 1075>
VStem: 458 160<603 1775>
LayerCount: 2
Fore
SplineSet
618 603 m 1
 1075 603 l 1
 1075 443 l 1
 458 443 l 1
 458 1775 l 1
 618 1775 l 1
 618 603 l 1
EndSplineSet
Validated: 3073
EndChar

StartChar: rightanglese
Encoding: 9496 9496 533
Width: 1075
Flags: W
HStem: 443 160<0 458>
VStem: 458 160<603 1775>
LayerCount: 2
Fore
SplineSet
618 1775 m 1
 618 443 l 1
 0 443 l 1
 -0 603 l 1
 458 603 l 1
 458 1775 l 1
 618 1775 l 1
EndSplineSet
Validated: 3073
EndChar

StartChar: ltvertrightform
Encoding: 9500 9500 534
Width: 1075
Flags: W
HStem: 443 160<618 1075>
VStem: 458 160<-615 443 603 1775>
LayerCount: 2
Fore
SplineSet
618 -615 m 1
 458 -615 l 1
 458 1775 l 1
 618 1775 l 1
 618 603 l 1
 1075 603 l 1
 1075 443 l 1
 618 443 l 1
 618 -615 l 1
EndSplineSet
Validated: 3073
EndChar

StartChar: ltvertleftform
Encoding: 9508 9508 535
Width: 1075
Flags: W
HStem: 443 160<0 458>
VStem: 458 160<-615 443 603 1775>
LayerCount: 2
Fore
SplineSet
0 443 m 1
 -0 603 l 1
 458 603 l 1
 458 1775 l 1
 618 1775 l 1
 618 -615 l 1
 458 -615 l 1
 458 443 l 1
 0 443 l 1
EndSplineSet
Validated: 3073
EndChar

StartChar: ltdnhorizform
Encoding: 9516 9516 536
Width: 1075
Flags: W
HStem: 443 160<0 458 618 1075>
VStem: 458 160<-615 443>
LayerCount: 2
Fore
SplineSet
0 443 m 1
 -0 603 l 1
 1075 603 l 1
 1075 443 l 1
 618 443 l 1
 618 -615 l 1
 458 -615 l 1
 458 443 l 1
 0 443 l 1
EndSplineSet
Validated: 3073
EndChar

StartChar: ltuphorizform
Encoding: 9524 9524 537
Width: 1075
Flags: W
HStem: 443 160<0 458 618 1075>
VStem: 458 160<603 1775>
LayerCount: 2
Fore
SplineSet
0 443 m 1
 -0 603 l 1
 458 603 l 1
 458 1775 l 1
 618 1775 l 1
 618 603 l 1
 1075 603 l 1
 1075 443 l 1
 0 443 l 1
EndSplineSet
Validated: 3073
EndChar

StartChar: ltverthorizform
Encoding: 9532 9532 538
Width: 1075
Flags: W
HStem: 443 160<0 458 618 1075>
VStem: 458 160<-615 443 603 1775>
LayerCount: 2
Fore
SplineSet
0 443 m 1
 -0 603 l 1
 458 603 l 1
 458 1775 l 1
 618 1775 l 1
 618 603 l 1
 1075 603 l 1
 1075 443 l 1
 618 443 l 1
 618 -615 l 1
 458 -615 l 1
 458 443 l 1
 0 443 l 1
EndSplineSet
Validated: 3073
EndChar

StartChar: horizdblbar
Encoding: 9552 9552 539
Width: 1075
Flags: W
HStem: 283 160<0 1075> 635 160<0 1075>
LayerCount: 2
Fore
SplineSet
0 635 m 1
 -0 795 l 1
 1075 795 l 1
 1075 635 l 1
 0 635 l 1
0 283 m 1
 -0 443 l 1
 1075 443 l 1
 1075 283 l 1
 0 283 l 1
EndSplineSet
Validated: 3073
EndChar

StartChar: vertdblbar
Encoding: 9553 9553 540
Width: 1075
Flags: W
VStem: 298 160<-615 1775> 618 160<-615 1775>
LayerCount: 2
Fore
SplineSet
778 -615 m 1
 618 -615 l 1
 618 1775 l 1
 778 1775 l 1
 778 -615 l 1
458 -615 m 1
 298 -615 l 1
 298 1775 l 1
 458 1775 l 1
 458 -615 l 1
EndSplineSet
Validated: 3073
EndChar

StartChar: dnrtdblform
Encoding: 9554 9554 541
Width: 1075
Flags: W
HStem: 283 160<618 1075> 635 160<618 1075>
VStem: 458 160<-615 283 443 635>
LayerCount: 2
Fore
SplineSet
618 283 m 1
 618 -615 l 1
 458 -615 l 1
 458 795 l 1
 1075 795 l 1
 1075 635 l 1
 618 635 l 1
 618 443 l 1
 1075 443 l 1
 1075 283 l 1
 618 283 l 1
EndSplineSet
Validated: 3073
EndChar

StartChar: dndblrtform
Encoding: 9555 9555 542
Width: 1075
Flags: W
HStem: 443 160<458 618 778 1075>
VStem: 298 160<-615 443> 618 160<-615 443>
LayerCount: 2
Fore
SplineSet
778 -615 m 1
 618 -615 l 1
 618 443 l 1
 458 443 l 1
 458 -615 l 1
 298 -615 l 1
 298 603 l 1
 1075 603 l 1
 1075 443 l 1
 778 443 l 1
 778 -615 l 1
EndSplineSet
Validated: 3073
EndChar

StartChar: dbldnrtform
Encoding: 9556 9556 543
Width: 1075
Flags: W
HStem: 283 160<778 1075> 635 160<458 1075>
VStem: 298 160<-615 635> 618 160<-615 283>
LayerCount: 2
Fore
SplineSet
458 635 m 1
 458 -615 l 1
 298 -615 l 1
 298 795 l 1
 1075 795 l 1
 1075 635 l 1
 458 635 l 1
778 283 m 1
 778 -615 l 1
 618 -615 l 1
 618 443 l 1
 1075 443 l 1
 1075 283 l 1
 778 283 l 1
EndSplineSet
Validated: 3073
EndChar

StartChar: dnleftdblform
Encoding: 9557 9557 544
Width: 1075
Flags: W
HStem: 283 160<0 458> 635 160<0 458>
VStem: 458 160<-615 283 443 635>
LayerCount: 2
Fore
SplineSet
0 795 m 1
 618 795 l 1
 618 -615 l 1
 458 -615 l 1
 458 283 l 1
 0 283 l 1
 -0 443 l 1
 458 443 l 1
 458 635 l 1
 -0 635 l 1
 0 795 l 1
EndSplineSet
Validated: 3073
EndChar

StartChar: dndblleftform
Encoding: 9558 9558 545
Width: 1075
Flags: W
HStem: 443 160<0 298 458 618>
VStem: 298 160<-615 443> 618 160<-615 443>
LayerCount: 2
Fore
SplineSet
458 -615 m 1
 298 -615 l 1
 298 443 l 1
 0 443 l 1
 -0 603 l 1
 778 603 l 1
 778 -615 l 1
 618 -615 l 1
 618 443 l 1
 458 443 l 1
 458 -615 l 1
EndSplineSet
Validated: 3073
EndChar

StartChar: dbldnleftform
Encoding: 9559 9559 546
Width: 1075
Flags: W
HStem: 283 160<0 298> 635 160<0 618>
VStem: 298 160<-615 283> 618 160<-615 635>
LayerCount: 2
Fore
SplineSet
0 795 m 1
 778 795 l 1
 778 -615 l 1
 618 -615 l 1
 618 635 l 1
 -0 635 l 1
 0 795 l 1
0 443 m 1
 458 443 l 1
 458 -615 l 1
 298 -615 l 1
 298 283 l 1
 -0 283 l 1
 0 443 l 1
EndSplineSet
Validated: 3073
EndChar

StartChar: uprtdblform
Encoding: 9560 9560 547
Width: 1075
Flags: W
HStem: 283 160<618 1075> 603 160<618 1075>
VStem: 458 160<443 603 763 1775>
LayerCount: 2
Fore
SplineSet
1075 283 m 1
 458 283 l 1
 458 1775 l 1
 618 1775 l 1
 618 763 l 1
 1075 763 l 1
 1075 603 l 1
 618 603 l 1
 618 443 l 1
 1075 443 l 1
 1075 283 l 1
EndSplineSet
Validated: 3073
EndChar

StartChar: updblrtform
Encoding: 9561 9561 548
Width: 1075
Flags: W
HStem: 443 160<458 618 778 1075>
VStem: 298 160<603 1775> 618 160<603 1775>
LayerCount: 2
Fore
SplineSet
778 603 m 1
 1075 603 l 1
 1075 443 l 1
 298 443 l 1
 298 1775 l 1
 458 1775 l 1
 458 603 l 1
 618 603 l 1
 618 1775 l 1
 778 1775 l 1
 778 603 l 1
EndSplineSet
Validated: 3073
EndChar

StartChar: dbluprtform
Encoding: 9562 9562 549
Width: 1075
Flags: W
HStem: 283 160<458 1075> 635 160<778 1075>
VStem: 298 160<443 1775> 618 160<795 1775>
LayerCount: 2
Fore
SplineSet
1075 635 m 1
 618 635 l 1
 618 1775 l 1
 778 1775 l 1
 778 795 l 1
 1075 795 l 1
 1075 635 l 1
1075 283 m 1
 298 283 l 1
 298 1775 l 1
 458 1775 l 1
 458 443 l 1
 1075 443 l 1
 1075 283 l 1
EndSplineSet
Validated: 3073
EndChar

StartChar: upleftdblform
Encoding: 9563 9563 550
Width: 1075
Flags: W
HStem: 283 160<0 458> 603 160<0 458>
VStem: 458 160<443 603 763 1775>
LayerCount: 2
Fore
SplineSet
0 603 m 1
 -0 763 l 1
 458 763 l 1
 458 1775 l 1
 618 1775 l 1
 618 283 l 1
 -0 283 l 1
 0 443 l 1
 458 443 l 1
 458 603 l 1
 0 603 l 1
EndSplineSet
Validated: 3073
EndChar

